<svg width="695" height="297" viewBox="0 0 695 297" fill="none" xmlns="http://www.w3.org/2000/svg">
<path d="M115.279 203.766C83.1224 210.135 50.3228 210.135 18.1659 203.766C5.7329 201.319 -2.14563 187.816 0.517277 175.134C3.16182 162.416 13.8685 154.627 24.4283 156.701C52.4531 162.248 81.0104 162.248 109.035 156.701C119.595 154.627 130.283 162.416 132.946 175.134C135.591 187.816 127.712 201.301 115.279 203.766Z" fill="#FF5350"/>
<path d="M677.905 203.766C647.878 210.135 617.264 210.135 587.256 203.766C575.649 201.319 568.285 187.816 570.764 175.134C573.244 162.416 583.234 154.627 593.078 156.701C619.229 162.248 645.913 162.248 672.065 156.701C681.927 154.627 691.917 162.416 694.378 175.134C696.857 187.816 689.512 201.301 677.905 203.766Z" fill="#FF5350"/>
<path d="M116.399 164.619C116.399 164.619 252.832 173.696 290.021 120.019V230.566L116.399 164.619Z" fill="#FF5350"/>
<path d="M602.866 164.619C602.866 164.619 466.433 173.696 429.245 120.019V230.566L602.866 164.619Z" fill="#FF5350"/>
<path d="M433.167 123.801C417.059 104.664 389.602 96.8517 357.662 94.9124C337.328 97.9311 317.714 100.84 299.687 116.519C287.804 126.838 277.471 140.761 277.6 156.404C277.692 166.32 282.028 175.797 287.933 183.792C303.469 204.813 329.228 216.285 355.005 221.316C382.628 226.713 414.697 224.298 433.832 203.826C453.833 182.456 452.025 146.158 433.167 123.801Z" fill="#FAE2E1"/>
<path d="M362.847 195.886C463.742 195.886 423.074 110.958 423.074 110.958C520.74 214.273 448.095 296.895 364.213 296.895C320.371 296.895 267.267 276.075 258.521 221.756C249.184 163.704 293.358 110.958 293.358 110.958C293.358 110.958 265.052 195.886 362.847 195.886Z" fill="#DFDEE6"/>
<path d="M338.952 139.041C340.927 139.553 341.738 142.444 340.299 143.889C338.86 145.335 335.945 144.566 335.391 142.627C334.856 140.651 336.978 138.529 338.952 139.041Z" fill="#1F191A"/>
<path d="M377.922 139.041C379.897 139.553 380.709 142.444 379.269 143.889C377.83 145.335 374.915 144.566 374.361 142.627C373.826 140.651 375.948 138.529 377.922 139.041Z" fill="#1F191A"/>
<path d="M307.824 141.145C307.787 136.571 310.019 132.144 313.433 128.851C316.865 125.557 321.423 123.435 326.091 122.685C330.759 121.898 335.557 122.411 339.875 124.149C340.945 124.57 341.996 125.064 342.993 125.704C343.491 126.015 343.989 126.308 344.451 126.637L345.798 127.753C347.551 129.253 349.008 131.192 349.783 133.351C345.226 132.583 341.646 132.546 338.048 132.601C334.505 132.674 331.147 133.004 327.881 133.534C324.615 134.065 321.497 134.815 318.286 136.004C315.057 137.12 311.809 138.785 307.824 141.145Z" fill="white"/>
<path d="M405.6 141.144C401.596 138.784 398.348 137.138 395.119 135.967C391.909 134.796 388.772 134.046 385.524 133.497C382.277 132.966 378.919 132.655 375.357 132.564C371.778 132.509 368.18 132.527 363.622 133.314C364.397 131.173 365.855 129.216 367.608 127.716L368.973 126.6C369.453 126.27 369.933 125.977 370.431 125.666C371.427 125.026 372.461 124.55 373.549 124.111C377.867 122.373 382.664 121.879 387.333 122.648C391.983 123.416 396.54 125.52 399.991 128.813C403.404 132.125 405.637 136.552 405.6 141.144Z" fill="white"/>
<path d="M283.578 99.7058C281.955 30.7684 330.261 -7.41436 391.171 1.20283C447.504 9.17967 466.879 75.4826 466.879 75.4826C466.879 75.4826 455.144 58.852 430.16 58.852C405.176 58.852 427.392 98.0044 427.392 98.0044" fill="#FF5350"/>
<path d="M334.763 72.6283C324.652 59.6202 320.076 43.0445 325.833 27.164C327.512 22.5352 330.021 18.0162 333.158 13.9729C306.292 28.1153 289.077 57.0771 290.036 97.1992L364.489 96.321C352.865 90.997 342.495 82.581 334.763 72.6283Z" fill="#E05150"/>
<path d="M280.386 129.82C276.899 124.386 275.681 116.501 274.592 110.152C267.249 67.176 439.293 47.3253 439.718 102.395C439.792 113.299 430.234 119.318 430.234 119.318C430.234 119.318 398.976 110.957 354.267 110.555C308.618 110.152 280.386 129.82 280.386 129.82Z" fill="white"/>
<path d="M430.234 119.319C424.071 118.184 417.908 117.178 411.689 116.446C405.49 115.623 399.29 114.928 393.09 114.361C380.672 113.244 368.217 112.549 355.762 112.403C343.362 112.11 331 113.373 318.914 116.062C312.898 117.489 306.938 119.245 301.163 121.496C295.369 123.71 289.723 126.399 284.501 129.82C294.207 121.862 306.071 116.702 318.212 113.299L322.807 112.128C324.338 111.726 325.907 111.506 327.457 111.177C330.557 110.5 333.712 110.153 336.849 109.695C339.986 109.311 343.159 109.146 346.315 108.927C349.47 108.89 352.662 108.725 355.799 108.78C368.383 109 380.949 109.842 393.404 111.561C405.859 113.226 418.24 115.641 430.234 119.319Z" fill="#DDDDDD"/>
<path d="M485.091 81.3928C485.091 88.1256 478.799 93.5959 471.049 93.5959C463.281 93.5959 456.989 88.1256 456.989 81.3928C456.989 74.6601 463.281 69.1897 471.049 69.1897C478.799 69.1714 485.091 74.6418 485.091 81.3928Z" fill="white"/>
<path d="M327.328 158.58C327.328 161.251 320.556 163.428 312.216 163.428C303.875 163.428 297.104 161.251 297.104 158.58C297.104 155.909 303.875 153.732 312.216 153.732C320.556 153.75 327.328 155.909 327.328 158.58Z" fill="#F1B7B3"/>
<path d="M423.129 158.58C423.129 161.251 416.358 163.428 408.017 163.428C399.677 163.428 392.905 161.251 392.905 158.58C392.905 155.909 399.677 153.732 408.017 153.732C416.376 153.75 423.129 155.909 423.129 158.58Z" fill="#F1B7B3"/>
<path d="M360.689 196.416C371.603 196.416 380.451 187.643 380.451 176.821C380.451 165.999 371.603 157.227 360.689 157.227C349.774 157.227 340.927 165.999 340.927 176.821C340.927 187.643 349.774 196.416 360.689 196.416Z" fill="#F1B7B3"/>
<path d="M360.688 196.416C360.688 196.416 357.828 156.586 297.103 183.353C297.103 183.353 283.873 190.817 274.371 176.821C274.371 176.821 280.183 237.599 360.688 196.416Z" fill="white"/>
<path d="M361.519 196.416C361.519 196.416 364.379 156.586 425.104 183.353C425.104 183.353 438.334 190.817 447.836 176.821C447.836 176.821 442.024 237.599 361.519 196.416Z" fill="white"/>
<path d="M35.1422 181.133C40.5942 181.133 45.014 174.522 45.014 166.368C45.014 158.214 40.5942 151.604 35.1422 151.604C29.6902 151.604 25.2705 158.214 25.2705 166.368C25.2705 174.522 29.6902 181.133 35.1422 181.133Z" fill="#FAE2E1"/>
<path d="M27.5952 169.753C28.5732 174.62 31.5808 178.151 35.142 178.151C38.7032 178.151 41.7109 174.601 42.6888 169.753H27.5952Z" fill="#E7FAF2"/>
<path d="M54.8859 181.132C60.3379 181.132 64.7576 174.522 64.7576 166.368C64.7576 158.214 60.3379 151.604 54.8859 151.604C49.4339 151.604 45.0142 158.214 45.0142 166.368C45.0142 174.522 49.4339 181.132 54.8859 181.132Z" fill="#FAE2E1"/>
<path d="M47.3389 169.753C48.3168 174.619 51.3245 178.15 54.8857 178.15C58.4469 178.15 61.4545 174.601 62.4325 169.753H47.3389Z" fill="#E7FAF2"/>
<path d="M74.6295 181.132C80.0816 181.132 84.5013 174.522 84.5013 166.368C84.5013 158.214 80.0816 151.604 74.6295 151.604C69.1775 151.604 64.7578 158.214 64.7578 166.368C64.7578 174.522 69.1775 181.132 74.6295 181.132Z" fill="#FAE2E1"/>
<path d="M67.0825 169.753C68.0605 174.619 71.0681 178.15 74.6293 178.15C78.1905 178.15 81.1982 174.601 82.1761 169.753H67.0825Z" fill="#E7FAF2"/>
<path d="M104.227 166.368C104.227 174.528 99.8169 181.132 94.3551 181.132C88.9118 181.132 84.4834 174.528 84.4834 166.368C84.4834 158.208 88.9118 151.604 94.3551 151.604C99.8169 151.604 104.227 158.226 104.227 166.368Z" fill="#FAE2E1"/>
<path d="M86.8267 169.753C87.8046 174.619 90.8123 178.15 94.3735 178.15C97.9347 178.15 100.942 174.601 101.92 169.753H86.8267Z" fill="#E7FAF2"/>
<path d="M613.534 166.368C613.534 174.528 609.106 181.133 603.662 181.133C598.219 181.133 593.791 174.528 593.791 166.368C593.791 158.208 598.201 151.604 603.662 151.604C609.124 151.604 613.534 158.227 613.534 166.368Z" fill="#FAE2E1"/>
<path d="M596.134 169.753C597.112 174.62 600.119 178.151 603.681 178.151C607.242 178.151 610.249 174.601 611.227 169.753H596.134Z" fill="#E7FAF2"/>
<path d="M623.406 181.132C628.858 181.132 633.278 174.522 633.278 166.368C633.278 158.214 628.858 151.604 623.406 151.604C617.954 151.604 613.534 158.214 613.534 166.368C613.534 174.522 617.954 181.132 623.406 181.132Z" fill="#FAE2E1"/>
<path d="M615.859 169.753C616.837 174.619 619.844 178.15 623.406 178.15C626.967 178.15 629.975 174.601 630.952 169.753H615.859Z" fill="#E7FAF2"/>
<path d="M643.148 181.132C648.6 181.132 653.02 174.522 653.02 166.368C653.02 158.214 648.6 151.604 643.148 151.604C637.696 151.604 633.276 158.214 633.276 166.368C633.276 174.522 637.696 181.132 643.148 181.132Z" fill="#FAE2E1"/>
<path d="M635.601 169.753C636.579 174.619 639.587 178.15 643.148 178.15C646.709 178.15 649.717 174.601 650.695 169.753H635.601Z" fill="#E7FAF2"/>
<path d="M662.892 181.132C668.344 181.132 672.764 174.522 672.764 166.368C672.764 158.214 668.344 151.604 662.892 151.604C657.44 151.604 653.02 158.214 653.02 166.368C653.02 174.522 657.44 181.132 662.892 181.132Z" fill="#FAE2E1"/>
<path d="M655.345 169.753C656.323 174.619 659.33 178.15 662.892 178.15C666.453 178.15 669.46 174.601 670.438 169.753H655.345Z" fill="#E7FAF2"/>
</svg>
