<svg width="177" height="34" viewBox="0 0 177 34" fill="none" xmlns="http://www.w3.org/2000/svg">
<g clip-path="url(#clip0_1107_25227)">
<path d="M174.27 12.84C171.26 9.73 166.85 7.56 162.97 6.54C160.56 5.91 158.35 6.38 155.96 6.09C153.6 5.8 151.72 4.43 149.36 4.24C144.48 3.84 140.05 7.05 134.9 6.21C133.53 5.99 132.24 5.55 131 5.02C125.79 2.84 120.15 1.82 114.51 2.04C113.4 2.08 112.29 2.14 111.18 2.21C105.22 2.59 98.36 3.17 92.51 2.25C87.72 1.5 83.84 -0.139999 78.8 0.0100006C68.2 0.320001 58.46 5.64 47.96 5.93C43.63 6.05 39.38 5.97 35.12 5.86C30.76 5.75 26.88 4.46 22.63 4.3C17.01 4.09 9.37003 4.41 5.57003 9.14C4.96003 9.89 4.25003 10.52 3.47003 11.05C3.14003 11.27 2.84003 11.53 2.60003 11.84C1.39003 13.41 0.0900329 15.15 0.100033 16.59C0.110033 18.57 2.64003 17.82 3.97003 18.41C3.99003 18.42 4.01003 18.43 4.03003 18.44C4.04003 18.43 4.04003 18.43 4.05003 18.43C4.08003 18.45 4.11003 18.48 4.15003 18.51C5.02003 18.96 5.46003 19.66 5.59003 20.54C6.79003 23.39 7.25003 27.71 9.85003 27.24C14.48 26.4 10.21 18.21 17.71 18.76C20.42 18.96 24.56 19.42 27.09 20.29C30.23 21.38 30.54 24.24 33.22 25.54C35.53 26.66 40.34 26.11 42.93 26.78C46.68 27.75 48.86 29.92 50.13 32.72C53.03 34.71 55.87 32.41 57.4 29.36C57.49 29.18 57.58 29 57.66 28.84C59.55 21.47 71.52 27.61 77.25 26C80.86 24.99 82.46 20.76 86.76 19.9C92.19 18.81 90.75 21.89 94.27 24.15C101.31 28.67 114.77 15.63 123.81 18.66C127.58 19.92 128.38 24.77 132.56 25.77C137.03 26.85 141.8 20.16 144.76 21.8C146.32 22.66 147.01 24.32 147.31 26.27C147.46 26.56 147.6 26.85 147.74 27.12C149.01 29.68 151.97 33.06 155.14 32.72H155.16C156.01 32.63 156.65 31.91 156.63 31.05C156.62 30.55 156.58 30.04 156.71 29.49C157.27 27.2 157.6 24.22 160.35 23.36C162.28 22.76 163.96 23.85 165.68 24.71C167.24 25.49 169.09 25.42 170.62 24.58L170.64 24.57C173.08 23.22 174.86 21.57 175.73 19.51C176.69 17.24 175.99 14.62 174.27 12.84Z" fill="url(#paint0_linear_1107_25227)"/>
<path d="M174.27 12.84C171.26 9.73 166.85 7.56 162.97 6.54C160.56 5.91 158.35 6.38 155.96 6.09C153.6 5.8 151.72 4.43 149.36 4.24C144.48 3.84 140.05 7.05 134.9 6.21C133.53 5.99 132.24 5.55 131 5.02C125.79 2.84 120.15 1.82 114.51 2.04C113.4 2.08 112.29 2.14 111.18 2.21C105.22 2.59 98.36 3.17 92.51 2.25C87.72 1.5 83.84 -0.139999 78.8 0.0100006C68.2 0.320001 58.46 5.64 47.96 5.93C43.63 6.05 39.38 5.97 35.12 5.86C30.76 5.75 26.88 4.46 22.63 4.3C17.01 4.09 9.37002 4.41 5.57002 9.14C4.96002 9.9 4.24002 10.53 3.45002 11.06C3.13002 11.27 2.85002 11.52 2.61002 11.82C1.37002 13.35 1.54525e-05 14.89 0.100015 16.59C0.210015 18.57 2.64002 17.82 3.97002 18.41C3.99002 18.42 4.01002 18.43 4.03002 18.44C4.04002 18.43 4.04002 18.43 4.05002 18.43C4.08002 18.45 4.11002 18.48 4.15002 18.51C5.02002 18.96 5.46002 19.66 5.59002 20.54C6.79002 23.39 7.25002 27.71 9.85002 27.24C14.48 26.4 10.21 18.21 17.71 18.76C20.42 18.96 24.56 19.42 27.09 20.29C30.23 21.38 30.54 24.24 33.22 25.54C35.53 26.66 40.34 26.11 42.93 26.78C46.68 27.75 48.86 29.92 50.13 32.72C53.03 34.71 55.87 32.41 57.4 29.36C57.49 29.18 57.58 29 57.66 28.84C59.55 21.47 71.52 27.61 77.25 26C80.86 24.99 82.46 20.76 86.76 19.9C92.19 18.81 90.75 21.89 94.27 24.15C101.31 28.67 114.77 15.63 123.81 18.66C127.58 19.92 128.38 24.77 132.56 25.77C137.03 26.85 141.8 20.16 144.76 21.8C146.32 22.66 147.01 24.32 147.31 26.27C147.46 26.56 147.6 26.85 147.74 27.12C149.01 29.68 151.97 33.06 155.14 32.72H155.16C156.01 32.63 156.65 31.91 156.63 31.05C156.62 30.55 156.58 30.04 156.71 29.49C157.27 27.2 157.6 24.22 160.35 23.36C162.28 22.76 163.96 23.85 165.68 24.71C167.24 25.49 169.09 25.42 170.62 24.58L170.64 24.57C173.08 23.22 174.86 21.57 175.73 19.51C176.69 17.24 175.99 14.62 174.27 12.84Z" fill="url(#paint1_linear_1107_25227)"/>
<path d="M155.96 6.09C153.66 5.91 151.67 4.43 149.36 4.24C144.48 3.84 140.05 7.05 134.9 6.21C133.53 5.99 132.24 5.55 131 5.02C125.79 2.84 120.16 1.82 114.51 2.04C113.4 2.08 112.29 2.14 111.18 2.21C105.22 2.59 98.36 3.17 92.51 2.25C87.72 1.5 83.84 -0.139999 78.8 0.0100006C68.2 0.320001 58.46 5.64 47.96 5.93C43.63 6.05 39.38 5.97 35.12 5.86C30.76 5.75 26.88 4.46 22.63 4.3C17.18 4.1 9.84002 4.39 5.93002 8.71C5.20002 9.52 4.28002 9.81 3.31002 10.23C2.34002 10.66 1.46002 11.31 0.850019 12.18C0.380019 12.85 0.0700186 13.65 0.0200186 14.47C0.0100186 14.71 -0.0699814 15.38 0.150019 15.55C0.340019 15.69 0.860019 15.5 1.07002 15.46C2.49002 15.14 3.97002 14.5 4.99002 13.43C6.00002 12.37 7.06002 10.86 8.48002 10.21C8.85002 10.04 9.24002 9.93 9.66002 9.9C11.11 9.8 12.38 10.82 13.86 10.71C15.6 10.58 17.04 9.27 18.69 8.83C20.64 8.31 22.55 9.45 24.59 9.03C26.75 8.59 28.65 7.75 30.9 7.97C33.92 8.27 36.3 10.31 39.15 11.09C42.87 12.11 45.24 9.26 48.69 9.32C52.22 9.38 53.93 12.43 57.77 10.38C59.86 9.26 61.34 7.3 63.52 6.3C65.87 5.22 68.02 5.54 70.51 5.86C72.81 6.16 74.65 6.47 76.9 5.78C78.83 5.19 80.59 4.15 82.61 3.85C84.45 3.57 86.04 3.75 87.76 4.44C90.07 5.36 91.89 7.07 94.03 8.28C97.83 10.42 100.06 8.95 103.55 7.45C105.94 6.42 108.94 4.43 111.66 4.64C112.86 4.74 113.24 5.26 114.31 5.65C115.59 6.12 116.88 6.55 118.26 6.57C119.7 6.59 120.83 5.99 122.2 5.6C123.26 5.3 124.55 4.63 125.63 4.59C126.51 4.55 128.46 5.45 128.92 6.07C129 6.18 130.12 6.58 130.36 6.75C130.97 7.17 131.47 7.69 132.15 8.01C136.58 10.11 141.16 5.33 145.66 6.87C147.63 7.54 148.72 9.27 150.55 10.16C152.36 11.03 154.5 11.25 156.43 10.65C158.38 10.04 160.18 8.68 162.22 8.79C165.91 9 167.84 13.76 171.45 14.59C172.2 14.76 172.97 14.75 173.74 14.74C174.23 14.73 174.73 14.72 175.17 14.5C176.03 14.06 174.99 10.97 173.69 9.74C170.38 6.61 166.04 6.18 161.61 5.92C159.72 5.78 157.84 6.23 155.96 6.09Z" fill="white"/>
<path d="M174.9 18.41C173.09 18.12 172.39 17.12 170.98 16.2C170 15.56 169.79 14.57 168.33 15.56C167.8 15.92 167.54 17.26 167.09 17.82C165.34 19.97 161.84 20.63 159.38 19.08C158.12 18.29 158.09 17.34 157.26 16.25C155.94 14.49 155.91 14.1 154.4 15.79C153.82 16.43 153.5 17.39 152.99 18.09C151.45 20.16 149.41 21.11 147.04 19.61C145.06 18.36 143.94 15.18 140.98 15.94C140.33 16.11 139.79 16.41 139.26 16.72C134.97 19.97 128.08 16.27 133.99 12.01C131.29 12.86 128.95 11.65 126.36 12.04C124.09 12.38 122.15 14.52 119.68 13.76C117.04 12.96 116.05 12.04 113.43 12.18L114.31 11.68C113.18 11.63 112.26 11.91 111.4 12.4C108.89 12.77 106.32 13.32 103.85 12.71C104.7 14.14 106.34 14.62 107.49 15.58L108.2 15.17C107.28 16.2 106.42 17.3 105.42 18.26C103.81 19.81 101.69 21.21 99.46 20.06C98.53 19.58 98.18 18.79 97.49 18.07C95.32 15.81 94.37 16.04 91.91 15.79C90.07 15.6 85.21 12.85 88.72 10.66C87 11.73 85.58 12.71 83.59 13.16C81.91 13.55 80.68 13.11 79.08 14.27C76.7 15.99 75.2 18.76 72.59 20.22C68.27 22.63 65.61 18.18 69.66 15.79C66.93 17.4 65.94 17.04 63.19 16.9C60.82 16.78 59.3 17.12 57.95 19.36C56.62 21.57 55.65 25.17 53.15 26.38C50.69 27.57 48.58 25.36 46.54 24.4C46.61 23.15 47.27 21.37 48.57 20.88C44.44 21.74 43.04 22.35 42.08 18.31C41.28 14.95 41.22 13.72 37.49 14.83C32.83 16.22 27.06 20.1 27.27 12.71C23.32 14.3 18.61 14.75 15.02 17.05C12.88 18.42 11.08 20.32 8.41003 19.19C5.91003 18.13 4.84003 16.37 1.87003 16.56C1.44003 16.59 0.520027 16.62 0.0900269 16.7C0.180027 18.54 2.65003 17.84 3.95003 18.41C3.97003 18.42 3.99003 18.43 4.01003 18.44C4.02003 18.44 4.02003 18.43 4.03003 18.43C4.06003 18.45 4.09003 18.48 4.13003 18.51C4.99003 18.96 5.44003 19.66 5.56003 20.54C6.76003 23.39 7.22003 27.71 9.82003 27.24C14.45 26.4 10.18 18.21 17.68 18.76C20.39 18.96 24.53 19.42 27.06 20.29C30.2 21.38 30.51 24.24 33.19 25.54C35.5 26.66 40.31 26.11 42.9 26.78C46.65 27.75 48.83 29.92 50.1 32.72C53 34.71 55.84 32.4 57.37 29.36C57.46 29.18 57.55 29 57.63 28.84C59.52 21.47 71.49 27.61 77.22 26C80.83 24.99 82.43 20.76 86.73 19.9C92.16 18.81 90.72 21.89 94.24 24.15C101.28 28.67 114.74 15.63 123.78 18.66C127.55 19.92 128.35 24.77 132.53 25.77C137 26.85 141.77 20.16 144.73 21.8C146.29 22.66 146.98 24.31 147.28 26.27C147.43 26.56 147.57 26.85 147.71 27.12C148.98 29.68 151.94 33.06 155.11 32.72H155.13C155.99 32.63 156.63 31.89 156.6 31.03C156.59 30.54 156.55 30.03 156.68 29.49C157.24 27.2 157.57 24.22 160.32 23.36C162.26 22.76 163.94 23.86 165.68 24.72C167.24 25.49 169.07 25.41 170.6 24.57C170.61 24.57 170.61 24.56 170.62 24.56C173.45 23 175.38 21.03 176.04 18.51C175.71 18.52 175.32 18.48 174.9 18.41Z" fill="url(#paint2_linear_1107_25227)"/>
<path d="M56.64 29.02C56.66 29.03 56.68 29.04 56.7 29.05C56.71 29.04 56.71 29.04 56.72 29.03L56.64 29.02Z" fill="url(#paint3_linear_1107_25227)"/>
<path d="M173.84 21.47C173.76 21.54 173.68 21.57 173.6 21.6C172.14 22.61 170.47 23.75 168.69 23.98C166.48 24.26 165.02 22.93 162.97 22.47C160.26 21.86 158.4 23.03 157.34 25.5C156.49 27.48 156.06 32.09 152.87 31.05C152.06 30.79 151.38 30.22 150.85 29.55C149.8 28.22 149.01 26.7 148.46 25.1C148.31 23.56 147.82 22.01 146.46 21.11C144.33 19.7 141.49 19.96 139.38 21.25C138.82 21.59 138.22 21.88 137.62 22.13C136.38 22.64 135.45 23.37 134.14 23.55C133.02 23.71 131.9 23.22 131 22.6C128.32 20.76 126.79 17.65 123.52 16.59C120.57 15.63 116.57 16.14 113.62 17.44C109.14 20.11 103.27 23.37 97.85 23.22C95.56 23.15 94.86 22.01 93.33 20.53C89.07 16.44 83.54 17.43 79.69 21.46C77.73 24.65 74.19 25.38 70.58 24.92C67.92 24.58 65.54 23.43 62.75 23.65C60.78 23.81 58.99 24.91 57.94 26.59C57.28 27.65 56.64 28.72 55.95 29.77C55.7 30.15 55.4 30.5 55.11 30.85C54.6 31.47 54.01 32.07 53.25 32.33C52.35 32.64 51.31 32.37 50.61 31.73C50.32 31.08 50.01 30.46 49.68 29.88C49.34 29.28 48.91 28.73 48.4 28.26C47.42 27.35 46.2 26.77 44.93 26.39C42.3 25.6 39.52 25.61 36.83 25.17C34.71 24.82 32.22 23.35 31 21.55C29.73 19.69 27.58 19.08 25.46 18.56C24.19 18.25 22.89 18.03 21.58 17.93C11.42 17.15 13.23 21.35 10.56 25.38C10.34 25.72 9.97004 25.92 9.55004 25.82C7.72004 25.39 7.53004 23.53 6.97004 21.95C6.37004 20.26 5.71004 19.14 4.48004 18.73C5.13004 19.19 5.47004 19.83 5.56004 20.61C6.75004 23.45 7.22004 27.72 9.81004 27.26C14.44 26.42 10.17 18.23 17.67 18.78C20.38 18.98 24.52 19.44 27.05 20.31C30.19 21.4 30.5 24.26 33.18 25.56C35.49 26.68 40.3 26.13 42.89 26.8C46.64 27.77 48.82 29.94 50.09 32.74C50.25 32.85 50.41 32.94 50.58 33.03C50.67 33.11 50.76 33.19 50.86 33.26C51.58 33.72 52.52 33.74 53.33 33.46C54.14 33.18 54.83 32.65 55.46 32.07C55.99 31.58 56.49 31.03 56.81 30.38C56.83 30.35 56.84 30.31 56.85 30.28C57.03 29.99 57.21 29.69 57.37 29.38C57.46 29.2 57.55 29.02 57.63 28.86C59.52 21.49 71.49 27.63 77.22 26.02C80.83 25.01 82.43 20.78 86.73 19.92C92.16 18.83 90.72 21.91 94.24 24.17C101.28 28.69 114.74 15.65 123.78 18.68C127.55 19.94 128.35 24.79 132.53 25.79C137 26.87 141.77 20.18 144.73 21.82C146.29 22.68 146.98 24.33 147.28 26.3C147.3 26.41 147.33 26.51 147.36 26.62C147.88 28.43 149.1 29.98 150.56 31.16C151.8 32.17 156.7 34.27 156.6 30.95C156.59 30.49 156.56 30.01 156.68 29.51C157.24 27.22 157.57 24.24 160.32 23.38C162.26 22.78 163.94 23.88 165.68 24.74C167.24 25.51 169.07 25.43 170.6 24.59C170.61 24.59 170.61 24.58 170.62 24.58C172.74 23.41 174.35 22.02 175.31 20.33C174.81 20.69 174.31 21.06 173.84 21.47Z" fill="url(#paint4_linear_1107_25227)"/>
</g>
<defs>
<linearGradient id="paint0_linear_1107_25227" x1="-9.60211" y1="19.3668" x2="372.191" y2="10.3538" gradientUnits="userSpaceOnUse">
<stop stop-color="white"/>
<stop offset="0.4846" stop-color="#E1EFFA"/>
</linearGradient>
<linearGradient id="paint1_linear_1107_25227" x1="87.7779" y1="2.09286" x2="88.4625" y2="31.0926" gradientUnits="userSpaceOnUse">
<stop stop-color="white"/>
<stop offset="0.2973" stop-color="#E1EFFA"/>
</linearGradient>
<linearGradient id="paint2_linear_1107_25227" x1="87.8702" y1="8.53734" x2="88.743" y2="45.5126" gradientUnits="userSpaceOnUse">
<stop stop-color="#A5CAE5"/>
<stop offset="0.3297" stop-color="#BED9EC"/>
<stop offset="1" stop-color="white"/>
</linearGradient>
<linearGradient id="paint3_linear_1107_25227" x1="56.6739" y1="29.0031" x2="56.6759" y2="29.0852" gradientUnits="userSpaceOnUse">
<stop stop-color="#A5CAE5"/>
<stop offset="0.3297" stop-color="#BED9EC"/>
<stop offset="1" stop-color="white"/>
</linearGradient>
<linearGradient id="paint4_linear_1107_25227" x1="89.34" y1="-4.71826" x2="90.9526" y2="63.591" gradientUnits="userSpaceOnUse">
<stop stop-color="#A5CAE5"/>
<stop offset="0.3297" stop-color="#BED9EC"/>
<stop offset="1" stop-color="white"/>
</linearGradient>
<clipPath id="clip0_1107_25227">
<rect width="176.16" height="33.63" fill="white"/>
</clipPath>
</defs>
</svg>
