<svg width="557" height="108" viewBox="0 0 557 108" fill="none" xmlns="http://www.w3.org/2000/svg">
<path d="M550.44 41.5498C540.933 31.7268 527.004 24.8729 514.749 21.6512C507.137 19.6613 500.156 21.1458 492.608 20.2299C485.153 19.3139 479.215 14.9867 471.761 14.3866C456.348 13.1232 442.356 23.262 426.089 20.6089C421.762 19.914 417.688 18.5243 413.771 16.8503C397.315 9.96473 379.501 6.74305 361.687 7.43792C358.182 7.56426 354.676 7.75377 351.17 7.97487C332.345 9.1751 310.678 11.007 292.2 8.10121C277.071 5.73233 264.816 0.552382 248.897 1.02616C215.417 2.00529 184.653 18.8085 151.489 19.7245C137.813 20.1035 124.389 19.8508 110.934 19.5034C97.1627 19.156 84.9077 15.0815 71.484 14.5761C53.7333 13.9129 29.6023 14.9236 17.6 29.8633C15.6733 32.2322 13.4307 34.222 10.9671 35.8961C9.92479 36.5909 8.97724 37.4121 8.2192 38.3913C4.39741 43.3501 0.29135 48.8459 0.322935 53.3942C0.35452 59.648 8.34554 57.2791 12.5463 59.1426C12.6095 59.1742 12.6727 59.2058 12.7359 59.2374C12.7674 59.2058 12.7674 59.2058 12.799 59.2058C12.8938 59.269 12.9885 59.3637 13.1149 59.4585C15.8628 60.8798 17.2525 63.0908 17.6631 65.8703C21.4533 74.872 22.9062 88.5167 31.1184 87.0322C45.7422 84.3791 32.2554 58.5109 55.9442 60.2481C64.5038 60.8798 77.58 62.3327 85.571 65.0806C95.4887 68.5234 96.4678 77.5567 104.933 81.6628C112.229 85.2003 127.421 83.4631 135.602 85.5793C147.446 88.6431 154.332 95.497 158.343 104.341C167.503 110.626 176.473 103.362 181.305 93.7283C181.59 93.1597 181.874 92.5912 182.126 92.0859C188.096 68.8077 225.903 88.2009 244.002 83.1157C255.404 79.9256 260.457 66.5651 274.039 63.8488C291.19 60.406 286.641 70.1342 297.759 77.2725C319.995 91.5489 362.509 50.362 391.062 59.9323C402.969 63.912 405.496 79.2307 418.698 82.3892C432.817 85.8004 447.883 64.67 457.232 69.85C462.16 72.5663 464.339 77.8094 465.286 83.9685C465.76 84.8845 466.202 85.8004 466.645 86.6532C470.656 94.739 480.005 105.415 490.018 104.341H490.081C492.765 104.057 494.787 101.782 494.724 99.0661C494.692 97.4869 494.566 95.8761 494.976 94.1389C496.745 86.9059 497.787 77.4936 506.473 74.7772C512.569 72.8821 517.876 76.3249 523.308 79.0412C528.235 81.5049 534.079 81.2838 538.911 78.6306L538.974 78.599C546.681 74.3351 552.303 69.1235 555.051 62.617C558.083 55.4472 555.872 47.1719 550.44 41.5498Z" fill="url(#paint0_linear_56_7170)"/>
<path d="M550.44 41.5498C540.933 31.7268 527.004 24.8729 514.749 21.6512C507.137 19.6613 500.156 21.1458 492.608 20.2299C485.153 19.3139 479.215 14.9867 471.761 14.3866C456.348 13.1232 442.356 23.262 426.089 20.6089C421.762 19.914 417.688 18.5243 413.771 16.8503C397.315 9.96473 379.501 6.74305 361.688 7.43792C358.182 7.56426 354.676 7.75377 351.17 7.97487C332.345 9.1751 310.678 11.007 292.2 8.10121C277.071 5.73233 264.816 0.552382 248.897 1.02616C215.417 2.00529 184.653 18.8085 151.489 19.7245C137.813 20.1035 124.389 19.8508 110.934 19.5034C97.1627 19.156 84.9077 15.0815 71.4841 14.5761C53.7333 13.9129 29.6023 14.9236 17.6 29.8633C15.6733 32.2638 13.3992 34.2536 10.904 35.9276C9.89323 36.5909 9.00885 37.3806 8.25081 38.3281C4.33426 43.1606 0.00710955 48.0247 0.32296 53.3942C0.670396 59.648 8.34556 57.2791 12.5464 59.1426C12.6095 59.1742 12.6727 59.2058 12.7359 59.2374C12.7675 59.2058 12.7675 59.2058 12.7991 59.2058C12.8938 59.269 12.9886 59.3637 13.1149 59.4585C15.8628 60.8798 17.2525 63.0908 17.6632 65.8703C21.4534 74.872 22.9063 88.5167 31.1184 87.0322C45.7423 84.3791 32.2554 58.5109 55.9442 60.2481C64.5038 60.8798 77.58 62.3327 85.571 65.0806C95.4887 68.5234 96.4679 77.5567 104.933 81.6628C112.229 85.2003 127.421 83.4631 135.602 85.5793C147.446 88.6431 154.332 95.497 158.343 104.341C167.503 110.626 176.473 103.362 181.305 93.7283C181.59 93.1597 181.874 92.5912 182.127 92.0859C188.096 68.8077 225.903 88.2009 244.002 83.1157C255.404 79.9256 260.457 66.5651 274.039 63.8488C291.19 60.406 286.641 70.1342 297.759 77.2725C319.995 91.5489 362.509 50.362 391.062 59.9323C402.969 63.912 405.496 79.2307 418.699 82.3892C432.817 85.8004 447.883 64.67 457.232 69.85C462.16 72.5663 464.339 77.8094 465.286 83.9685C465.76 84.8845 466.202 85.8004 466.645 86.6532C470.656 94.739 480.005 105.415 490.018 104.341H490.081C492.765 104.057 494.787 101.782 494.724 99.0661C494.692 97.4869 494.566 95.8761 494.976 94.1389C496.745 86.9059 497.788 77.4936 506.473 74.7772C512.569 72.8821 517.876 76.3249 523.308 79.0412C528.235 81.5049 534.079 81.2838 538.911 78.6306L538.974 78.599C546.681 74.3351 552.303 69.1235 555.051 62.617C558.083 55.4472 555.872 47.1719 550.44 41.5498Z" fill="url(#paint1_linear_56_7170)"/>
<path d="M492.608 20.2297C485.343 19.6612 479.058 14.9866 471.762 14.3865C456.348 13.1231 442.356 23.2619 426.09 20.6088C421.763 19.9139 417.688 18.5242 413.772 16.8501C397.316 9.9646 379.533 6.74293 361.688 7.4378C358.182 7.56414 354.676 7.75365 351.17 7.97475C332.345 9.17498 310.678 11.0069 292.201 8.10109C277.071 5.73221 264.816 0.55226 248.898 1.02604C215.417 2.00517 184.654 18.8084 151.489 19.7244C137.813 20.1034 124.389 19.8507 110.934 19.5033C97.163 19.1559 84.908 15.0814 71.4844 14.576C54.2705 13.9443 31.0871 14.8603 18.7373 28.505C16.4316 31.0634 13.5258 31.9794 10.462 33.306C7.39829 34.6641 4.6188 36.7171 2.69211 39.465C1.20762 41.5812 0.22848 44.108 0.0705544 46.698C0.0389694 47.4561 -0.213711 49.5723 0.48116 50.1092C1.08128 50.5514 2.7237 49.9513 3.38698 49.8249C7.87206 48.8142 12.5466 46.7928 15.7683 43.4132C18.9584 40.0652 22.3064 35.2958 26.7915 33.2428C27.9602 32.7058 29.192 32.3584 30.5185 32.2636C35.0984 31.9478 39.1097 35.1695 43.7843 34.822C49.2801 34.4114 53.8283 30.2738 59.0398 28.884C65.1989 27.2416 71.2317 30.8423 77.675 29.5157C84.4974 28.126 90.4986 25.4729 97.6052 26.1677C107.144 27.1153 114.661 33.5586 123.663 36.0223C135.412 39.2439 142.898 30.2422 153.795 30.4317C164.945 30.6212 170.346 40.2547 182.474 33.7797C189.075 30.2422 193.75 24.0515 200.636 20.893C208.058 17.4818 214.849 18.4926 222.714 19.5033C229.978 20.4508 235.79 21.43 242.896 19.2506C248.992 17.3871 254.551 14.1022 260.931 13.1547C266.743 12.2703 271.765 12.8388 277.198 15.0182C284.494 17.924 290.242 23.3251 297.002 27.1469C309.004 33.9061 316.047 29.2631 327.071 24.5253C334.619 21.2721 344.095 14.9866 352.686 15.6499C356.476 15.9658 357.676 17.6082 361.056 18.84C365.099 20.3245 369.173 21.6827 373.532 21.7458C378.08 21.809 381.65 19.9139 385.977 18.6821C389.325 17.7345 393.399 15.6183 396.81 15.492C399.59 15.3656 405.749 18.2083 407.202 20.1666C407.455 20.514 410.992 21.7774 411.75 22.3144C413.677 23.6409 415.256 25.2834 417.404 26.2941C431.396 32.9269 445.862 17.8293 460.075 22.6934C466.297 24.8096 469.74 30.2738 475.52 33.0849C481.237 35.8328 487.996 36.5276 494.092 34.6325C500.251 32.7058 505.937 28.4103 512.38 28.7577C524.035 29.421 530.131 44.4555 541.533 47.077C543.902 47.614 546.334 47.5824 548.766 47.5508C550.314 47.5192 551.893 47.4876 553.283 46.7928C555.999 45.403 552.714 35.6432 548.608 31.7583C538.153 21.8722 524.446 20.514 510.453 19.6928C504.484 19.2506 498.546 20.6719 492.608 20.2297Z" fill="white"/>
<path d="M552.43 59.143C546.713 58.227 544.502 55.0685 540.048 52.1627C536.953 50.1412 536.29 47.0143 531.678 50.1412C530.004 51.2783 529.183 55.5107 527.762 57.2794C522.234 64.0702 511.18 66.1548 503.41 61.2592C499.43 58.7639 499.335 55.7634 496.714 52.3206C492.544 46.7616 492.45 45.5298 487.68 50.8677C485.848 52.8891 484.838 55.9213 483.227 58.1322C478.363 64.6703 471.919 67.6709 464.434 62.9332C458.18 58.985 454.642 48.941 445.293 51.3415C443.24 51.8784 441.535 52.826 439.861 53.8051C426.311 64.0702 404.549 52.3838 423.215 38.9285C414.687 41.6133 407.296 37.7915 399.116 39.0233C391.946 40.0972 385.819 46.8564 378.017 44.4559C369.679 41.9291 366.552 39.0233 358.276 39.4655L361.056 37.8862C357.487 37.7283 354.581 38.6127 351.865 40.1603C343.937 41.329 335.819 43.0662 328.018 41.1395C330.703 45.6561 335.883 47.1722 339.515 50.2044L341.757 48.9094C338.852 52.1627 336.135 55.637 332.977 58.6692C327.892 63.5649 321.196 67.9868 314.152 64.3545C311.215 62.8384 310.109 60.3432 307.93 58.0691C301.076 50.9309 298.075 51.6573 290.305 50.8677C284.494 50.2676 269.143 41.5817 280.23 34.6646C274.797 38.0442 270.312 41.1395 264.027 42.5608C258.72 43.7926 254.835 42.4029 249.782 46.0668C242.265 51.4994 237.527 60.2484 229.283 64.8599C215.638 72.4719 207.237 58.4165 220.029 50.8677C211.406 55.9529 208.279 54.8158 199.593 54.3736C192.107 53.9946 187.307 55.0685 183.043 62.1435C178.842 69.1238 175.778 80.4945 167.882 84.3162C160.112 88.0749 153.447 81.0946 147.004 78.0624C147.225 74.1143 149.31 68.4921 153.416 66.9445C140.371 69.6608 135.949 71.5875 132.917 58.8271C130.39 48.2145 130.201 44.3296 118.42 47.8355C103.701 52.2258 85.4764 64.4808 86.1397 41.1395C73.6636 46.1615 58.787 47.5828 47.448 54.8474C40.6888 59.1745 35.0035 65.1757 26.5703 61.6066C18.674 58.2586 15.2944 52.6996 5.91364 53.2997C4.55549 53.3945 1.64966 53.4892 0.291504 53.7419C0.575769 59.5536 8.37728 57.3426 12.4833 59.143C12.5465 59.1745 12.6097 59.2061 12.6728 59.2377C12.7044 59.2377 12.7044 59.2061 12.736 59.2061C12.8308 59.2693 12.9255 59.3641 13.0519 59.4588C15.7682 60.8801 17.1895 63.0911 17.5685 65.8706C21.3587 74.8723 22.8116 88.5171 31.0238 87.0326C45.6476 84.3794 32.1608 58.5113 55.8496 60.2484C64.4092 60.8801 77.4854 62.3331 85.4764 65.081C95.3941 68.5237 96.3732 77.5571 104.838 81.6631C112.134 85.2006 127.327 83.4635 135.507 85.5797C147.351 88.6434 154.237 95.4974 158.248 104.341C167.408 110.627 176.378 103.33 181.211 93.7286C181.495 93.1601 181.779 92.5915 182.032 92.0862C188.001 68.808 225.809 88.2012 243.907 83.116C255.309 79.9259 260.363 66.5655 273.944 63.8491C291.095 60.4064 286.547 70.1346 297.665 77.2728C319.901 91.5492 362.414 50.3623 390.967 59.9326C402.875 63.9123 405.401 79.2311 418.604 82.3896C432.722 85.8007 447.788 64.6703 457.138 69.8503C462.065 72.5666 464.244 77.7781 465.192 83.9688C465.666 84.8848 466.108 85.8007 466.55 86.6535C470.561 94.7393 479.91 105.415 489.923 104.341H489.986C492.702 104.057 494.724 101.72 494.629 99.0033C494.598 97.4556 494.471 95.8448 494.882 94.1392C496.651 86.9062 497.693 77.4939 506.379 74.7776C512.506 72.8825 517.812 76.3568 523.308 79.0731C528.236 81.5052 534.016 81.2525 538.848 78.5994C538.88 78.5994 538.88 78.5678 538.911 78.5678C547.85 73.6405 553.946 67.4182 556.03 59.4588C554.988 59.4904 553.756 59.3641 552.43 59.143Z" fill="url(#paint2_linear_56_7170)"/>
<path d="M178.905 92.6558C178.968 92.6873 179.031 92.7189 179.094 92.7505C179.126 92.7189 179.126 92.7189 179.157 92.6873L178.905 92.6558Z" fill="url(#paint3_linear_56_7170)"/>
<path d="M549.082 68.8085C548.829 69.0296 548.576 69.1244 548.324 69.2191C543.712 72.4092 538.438 76.0099 532.815 76.7364C525.835 77.6208 521.224 73.4199 514.749 71.967C506.189 70.0403 500.314 73.7358 496.966 81.5373C494.282 87.7911 492.923 102.352 482.848 99.067C480.289 98.2458 478.142 96.4454 476.468 94.3292C473.151 90.1284 470.656 85.3275 468.919 80.2739C468.445 75.4098 466.897 70.5141 462.602 67.6715C455.874 63.218 446.904 64.0392 440.24 68.1137C438.471 69.1875 436.576 70.1035 434.681 70.8931C430.764 72.504 427.827 74.8097 423.689 75.3782C420.151 75.8836 416.614 74.3359 413.771 72.3776C405.306 66.566 400.474 56.743 390.146 53.395C380.828 50.3629 368.194 51.9737 358.876 56.0798C344.726 64.513 326.186 74.8097 309.067 74.3359C301.834 74.1148 299.623 70.5141 294.79 65.8395C281.335 52.9212 263.869 56.0482 251.708 68.7769C245.518 78.8526 234.337 81.1583 222.934 79.7054C214.533 78.6315 207.016 74.9992 198.203 75.6941C191.981 76.1994 186.327 79.6738 183.011 84.9801C180.926 88.3281 178.905 91.7077 176.725 95.0241C175.936 96.2243 174.988 97.3298 174.072 98.4353C172.462 100.394 170.598 102.289 168.198 103.11C165.355 104.089 162.07 103.236 159.859 101.215C158.943 99.1618 157.964 97.2035 156.922 95.3715C155.848 93.4764 154.49 91.7393 152.879 90.2548C149.783 87.3805 145.93 85.5486 141.919 84.3484C133.612 81.8531 124.831 81.8847 116.335 80.495C109.639 79.3895 101.774 74.7465 97.9208 69.0612C93.9095 63.1864 87.1187 61.2597 80.4227 59.6173C76.4114 58.6381 72.3053 57.9433 68.1677 57.6274C36.0773 55.1638 41.7941 68.4295 33.3609 81.1583C32.6661 82.2322 31.4974 82.8639 30.1708 82.548C24.3908 81.1899 23.7907 75.315 22.0219 70.3246C20.1268 64.9867 18.0422 61.4492 14.1572 60.1542C16.2103 61.6071 17.2841 63.6286 17.5684 66.0922C21.327 75.0624 22.8115 88.5492 30.9921 87.0963C45.6159 84.4431 32.1291 58.575 55.8179 60.3122C64.3775 60.9439 77.4537 62.3968 85.4447 65.1447C95.3624 68.5874 96.3415 77.6208 104.806 81.7268C112.102 85.2643 127.295 83.5272 135.475 85.6434C147.32 88.7071 154.205 95.5611 158.217 104.405C158.722 104.752 159.227 105.037 159.764 105.321C160.049 105.574 160.333 105.826 160.649 106.047C162.923 107.5 165.892 107.563 168.45 106.679C171.009 105.795 173.188 104.121 175.178 102.289C176.852 100.741 178.431 99.0038 179.442 96.9508C179.505 96.856 179.537 96.7297 179.568 96.635C180.137 95.719 180.705 94.7714 181.211 93.7923C181.495 93.2238 181.779 92.6552 182.032 92.1499C188.001 68.8717 225.809 88.2649 243.907 83.1797C255.309 79.9896 260.363 66.6292 273.944 63.9128C291.095 60.4701 286.547 70.1983 297.665 77.3365C319.901 91.6129 362.414 50.426 390.967 59.9963C402.874 63.976 405.401 79.2948 418.604 82.4533C432.722 85.8645 447.788 64.7341 457.138 69.914C462.065 72.6303 464.244 77.8418 465.192 84.0641C465.255 84.4115 465.35 84.7274 465.444 85.0748C467.087 90.7917 470.94 95.6874 475.552 99.4144C479.468 102.605 494.945 109.237 494.629 98.7512C494.597 97.2982 494.503 95.7822 494.882 94.2029C496.65 86.9699 497.693 77.5576 506.379 74.8413C512.506 72.9462 517.812 76.4205 523.308 79.1368C528.236 81.5689 534.016 81.3162 538.848 78.6631C538.88 78.6631 538.88 78.6315 538.911 78.6315C545.607 74.936 550.693 70.5457 553.725 65.2078C552.145 66.3449 550.566 67.5135 549.082 68.8085Z" fill="url(#paint4_linear_56_7170)"/>
<defs>
<linearGradient id="paint0_linear_56_7170" x1="-30.3213" y1="62.1646" x2="1175.57" y2="33.697" gradientUnits="userSpaceOnUse">
<stop stop-color="white"/>
<stop offset="0.4846" stop-color="#E1EFFA"/>
</linearGradient>
<linearGradient id="paint1_linear_56_7170" x1="277.254" y1="7.60487" x2="279.416" y2="99.2006" gradientUnits="userSpaceOnUse">
<stop stop-color="white"/>
<stop offset="0.2973" stop-color="#E1EFFA"/>
</linearGradient>
<linearGradient id="paint2_linear_56_7170" x1="277.545" y1="27.9601" x2="280.302" y2="144.747" gradientUnits="userSpaceOnUse">
<stop stop-color="#A5CAE5"/>
<stop offset="0.3297" stop-color="#BED9EC"/>
<stop offset="1" stop-color="white"/>
</linearGradient>
<linearGradient id="paint3_linear_56_7170" x1="179.012" y1="92.6023" x2="179.018" y2="92.8618" gradientUnits="userSpaceOnUse">
<stop stop-color="#A5CAE5"/>
<stop offset="0.3297" stop-color="#BED9EC"/>
<stop offset="1" stop-color="white"/>
</linearGradient>
<linearGradient id="paint4_linear_56_7170" x1="282.188" y1="-13.9072" x2="287.281" y2="201.848" gradientUnits="userSpaceOnUse">
<stop stop-color="#A5CAE5"/>
<stop offset="0.3297" stop-color="#BED9EC"/>
<stop offset="1" stop-color="white"/>
</linearGradient>
</defs>
</svg>
