<svg width="557" height="108" viewBox="0 0 557 108" fill="none" xmlns="http://www.w3.org/2000/svg">
<path d="M550.44 41.5498C540.933 31.7268 527.004 24.8729 514.749 21.6512C507.137 19.6613 500.157 21.1458 492.608 20.2299C485.154 19.3139 479.216 14.9867 471.762 14.3866C456.348 13.1232 442.356 23.262 426.09 20.6089C421.763 19.914 417.688 18.5243 413.772 16.8503C397.316 9.96473 379.502 6.74305 361.688 7.43792C358.182 7.56426 354.676 7.75377 351.17 7.97487C332.345 9.1751 310.678 11.007 292.201 8.10121C277.072 5.73233 264.817 0.552382 248.898 1.02616C215.418 2.00529 184.654 18.8085 151.489 19.7245C137.813 20.1035 124.39 19.8508 110.934 19.5034C97.1632 19.156 84.9082 15.0815 71.4845 14.5761C53.7337 13.9129 29.6028 14.9236 17.6004 29.8633C15.6738 32.2322 13.4312 34.222 10.9676 35.8961C9.92528 36.5909 8.97773 37.4121 8.21969 38.3913C4.39789 43.3501 0.291838 48.8459 0.323423 53.3942C0.355008 59.648 8.34603 57.2791 12.5468 59.1426C12.61 59.1742 12.6732 59.2058 12.7363 59.2374C12.7679 59.2058 12.7679 59.2058 12.7995 59.2058C12.8943 59.269 12.989 59.3637 13.1154 59.4585C15.8633 60.8798 17.253 63.0908 17.6636 65.8703C21.4538 74.872 22.9067 88.5167 31.1188 87.0322C45.7427 84.3791 32.2559 58.5109 55.9447 60.2481C64.5042 60.8798 77.5805 62.3327 85.5715 65.0806C95.4892 68.5234 96.4683 77.5567 104.933 81.6628C112.229 85.2003 127.422 83.4631 135.602 85.5793C147.447 88.6431 154.332 95.497 158.343 104.341C167.503 110.626 176.473 103.362 181.306 93.7283C181.59 93.1597 181.874 92.5912 182.127 92.0859C188.097 68.8077 225.904 88.2009 244.002 83.1157C255.404 79.9256 260.458 66.5651 274.039 63.8488C291.19 60.406 286.642 70.1342 297.76 77.2725C319.996 91.5489 362.509 50.362 391.062 59.9323C402.97 63.912 405.496 79.2307 418.699 82.3892C432.817 85.8004 447.884 64.67 457.233 69.85C462.16 72.5663 464.339 77.8094 465.287 83.9685C465.761 84.8845 466.203 85.8004 466.645 86.6532C470.656 94.739 480.006 105.415 490.018 104.341H490.081C492.766 104.057 494.787 101.782 494.724 99.0661C494.693 97.4869 494.566 95.8761 494.977 94.1389C496.746 86.9059 497.788 77.4936 506.474 74.7772C512.57 72.8821 517.876 76.3249 523.309 79.0412C528.236 81.5049 534.079 81.2838 538.912 78.6306L538.975 78.599C546.682 74.3351 552.304 69.1235 555.052 62.617C558.084 55.4472 555.873 47.1719 550.44 41.5498Z" fill="url(#paint0_linear_56_7160)"/>
<path d="M550.44 41.5498C540.933 31.7268 527.004 24.8729 514.749 21.6512C507.137 19.6613 500.157 21.1458 492.608 20.2299C485.154 19.3139 479.216 14.9867 471.762 14.3866C456.348 13.1232 442.356 23.262 426.09 20.6089C421.763 19.914 417.688 18.5243 413.772 16.8503C397.316 9.96473 379.502 6.74305 361.688 7.43792C358.182 7.56426 354.676 7.75377 351.17 7.97487C332.345 9.1751 310.678 11.007 292.201 8.10121C277.071 5.73233 264.816 0.552382 248.898 1.02616C215.417 2.00529 184.654 18.8085 151.489 19.7245C137.813 20.1035 124.389 19.8508 110.934 19.5034C97.163 19.156 84.908 15.0815 71.4843 14.5761C53.7335 13.9129 29.6025 14.9236 17.6002 29.8633C15.6735 32.2638 13.3994 34.2536 10.9042 35.9276C9.89347 36.5909 9.00909 37.3806 8.25105 38.3281C4.33451 43.1606 0.00735369 48.0247 0.323204 53.3942C0.67064 59.648 8.34581 57.2791 12.5466 59.1426C12.6098 59.1742 12.673 59.2058 12.7361 59.2374C12.7677 59.2058 12.7677 59.2058 12.7993 59.2058C12.8941 59.269 12.9888 59.3637 13.1151 59.4585C15.863 60.8798 17.2528 63.0908 17.6634 65.8703C21.4536 74.872 22.9065 88.5167 31.1186 87.0322C45.7425 84.3791 32.2557 58.5109 55.9445 60.2481C64.504 60.8798 77.5802 62.3327 85.5713 65.0806C95.489 68.5234 96.4681 77.5567 104.933 81.6628C112.229 85.2003 127.421 83.4631 135.602 85.5793C147.446 88.6431 154.332 95.497 158.343 104.341C167.503 110.626 176.473 103.362 181.306 93.7283C181.59 93.1597 181.874 92.5912 182.127 92.0859C188.096 68.8077 225.904 88.2009 244.002 83.1157C255.404 79.9256 260.458 66.5651 274.039 63.8488C291.19 60.406 286.642 70.1342 297.76 77.2725C319.995 91.5489 362.509 50.362 391.062 59.9323C402.969 63.912 405.496 79.2307 418.699 82.3892C432.817 85.8004 447.883 64.67 457.233 69.85C462.16 72.5663 464.339 77.8094 465.287 83.9685C465.76 84.8845 466.203 85.8004 466.645 86.6532C470.656 94.739 480.005 105.415 490.018 104.341H490.081C492.766 104.057 494.787 101.782 494.724 99.0661C494.692 97.4869 494.566 95.8761 494.977 94.1389C496.745 86.9059 497.788 77.4936 506.474 74.7772C512.57 72.8821 517.876 76.3249 523.308 79.0412C528.236 81.5049 534.079 81.2838 538.911 78.6306L538.975 78.599C546.681 74.3351 552.304 69.1235 555.051 62.617C558.084 55.4472 555.873 47.1719 550.44 41.5498Z" fill="url(#paint1_linear_56_7160)"/>
<path d="M492.608 20.2297C485.343 19.6612 479.058 14.9866 471.762 14.3865C456.348 13.1231 442.356 23.2619 426.09 20.6088C421.763 19.9139 417.688 18.5242 413.772 16.8501C397.316 9.9646 379.533 6.74293 361.688 7.4378C358.182 7.56414 354.676 7.75365 351.17 7.97475C332.345 9.17498 310.678 11.0069 292.201 8.10109C277.071 5.73221 264.816 0.55226 248.898 1.02604C215.417 2.00517 184.654 18.8084 151.489 19.7244C137.813 20.1034 124.389 19.8507 110.934 19.5033C97.163 19.1559 84.908 15.0814 71.4844 14.576C54.2705 13.9443 31.0871 14.8603 18.7373 28.505C16.4316 31.0634 13.5258 31.9794 10.462 33.306C7.39829 34.6641 4.6188 36.7171 2.69211 39.465C1.20762 41.5812 0.22848 44.108 0.0705544 46.698C0.0389694 47.4561 -0.213711 49.5723 0.48116 50.1092C1.08128 50.5514 2.7237 49.9513 3.38698 49.8249C7.87206 48.8142 12.5466 46.7928 15.7683 43.4132C18.9584 40.0652 22.3064 35.2958 26.7915 33.2428C27.9602 32.7058 29.192 32.3584 30.5185 32.2636C35.0984 31.9478 39.1097 35.1695 43.7843 34.822C49.2801 34.4114 53.8283 30.2738 59.0398 28.884C65.1989 27.2416 71.2317 30.8423 77.675 29.5157C84.4974 28.126 90.4986 25.4729 97.6052 26.1677C107.144 27.1153 114.661 33.5586 123.663 36.0223C135.412 39.2439 142.898 30.2422 153.795 30.4317C164.945 30.6212 170.346 40.2547 182.474 33.7797C189.075 30.2422 193.75 24.0515 200.636 20.893C208.058 17.4818 214.849 18.4926 222.714 19.5033C229.978 20.4508 235.79 21.43 242.896 19.2506C248.992 17.3871 254.551 14.1022 260.931 13.1547C266.743 12.2703 271.765 12.8388 277.198 15.0182C284.494 17.924 290.242 23.3251 297.002 27.1469C309.004 33.9061 316.047 29.2631 327.071 24.5253C334.619 21.2721 344.095 14.9866 352.686 15.6499C356.476 15.9658 357.676 17.6082 361.056 18.84C365.099 20.3245 369.173 21.6827 373.532 21.7458C378.08 21.809 381.65 19.9139 385.977 18.6821C389.325 17.7345 393.399 15.6183 396.81 15.492C399.59 15.3656 405.749 18.2083 407.202 20.1666C407.455 20.514 410.992 21.7774 411.75 22.3144C413.677 23.6409 415.256 25.2834 417.404 26.2941C431.396 32.9269 445.862 17.8293 460.075 22.6934C466.297 24.8096 469.74 30.2738 475.52 33.0849C481.237 35.8328 487.996 36.5276 494.092 34.6325C500.251 32.7058 505.937 28.4103 512.38 28.7577C524.035 29.421 530.131 44.4555 541.533 47.077C543.902 47.614 546.334 47.5824 548.766 47.5508C550.314 47.5192 551.893 47.4876 553.283 46.7928C555.999 45.403 552.714 35.6432 548.608 31.7583C538.153 21.8722 524.446 20.514 510.453 19.6928C504.484 19.2506 498.546 20.6719 492.608 20.2297Z" fill="white"/>
<path d="M552.43 59.1428C546.713 58.2269 544.502 55.0684 540.049 52.1625C536.953 50.1411 536.29 47.0142 531.679 50.1411C530.005 51.2782 529.183 55.5106 527.762 57.2793C522.235 64.0701 511.18 66.1547 503.41 61.259C499.43 58.7638 499.335 55.7632 496.714 52.3205C492.545 46.7615 492.45 45.5297 487.681 50.8676C485.849 52.889 484.838 55.9212 483.227 58.1321C478.363 64.6702 471.92 67.6708 464.434 62.9331C458.18 58.9849 454.643 48.9409 445.293 51.3413C443.24 51.8783 441.535 52.8258 439.861 53.805C426.311 64.0701 404.549 52.3836 423.216 38.9284C414.688 41.6131 407.297 37.7913 399.116 39.0232C391.946 40.0971 385.819 46.8563 378.017 44.4558C369.679 41.929 366.552 39.0232 358.277 39.4654L361.056 37.8861C357.487 37.7282 354.581 38.6126 351.865 40.1602C343.937 41.3289 335.82 43.0661 328.018 41.1394C330.703 45.656 335.883 47.1721 339.515 50.2043L341.758 48.9093C338.852 52.1625 336.136 55.6369 332.977 58.6691C327.892 63.5648 321.196 67.9867 314.152 64.3544C311.215 62.8383 310.109 60.3431 307.93 58.069C301.076 50.9307 298.076 51.6572 290.306 50.8676C284.494 50.2674 269.144 41.5816 280.23 34.6644C274.797 38.044 270.312 41.1394 264.027 42.5607C258.721 43.7925 254.836 42.4028 249.782 46.0666C242.265 51.4993 237.527 60.2483 229.283 64.8597C215.639 72.4717 207.237 58.4164 220.029 50.8676C211.406 55.9528 208.279 54.8157 199.593 54.3735C192.108 53.9945 187.307 55.0684 183.043 62.1434C178.842 69.1237 175.778 80.4943 167.882 84.3161C160.112 88.0747 153.448 81.0945 147.004 78.0623C147.225 74.1142 149.31 68.492 153.416 66.9443C140.371 69.6607 135.95 71.5874 132.917 58.827C130.391 48.2144 130.201 44.3295 118.42 47.8354C103.701 52.2257 85.4766 64.4807 86.1399 41.1394C73.6638 46.1614 58.7873 47.5827 47.4482 54.8473C40.689 59.1744 35.0037 65.1756 26.5705 61.6065C18.6742 58.2585 15.2946 52.6995 5.91389 53.2996C4.55573 53.3944 1.64991 53.4891 0.291748 53.7418C0.576013 59.5535 8.37752 57.3425 12.4836 59.1428C12.5467 59.1744 12.6099 59.206 12.6731 59.2376C12.7047 59.2376 12.7047 59.206 12.7363 59.206C12.831 59.2692 12.9258 59.3639 13.0521 59.4587C15.7684 60.88 17.1897 63.091 17.5688 65.8705C21.359 74.8722 22.8119 88.5169 31.024 87.0324C45.6479 84.3793 32.1611 58.5111 55.8498 60.2483C64.4094 60.88 77.4856 62.3329 85.4766 65.0808C95.3943 68.5236 96.3735 77.5569 104.838 81.663C112.134 85.2005 127.327 83.4633 135.507 85.5795C147.352 88.6433 154.237 95.4972 158.249 104.341C167.408 110.626 176.378 103.33 181.211 93.7285C181.495 93.1599 181.779 92.5914 182.032 92.086C188.002 68.8079 225.809 88.2011 243.907 83.1159C255.309 79.9258 260.363 66.5653 273.945 63.849C291.095 60.4062 286.547 70.1344 297.665 77.2727C319.901 91.5491 362.414 50.3622 390.967 59.9325C402.875 63.9122 405.402 79.2309 418.604 82.3894C432.723 85.8006 447.789 64.6702 457.138 69.8502C462.065 72.5665 464.245 77.778 465.192 83.9687C465.666 84.8847 466.108 85.8006 466.55 86.6534C470.562 94.7392 479.911 105.415 489.923 104.341H489.986C492.703 104.057 494.724 101.719 494.629 99.0032C494.598 97.4555 494.471 95.8447 494.882 94.1391C496.651 86.9061 497.693 77.4938 506.379 74.7774C512.506 72.8823 517.813 76.3567 523.309 79.073C528.236 81.5051 534.016 81.2524 538.848 78.5992C538.88 78.5992 538.88 78.5676 538.912 78.5676C547.85 73.6404 553.946 67.4181 556.031 59.4587C554.988 59.4903 553.757 59.3639 552.43 59.1428Z" fill="url(#paint2_linear_56_7160)"/>
<path d="M178.905 92.6558C178.968 92.6873 179.032 92.7189 179.095 92.7505C179.126 92.7189 179.126 92.7189 179.158 92.6873L178.905 92.6558Z" fill="url(#paint3_linear_56_7160)"/>
<path d="M549.082 68.8085C548.829 69.0296 548.577 69.1244 548.324 69.2191C543.713 72.4092 538.438 76.0099 532.816 76.7364C525.836 77.6208 521.224 73.4199 514.749 71.967C506.19 70.0403 500.315 73.7358 496.967 81.5373C494.282 87.7911 492.924 102.352 482.848 99.067C480.29 98.2458 478.142 96.4454 476.468 94.3292C473.152 90.1284 470.657 85.3275 468.919 80.2739C468.446 75.4098 466.898 70.5141 462.602 67.6715C455.875 63.218 446.905 64.0392 440.24 68.1137C438.471 69.1875 436.576 70.1035 434.681 70.8931C430.765 72.504 427.827 74.8097 423.69 75.3782C420.152 75.8836 416.614 74.3359 413.772 72.3776C405.307 66.566 400.474 56.743 390.146 53.395C380.829 50.3629 368.195 51.9737 358.877 56.0798C344.727 64.513 326.186 74.8097 309.067 74.3359C301.834 74.1148 299.623 70.5141 294.791 65.8395C281.336 52.9212 263.869 56.0482 251.709 68.7769C245.518 78.8526 234.337 81.1583 222.935 79.7054C214.533 78.6315 207.016 74.9992 198.204 75.6941C191.982 76.1994 186.328 79.6738 183.011 84.9801C180.927 88.3281 178.905 91.7077 176.726 95.0241C175.936 96.2243 174.989 97.3298 174.073 98.4353C172.462 100.394 170.598 102.289 168.198 103.11C165.355 104.089 162.071 103.236 159.86 101.215C158.944 99.1618 157.964 97.2035 156.922 95.3715C155.848 93.4764 154.49 91.7393 152.879 90.2548C149.784 87.3805 145.931 85.5486 141.919 84.3484C133.612 81.8531 124.832 81.8847 116.335 80.495C109.639 79.3895 101.775 74.7465 97.9213 69.0612C93.91 63.1864 87.1192 61.2597 80.4232 59.6173C76.4119 58.6381 72.3058 57.9433 68.1682 57.6274C36.0777 55.1638 41.7946 68.4295 33.3614 81.1583C32.6666 82.2322 31.4979 82.8639 30.1713 82.548C24.3913 81.1899 23.7912 75.315 22.0224 70.3246C20.1273 64.9867 18.0427 61.4492 14.1577 60.1542C16.2107 61.6071 17.2846 63.6286 17.5689 66.0922C21.3275 75.0624 22.812 88.5492 30.9925 87.0963C45.6164 84.4431 32.1296 58.575 55.8184 60.3122C64.3779 60.9439 77.4542 62.3968 85.4452 65.1447C95.3629 68.5874 96.342 77.6208 104.807 81.7268C112.103 85.2643 127.295 83.5272 135.476 85.6434C147.32 88.7071 154.206 95.5611 158.217 104.405C158.722 104.752 159.228 105.037 159.765 105.321C160.049 105.574 160.333 105.826 160.649 106.047C162.923 107.5 165.892 107.563 168.451 106.679C171.009 105.795 173.188 104.121 175.178 102.289C176.852 100.741 178.432 99.0038 179.442 96.9508C179.505 96.856 179.537 96.7297 179.569 96.635C180.137 95.719 180.706 94.7714 181.211 93.7923C181.495 93.2238 181.78 92.6552 182.032 92.1499C188.002 68.8717 225.809 88.2649 243.907 83.1797C255.31 79.9896 260.363 66.6292 273.945 63.9128C291.095 60.4701 286.547 70.1983 297.665 77.3365C319.901 91.6129 362.414 50.426 390.967 59.9963C402.875 63.976 405.402 79.2948 418.604 82.4533C432.723 85.8645 447.789 64.7341 457.138 69.914C462.065 72.6303 464.245 77.8418 465.192 84.0641C465.255 84.4115 465.35 84.7274 465.445 85.0748C467.087 90.7917 470.941 95.6874 475.552 99.4144C479.469 102.605 494.945 109.237 494.63 98.7512C494.598 97.2982 494.503 95.7822 494.882 94.2029C496.651 86.9699 497.693 77.5576 506.379 74.8413C512.507 72.9462 517.813 76.4205 523.309 79.1368C528.236 81.5689 534.016 81.3162 538.849 78.6631C538.88 78.6631 538.88 78.6315 538.912 78.6315C545.608 74.936 550.693 70.5457 553.725 65.2078C552.146 66.3449 550.567 67.5135 549.082 68.8085Z" fill="url(#paint4_linear_56_7160)"/>
<defs>
<linearGradient id="paint0_linear_56_7160" x1="-30.3208" y1="62.1646" x2="1175.57" y2="33.697" gradientUnits="userSpaceOnUse">
<stop stop-color="white"/>
<stop offset="0.4846" stop-color="#E1EFFA"/>
</linearGradient>
<linearGradient id="paint1_linear_56_7160" x1="277.254" y1="7.60487" x2="279.417" y2="99.2006" gradientUnits="userSpaceOnUse">
<stop stop-color="white"/>
<stop offset="0.2973" stop-color="#E1EFFA"/>
</linearGradient>
<linearGradient id="paint2_linear_56_7160" x1="277.546" y1="27.96" x2="280.303" y2="144.747" gradientUnits="userSpaceOnUse">
<stop stop-color="#A5CAE5"/>
<stop offset="0.3297" stop-color="#BED9EC"/>
<stop offset="1" stop-color="white"/>
</linearGradient>
<linearGradient id="paint3_linear_56_7160" x1="179.012" y1="92.6023" x2="179.019" y2="92.8618" gradientUnits="userSpaceOnUse">
<stop stop-color="#A5CAE5"/>
<stop offset="0.3297" stop-color="#BED9EC"/>
<stop offset="1" stop-color="white"/>
</linearGradient>
<linearGradient id="paint4_linear_56_7160" x1="282.188" y1="-13.9072" x2="287.282" y2="201.848" gradientUnits="userSpaceOnUse">
<stop stop-color="#A5CAE5"/>
<stop offset="0.3297" stop-color="#BED9EC"/>
<stop offset="1" stop-color="white"/>
</linearGradient>
</defs>
</svg>
