<svg width="64" height="64" viewBox="0 0 64 64" fill="none" xmlns="http://www.w3.org/2000/svg">
<path d="M58.002 56H56.002V54C56.002 53.7348 55.8967 53.4804 55.7091 53.2929C55.5216 53.1054 55.2672 53 55.002 53C54.7368 53 54.4824 53.1054 54.2949 53.2929C54.1074 53.4804 54.002 53.7348 54.002 54V56H52.002C51.7368 56 51.4824 56.1054 51.2949 56.2929C51.1074 56.4804 51.002 56.7348 51.002 57C51.002 57.2652 51.1074 57.5196 51.2949 57.7071C51.4824 57.8946 51.7368 58 52.002 58H54.002V60C54.002 60.2652 54.1074 60.5196 54.2949 60.7071C54.4824 60.8946 54.7368 61 55.002 61C55.2672 61 55.5216 60.8946 55.7091 60.7071C55.8967 60.5196 56.002 60.2652 56.002 60V58H58.002C58.2672 58 58.5216 57.8946 58.7091 57.7071C58.8967 57.5196 59.002 57.2652 59.002 57C59.002 56.7348 58.8967 56.4804 58.7091 56.2929C58.5216 56.1054 58.2672 56 58.002 56Z" fill="white"/>
<path d="M20.002 37C20.2672 37 20.5216 36.8946 20.7091 36.7071C20.8967 36.5196 21.002 36.2652 21.002 36V35H22.002C22.2672 35 22.5216 34.8946 22.7091 34.7071C22.8967 34.5196 23.002 34.2652 23.002 34C23.002 33.7348 22.8967 33.4804 22.7091 33.2929C22.5216 33.1054 22.2672 33 22.002 33H21.002V32C21.002 31.7348 20.8967 31.4804 20.7091 31.2929C20.5216 31.1054 20.2672 31 20.002 31C19.7368 31 19.4824 31.1054 19.2949 31.2929C19.1074 31.4804 19.002 31.7348 19.002 32V33H18.002C17.7368 33 17.4824 33.1054 17.2949 33.2929C17.1074 33.4804 17.002 33.7348 17.002 34C17.002 34.2652 17.1074 34.5196 17.2949 34.7071C17.4824 34.8946 17.7368 35 18.002 35H19.002V36C19.0019 36.1313 19.0277 36.2614 19.078 36.3828C19.1282 36.5041 19.2019 36.6144 19.2947 36.7073C19.3876 36.8002 19.4979 36.8738 19.6192 36.924C19.7406 36.9743 19.8707 37.0001 20.002 37V37Z" fill="white"/>
<path d="M44.002 30C44.5543 30 45.002 29.5523 45.002 29C45.002 28.4477 44.5543 28 44.002 28C43.4497 28 43.002 28.4477 43.002 29C43.002 29.5523 43.4497 30 44.002 30Z" fill="white"/>
<path d="M54.7297 38.5415L52.5944 33.7284C54.5023 32.3795 56.2988 30.8797 57.9666 29.2433C58.0617 29.1515 58.1377 29.0417 58.1901 28.9203C58.2425 28.7989 58.2703 28.6683 58.272 28.5361C58.2736 28.4039 58.249 28.2727 58.1995 28.1501C58.1501 28.0275 58.0769 27.9159 57.984 27.8217C57.8912 27.7276 57.7806 27.6528 57.6587 27.6017C57.5367 27.5506 57.4059 27.5241 57.2737 27.5239C57.1414 27.5237 57.0105 27.5497 56.8884 27.6004C56.7663 27.6511 56.6555 27.7256 56.5623 27.8194C43.6862 40.5294 21.2477 45.1417 4.36303 38.547C4.11697 38.4553 3.8447 38.4641 3.60504 38.5714C3.36537 38.6787 3.17755 38.876 3.08214 39.1207C2.98672 39.3654 2.99137 39.6377 3.09509 39.879C3.1988 40.1202 3.39325 40.311 3.63644 40.4101C5.59706 41.1704 7.61007 41.7879 9.65973 42.2579L8.40543 47.5685C7.17674 47.7165 6.04663 48.3151 5.23389 49.2484C4.42115 50.1817 3.98357 51.3833 4.00587 52.6207C4.02816 53.8581 4.50875 55.0432 5.35458 55.9466C6.20042 56.85 7.35135 57.4075 8.58458 57.5111C9.81781 57.6147 11.0456 57.2571 12.0304 56.5075C13.0151 55.7579 13.6867 54.6696 13.9152 53.4533C14.1436 52.237 13.9127 50.9792 13.2671 49.9233C12.6215 48.8675 11.6071 48.0887 10.4203 47.7378L11.6182 42.6644C14.7183 43.2409 17.865 43.5295 21.0182 43.5265C22.0109 43.5265 23.006 43.4909 24.0016 43.4365V49.8402L22.9452 51.9802L19.4887 52.4824C19.3837 52.4977 19.2851 52.5421 19.204 52.6105C19.1229 52.6789 19.0626 52.7686 19.0298 52.8695C18.997 52.9704 18.9931 53.0784 19.0185 53.1815C19.0439 53.2845 19.0976 53.3783 19.1735 53.4524L21.6746 55.8904L21.0846 59.3329C21.0666 59.4375 21.0782 59.5451 21.1182 59.6435C21.1581 59.7419 21.2248 59.8271 21.3107 59.8895C21.3966 59.952 21.4982 59.9891 21.6041 59.9968C21.71 60.0045 21.816 59.9823 21.9099 59.9329L25.0015 58.3075L28.0931 59.9329C28.1871 59.9823 28.293 60.0045 28.3989 59.9968C28.5048 59.9891 28.6065 59.952 28.6924 59.8895C28.7782 59.8271 28.8449 59.7419 28.8849 59.6435C28.9248 59.5451 28.9365 59.4375 28.9184 59.3329L28.3284 55.8904L30.8296 53.4524C30.9056 53.3783 30.9593 53.2845 30.9847 53.1815C31.0101 53.0784 31.0062 52.9704 30.9734 52.8695C30.9406 52.7686 30.8802 52.6789 30.7991 52.6105C30.718 52.5421 30.6194 52.4977 30.5144 52.4824L27.0579 51.9802L26.0017 49.8424V43.2976C30.2311 42.9134 34.4046 42.0601 38.4454 40.7535L39.1854 46.0216C37.7516 46.4764 36.541 47.4533 35.7934 48.7587C35.0458 50.064 34.8159 51.6025 35.1492 53.0694C35.4825 54.5362 36.3546 55.8244 37.5928 56.6785C38.831 57.5327 40.3449 57.8905 41.8345 57.6812C43.3241 57.4718 44.6807 56.7105 45.6355 55.5481C46.5903 54.3857 47.0735 52.907 46.9895 51.4051C46.9055 49.9032 46.2604 48.4877 45.182 47.439C44.1035 46.3904 42.6705 45.7851 41.1668 45.7431L40.3717 40.0838C44.07 38.7466 47.6054 36.9959 50.9107 34.8652L52.7707 39.0581C51.6621 39.6099 50.7976 40.5533 50.3445 41.7057C49.8915 42.8582 49.882 44.1378 50.3181 45.2968C50.7542 46.4558 51.6047 47.4118 52.7051 47.9798C53.8054 48.5478 55.0774 48.6874 56.2748 48.3716C57.4721 48.0558 58.5098 47.307 59.1868 46.2701C59.8639 45.2333 60.1322 43.9821 59.9399 42.7588C59.7475 41.5355 59.1082 40.4271 58.1457 39.648C57.1831 38.8689 55.9658 38.4747 54.7292 38.5415H54.7297Z" fill="white"/>
<path d="M29.9073 23.69C27.7066 23.8825 26.0696 25.7185 26.3583 29.0195C26.647 32.3205 28.9608 35.8186 30.9532 35.6443C32.9456 35.47 34.6167 31.6234 34.3279 28.3223C34.0391 25.0212 32.1081 23.4973 29.9073 23.69Z" fill="white"/>
<path d="M11.2749 24.4161C9.19904 23.6605 6.93944 24.6326 5.80604 27.7461C4.67264 30.8596 5.29134 35.008 7.17074 35.6921C9.05014 36.3762 12.1907 33.5962 13.3236 30.4821C14.4565 27.368 13.3508 25.1717 11.2749 24.4161Z" fill="white"/>
<path d="M45.4548 13.9358C43.5416 15.0404 42.8338 17.3958 44.4907 20.2658C46.1476 23.1358 49.7227 25.328 51.4548 24.328C53.1869 23.328 53.0758 19.1356 51.4189 16.2658C49.762 13.396 47.3679 12.8313 45.4548 13.9358V13.9358Z" fill="white"/>
<path d="M42.222 12.3375L42.9035 13.5175C43.3388 12.9914 43.8635 12.5464 44.4535 12.2028C45.0453 11.8637 45.6911 11.6289 46.3624 11.5087L45.686 10.3373C45.5534 10.1076 45.335 9.94006 45.0788 9.87142C44.8227 9.80278 44.5497 9.83872 44.32 9.97132L42.6965 7.15872C43.3722 6.31902 44.005 5.44563 44.5923 4.54192C44.7361 4.31891 44.7854 4.04794 44.7293 3.7886C44.6733 3.52927 44.5165 3.30282 44.2935 3.15907C44.0705 3.01532 43.7995 2.96605 43.5402 3.0221C43.2808 3.07814 43.0544 3.23491 42.9106 3.45792C34.8013 16.0458 19.1011 20.0409 5.57865 12.9618C5.34427 12.8441 5.07304 12.8232 4.82339 12.9036C4.57375 12.984 4.36568 13.1592 4.24401 13.3916C4.12234 13.6239 4.09681 13.8947 4.17293 14.1457C4.24905 14.3967 4.42072 14.6077 4.65095 14.7333C7.18148 16.0609 9.87489 17.0515 12.6625 17.6799L11.7036 20.3154H11.703C11.4538 20.2247 11.1788 20.2367 10.9384 20.3488C10.6981 20.4609 10.5121 20.6638 10.4213 20.913L9.96214 22.1746C10.6439 22.1793 11.3197 22.302 11.9595 22.5373C12.6001 22.773 13.194 23.1199 13.7138 23.5622L14.18 22.2811C14.2707 22.0319 14.2587 21.7569 14.1466 21.5166C14.0346 21.2762 13.8316 21.0902 13.5824 20.9995L14.6518 18.0605C16.231 18.3154 17.8277 18.4461 19.4272 18.4514C22.4454 18.4521 25.446 17.9925 28.3255 17.0883L28.5619 19.7924C28.2978 19.8155 28.0536 19.9427 27.8831 20.1458C27.7126 20.349 27.6298 20.6115 27.6529 20.8757L27.7695 22.2169C28.3892 21.9331 29.0527 21.7573 29.7315 21.6969C29.9141 21.6812 30.0938 21.6725 30.2725 21.6725C30.7727 21.6733 31.2708 21.7386 31.7542 21.8668L31.637 20.5268C31.6256 20.396 31.5885 20.2687 31.5278 20.1522C31.4672 20.0357 31.3842 19.9323 31.2836 19.8479C31.183 19.7635 31.0668 19.6998 30.9415 19.6603C30.8163 19.6208 30.6845 19.6064 30.5536 19.6178L30.2726 16.4039C34.4885 14.7365 38.2669 12.1266 41.3185 8.77392L42.5872 10.9722C42.3579 11.105 42.1906 11.3233 42.1221 11.5793C42.0537 11.8353 42.0896 12.108 42.222 12.3375V12.3375Z" fill="white"/>
</svg>
