<svg xmlns="http://www.w3.org/2000/svg" fill="none" viewBox="0 0 1276 500">
  <path fill="currentColor" d="m790.08 403.08 3.1 4.3 1.53-5.08 5.05-1.62-4.35-3.03.02-5.3-4.23 3.21-5.03-1.66 1.74 5.01-3.13 4.28 5.3-.11Zm-318.91 2.21 4.45 4.17.6-6.07 5.34-2.95-5.58-2.44-1.15-5.99-4.05 4.56-6.05-.76 3.08 5.26-2.59 5.52 5.95-1.3Zm282.79-111.25 3.91 3.12.09-5.01 4.17-2.76-4.72-1.63-1.34-4.82-3.01 4-4.99-.22 2.86 4.1-1.75 4.68 4.78-1.46Zm-245.27.29 3.37 2.5-.07-4.2 3.421-2.44-4.01-1.23-1.271-4.01-2.409 3.44-4.2-.04 2.529 3.36-1.339 3.99 3.979-1.37ZM628.4 35.16l13.78 7.22-2.66-15.34 11.12-10.89-15.4-2.21L628.34 0l-6.86 13.97-15.39 2.27 11.16 10.84-2.6 15.35 13.75-7.27Zm620.73 381.71 3.78 2.26-.5-4.38 3.31-2.89-4.31-.87-1.73-4.05-2.17 3.83-4.38.4 2.98 3.24-.98 4.3 4-1.84Zm22.04 4.17 2.48 1.62-.23-2.95 2.31-1.87-2.88-.69-1.06-2.77-1.55 2.52-2.96.15 1.92 2.26-.77 2.86 2.74-1.13ZM126.98 379.5l1.57 2.15.75-2.55 2.54-.83-2.2-1.51v-2.66l-2.11 1.62-2.53-.82.89 2.51-1.57 2.16 2.66-.07Zm191.08 87.9 4.36-.14-2.76-3.38 1.21-4.2-4.07 1.58-3.61-2.45.25 4.36-3.45 2.68 4.23 1.11 1.48 4.11 2.36-3.67Zm725.11-61.55.12 4.89 3.8-3.08 4.69 1.39-1.75-4.56 2.77-4.03-4.88.26-2.97-3.88-1.27 4.72-4.61 1.63 4.1 2.66Zm-122.53 9.34 2.08 2.87 1.01-3.4 3.38-1.09-2.92-2.02.01-3.55-2.82 2.16-3.38-1.1 1.18 3.35-2.09 2.87 3.55-.09Zm67.75 58.48 5.86 1.4-2.46-5.5 3.13-5.15-5.98.64-3.92-4.57-1.25 5.89-5.56 2.32 5.23 3 .48 6.01 4.47-4.04Zm-63.9-261.26 5.35-.76-3.87-3.78.93-5.33-4.79 2.51-4.78-2.53.91 5.33-3.87 3.76 5.34.79 2.38 4.85 2.4-4.84ZM275.21 476.14l4.77 3.71-.06-5.86 4.89-3.17-5.7-1.98-1.75-5.67-3.46 4.63-5.97-.33 3.56 4.85-1.94 5.46 5.66-1.64Zm58.81-58.97 2.13 2.36.67-3.05 3-1.21-2.83-1.55-.27-3.1-2.41 2.1-3.18-.72 1.34 2.85-1.69 2.66 3.24-.34Zm619.68 47.92 3.97.91-1.69-3.71 2.1-3.5-4.06.46-2.67-3.08-.82 4-3.75 1.6 3.55 2.01.36 4.06 3.01-2.75Zm-321.81 32.37 4.17 1.57-1.29-4.27 2.78-3.48-4.45-.09-2.45-3.73-1.46 4.21-4.3 1.18 3.55 2.7-.21 4.45 3.66-2.54Zm103.2-325.75 4.87 5.4 1.52-6.99 6.88-2.77-6.48-3.54-.63-7.11-5.52 4.81-7.26-1.63 3.06 6.5-3.86 6.11 7.42-.78ZM131.52 492.38l4.85.62-2.46-4.23 2.08-4.43-4.78 1.04-3.57-3.36-.49 4.87-4.29 2.36 4.48 1.97.92 4.81 3.26-3.65Zm222.67-198.64 2.86 2.58.3-3.84 3.34-1.93-3.56-1.48-.8-3.77-2.5 2.94-3.83-.4 2.01 3.28-1.57 3.52 3.75-.9Zm-242.55 93.29 3.46 1.36-1.02-3.57 2.36-2.87-3.71-.13-2-3.14-1.27 3.49-3.6.94 2.93 2.29-.23 3.71 3.08-2.08Zm140.18-276.09 10.5 5.39-2.12-11.62 8.37-8.34-11.7-1.57-5.34-10.54-5.11 10.65-11.66 1.82 8.54 8.16-1.87 11.66 10.39-5.61Zm751.83-1.66 10.46 5.47-2.02-11.64 8.43-8.2599-11.68-1.68-5.25-10.58-5.2 10.6-11.68 1.73 8.47 8.2299-1.97 11.64 10.44-5.51ZM656.84 467.49l7.97 6.83.57-10.48 8.95-5.47-9.78-3.78-2.43-10.21-6.62 8.14-10.45-.84 5.69 8.82-4.03 9.69 10.13-2.7Zm-58.99 9.43 6.7 1.43-2.94-6.2 3.43-5.93-6.8.89-4.58-5.1-1.26 6.74-6.26 2.78 6.02 3.28.71 6.82 4.98-4.71Zm559.92-93.85 2.11 2.34.66-3.03 2.98-1.21-2.81-1.53-.27-3.09-2.39 2.09-3.16-.71 1.33 2.82-1.67 2.65 3.22-.33Zm-950.58 27 4.78 4.26.47-6.39 5.53-3.24-5.93-2.42-1.36-6.26-4.14 4.89-6.37-.63 3.37 5.44-2.57 5.87 6.22-1.52Zm107.32-69.91 4.17.87-1.84-3.84 2.11-3.69-4.22.56-2.86-3.15-.76 4.19-3.88 1.75 3.74 2.02.47 4.23 3.07-2.94Zm619.45-150.65 1.87 2.07.59-2.68 2.64-1.07-2.49-1.35-.24-2.73-2.12 1.84-2.79-.62 1.18 2.49-1.48 2.35 2.84-.3ZM138.9 294.61l5.55-.1-3.46-4.34 1.61-5.32-5.19 1.95-4.56-3.18.25 5.55-4.42 3.35 5.35 1.48 1.81 5.24 3.06-4.63Zm178.07-108.52 3.3 3.65 1.03-4.73 4.66-1.88-4.39-2.39-.42-4.82-3.75 3.25-4.92-1.1 2.08 4.41-2.62 4.14 5.03-.53ZM104.63 487.08l2.06 2.34.6-3.07 2.87-1.24-2.73-1.52-.3-3.11-2.28 2.13-3.05-.68 1.31 2.84-1.58 2.69 3.1-.38Zm1051.27 1.99 6.33-1.68-4.97-4.09.63-6.64-5.5 3.72-5.94-2.43 1.56 6.39-4.3 5.14 6.47.23 3.29 5.61 2.43-6.25Zm-28.35-8.45 2.4-3.43-4.11.05-2.43-3.5-1.15 4.08-3.91 1.26 3.4 2.48.02 4.28 3.25-2.55 3.92 1.38-1.39-4.05ZM119.67 280.13l1.43 2.04.8-2.31 2.45-.64-2.05-1.47.09-2.43-2.07 1.39-2.39-.86.77 2.33-1.57 1.91 2.54.04Zm367.83 1.98 3.21.15-1.83-2.63 1.13-3-3.07.92-2.5-2.01-.07 3.21-2.68 1.76 3.03 1.06.84 3.09 1.94-2.55Zm-115.479-4.29.95 1.97 1.04-1.89 2.22-.22-1.57-1.57.42-2.11-2 .92-1.97-1.09.34 2.14-1.64 1.44 2.21.41Zm347.96-138.37 3.139-.62-2.3-2.15.5-3.22-2.789 1.65-2.83-1.36.57 3.16-2.25 2.38 3.15.31 1.44 2.83 1.37-2.98Zm-197.51 47.72 4.8.12-2.65-3.9 1.81-4.55-4.64 1.49-3.68-2.94-.22 4.83-4.08 2.73 4.5 1.49 1.16 4.63 3-3.9Zm565.409 36.92 3.58-.72-2.62-2.45.57-3.67-3.19 1.89-3.22-1.56.65 3.61-2.56 2.71 3.59.35 1.63 3.23 1.57-3.39Zm89.35 136.16 4.23-.12-2.52-3.3 1.36-4.09-4.01 1.53-3.38-2.4.05 4.26-3.46 2.6 4.04 1.09 1.24 4.01 2.45-3.58Zm-355.31 50 3.29-.13-2.11-2.54.9-3.18-3.07 1.22-2.74-1.83.22 3.29-2.59 2.04 3.19.82 1.14 3.09 1.77-2.78Zm-153.8-78.48 2.64 1-.81-2.7 1.76-2.21-2.82-.06-1.55-2.36-.92 2.67-2.72.74 2.24 1.71-.13 2.82 2.31-1.61Zm33.401 21.76 5.04 4.32.37-6.63 5.66-3.46-6.19-2.39-1.54-6.47-4.19 5.16-6.61-.53 3.6 5.58-2.55 6.13 6.41-1.71ZM546.8 355.1l4.24.91-1.87-3.92 2.17-3.76-4.3.56-2.9-3.23-.79 4.27-3.96 1.76 3.81 2.08.45 4.31 3.15-2.98Zm399.33-15.66 3.56 1.35-1.1-3.65 2.38-2.98-3.81-.08-2.09-3.18-1.25 3.6-3.67 1 3.03 2.31-.18 3.8 3.13-2.17Zm17.3-14.6 2.16 1.8.12-2.82 2.38-1.5-2.64-.98-.69-2.73-1.75 2.21-2.81-.19 1.56 2.35-1.05 2.62 2.72-.76Zm-775.8 14.84 1.65 1.82.51-2.36 2.32-.93-2.19-1.2-.21-2.4-1.86 1.62-2.46-.55 1.04 2.2-1.31 2.06 2.51-.26Zm935.67-208.9 2.87 2.13-.06-3.58 2.91-2.08-3.41-1.05-1.08-3.41-2.05 2.93-3.58-.03 2.15 2.86-1.13 3.39 3.38-1.16Zm-15.44-27.63 2.72.13-1.55-2.24.96-2.5499-2.61.78-2.13-1.71-.06 2.7299-2.28 1.5 2.58.9.72 2.63 1.65-2.17Zm-967.57 37.19-3.36 2.51 4.04 1.15 1.35 3.98 2.34-3.49 4.2-.05-2.6-3.3 1.25-4.01-3.94 1.44-3.43-2.43.15 4.2Zm17.83-33.82-1.08 3.02 3.06-.99 2.54 1.96.01-3.21 2.64-1.81-3.05-.99-.9-3.08-1.89 2.59-3.21-.09 1.88 2.6ZM518.6 91.64l1.11 4.06 2.54-3.35 4.2.2-2.39-3.45 1.48-3.93-4.02 1.21-3.28-2.63-.09 4.2-3.52 2.31 3.97 1.38Zm19.89-38.84 2.42 2.1.2-3.2 2.74-1.65-2.98-1.18-.72-3.12-2.04 2.47-3.19-.28 1.72 2.71-1.25 2.95 3.1-.8Zm-46.66 19.1999 2.48-.4-1.83-1.73.39-2.49-2.21 1.2-2.25-1.13.46 2.47-1.77 1.78 2.5.33 1.15 2.24 1.08-2.27Zm258.91-11.5298-3.719 1.94 3.81 1.77.71 4.1499 2.86-3.0799 4.149.62-2.04-3.68 1.87-3.76-4.13.81-3-2.9401-.51 4.1701Zm47.37 17.6898-1.54 2.82 3.17-.5 2.2 2.33.51-3.16 2.9-1.37-2.85-1.47-.41-3.18-2.28 2.26-3.15-.59 1.45 2.86Zm-15.57-40.82.92 2.34 1.3-2.16 2.51-.15-1.65-1.9.63-2.44-2.32.98-2.12-1.35.22 2.51-1.95 1.6 2.46.57Zm309.4 106.3501.92 2.34 1.3-2.16 2.51-.15-1.65-1.9.63-2.44-2.32.98-2.12-1.35.22 2.51-1.95 1.6 2.46.57ZM335.77 70.37l2.48-.4-1.83-1.73.39-2.49-2.21 1.2-2.25-1.13.47 2.47-1.78 1.78 2.5.33 1.15 2.24 1.08-2.27Zm600.43 62.5-1.53 2.82 3.16-.5 2.21 2.33.51-3.16 2.9-1.37-2.86-1.47-.41-3.17-2.27 2.25-3.16-.59 1.45 2.86ZM139.21 421.83l1.04 1.48.59-1.68 1.78-.47-1.49-1.07.06-1.78-1.51 1.02-1.74-.62.56 1.69-1.14 1.39 1.85.04Zm965.9-2 1.72 1.43.09-2.24 1.91-1.2-2.11-.78-.55-2.18-1.4 1.76-2.24-.15 1.25 1.88-.84 2.08 2.17-.6ZM111.48 123.42l2.48-.4-1.83-1.73.39-2.49-2.21 1.2-2.25-1.13.47 2.47-1.78 1.78 2.5.33 1.15 2.24 1.08-2.27Z"/>
  <path fill="currentColor" d="M1252.08 425.84c-3.93 1.47-9.75 3.5-17.21 5.84-3.73 1.16-7.9 2.35-12.44 3.58-4.54 1.23-9.47 2.49-14.78 3.68-5.31 1.19-11 2.36-17 3.52-3 .6-6.07 1.13-9.21 1.71-3.14.58-6.36 1.09-9.7 1.6-13.2 2.11-27.53 4-42.75 5.07-7.6.55-15.43.91-23.43 1-8 .09-16.16.09-24.51-.17-8.35-.26-16.78-.66-25.31-1.35-8.53-.69-17.14-1.59-25.82-2.69-8.68-1.1-17.41-2.46-26.16-3.87-8.75-1.41-17.6-3-26.47-4.47-8.87-1.47-17.77-2.82-26.66-4.08-8.89-1.26-17.76-2.36-26.58-3.36-17.65-2-35.11-3.23-52-3.77-2.12-.07-4.24-.1-6.35-.15-2.11-.05-4.21-.1-6.26-.1h-6.16l-6.2.06c-8.18.16-16.17.53-23.92 1.14-7.75.61-15.27 1.39-22.52 2.36-2.06.28-4.093.57-6.1.87l-5.61-2.47c-12.2-5.36-24.09-10.1-36-16.07-5.83-2.93-12.2-6-17.72-9.46-3.95-2.48-8.54-5.44-7.86-10.89 1-8.36 14.26-8.75 20.36-9.78 11.79-2 23.63-4.65 34.19-10.28 7.73-4.13 15.56-11.53 13.42-21.11-2.14-9.58-12.6-15.77-20.38-20.5-8.026-4.88-16.379-9.2-25-12.93-14.93-6.49-28.6-15-42.33-23.42-5.61-3.46-13.17-7-13.44-14.43-.31-8.43 12-12.72 18.56-14.2 13-2.93 54.11-11.65 34.84-30.17-9.19-8.83-19-16.08-27.13-26.06-8.114-10.248-15.547-21.018-22.25-32.24-13.788-22.637-25.968-46.215-36.45-70.56-5.94-13.71-13.08-43.8901-32.69-43.5801-19.62-.32-26.72 29.8901-32.72 43.5701-10.482 24.345-22.662 47.923-36.45 70.56-6.7 11.224-14.133 21.994-22.25 32.24-8.1 10-17.93 17.23-27.12 26.06-19.25 18.52 21.82 27.24 34.82 30.17 6.56 1.48 18.87 5.77 18.57 14.2-.27 7.43-7.84 11-13.44 14.43-13.74 8.46-27.41 16.93-42.34 23.42-8.619 3.734-16.972 8.054-25 12.93-7.78 4.73-18.2 10.78-20.37 20.5-2.17 9.72 5.69 17 13.41 21.11 10.56 5.63 22.4 8.27 34.19 10.28 6.1 1 19.33 1.42 20.37 9.78.68 5.45-3.92 8.41-7.86 10.89-5.52 3.45-11.89 6.53-17.73 9.46-11.9 6-23.8 10.71-36 16.07l-5.61 2.47c-2-.3-4.05-.59-6.11-.87-7.24-.973-14.747-1.76-22.52-2.36-7.75-.61-15.74-1-23.92-1.14l-6.19-.06h-6.17c-2 0-4.15 0-6.26.1-2.11.1-4.22.08-6.34.15-16.93.54-34.39 1.81-52 3.77-8.82 1-17.7 2.09-26.58 3.36-8.88 1.27-17.78 2.64-26.65 4.08-8.87 1.44-17.76 3.12-26.45 4.52-8.69 1.4-17.49 2.76-26.17 3.87-8.68 1.11-17.29 2-25.82 2.69-8.53.69-17 1.09-25.3 1.35s-16.5.33-24.51.17c-8.01-.16-15.83-.49-23.44-1-15.22-1.07-29.55-3-42.75-5.07-3.34-.51-6.54-1.07-9.69-1.6-3.15-.53-6.23-1.11-9.22-1.71-6-1.16-11.65-2.31-17-3.52s-10.23-2.47-14.77-3.68c-4.54-1.21-8.71-2.42-12.44-3.58-7.46-2.34-13.28-4.37-17.22-5.84l-6-2.28 1.47.75c1 .49 2.39 1.25 4.29 2.15 3.79 1.85 9.39 4.48 16.71 7.42 3.65 1.48 7.73 3 12.21 4.64 4.48 1.64 9.37 3.17 14.64 4.74 10.52 3.2 22.56 6.23 35.79 9 14.272 3.078 28.7 5.385 43.22 6.91 7.74.8 15.72 1.43 23.89 1.8 8.17.37 16.54.49 25 .42 17.452-.165 34.882-1.29 52.21-3.37 8.84-1.06 17.703-2.297 26.59-3.71 8.9-1.4 17.69-3 26.51-4.38s17.64-2.86 26.43-4.14c8.79-1.28 17.56-2.48 26.26-3.55 4.36-.5 8.69-1 13-1.46 4.31-.46 8.62-.87 12.89-1.29 8.55-.76 17-1.36 25.34-1.85 2.08-.12 4.14-.2 6.2-.3 2.06-.1 4.1-.2 6.18-.26l6.15-.2 6-.13c8-.11 15.84 0 23.47.34 5.82.23 11.47.6 17 1-12.53 6.92-25 16.45-22 30.33 2.12 9.92 9.81 15.81 18.63 19.56 19.53 8.64 46.81 11 67.93 9 17.58-1.61 40.7-7.14 45.31-22.35.388-1.757.397-3.576.027-5.337-.371-1.761-1.113-3.422-2.177-4.873h-.05c-1.01-1.484-2.21-2.829-3.57-4-3.17-3-7.06-5.5-13.63-8.71-7.59-3.75-32.59-12.68-60.59-15.95 14.12-5.57 55.35-18.35 62.57-33 7.48-15.16-5-27.21-19.34-31.17-11.18-3.07-23.86-3-34.36-7.83-8.57-4-8.87-11.15-.68-15.84 4.47-2.56 9.25-4.72 13.59-6.87 8.43-4.16 17-8 25.44-12.17 15.06-7.48 32.13-16.61 45.07-27.38 11.61-9.65 18.54-23.21 9.75-36.67-4.44-6.8-13.5-10.29-21.24-12.21-8.3-1.962-16.486-4.379-24.52-7.24-.374-.135-.706-.365-.966-.665-.26-.301-.438-.664-.517-1.053-.08-.39-.057-.793.064-1.172.121-.378.338-.719.629-.99 20.56-19.81 36.37-43.81 50.47-68.34 15.29-26.61 28.33-54.39 40.09-82.66v.0699c0-.1.09-.19.13-.28.1-.2299.251-.4341.441-.5969.191-.1629.416-.2802.659-.343.13-.0363.265-.0532.4-.05.138-.0037.277.0131.41.05.242.0628.465.1802.654.3431.189.163.338.3672.436.5968.049.0905.093.184.13.28V90.54c11.77 28.27 24.8 56.05 40.09 82.66 14.1 24.53 29.92 48.53 50.48 68.34.288.272.503.613.622.991.12.378.141.78.062 1.169-.079.388-.256.75-.514 1.051-.258.301-.588.531-.96.669-8.035 2.86-16.22 5.277-24.52 7.24-7.74 1.92-16.81 5.41-21.24 12.21-8.8 13.46-1.86 27 9.74 36.67 13 10.77 30 19.9 45.07 27.38 8.42 4.19 17 8 25.44 12.17 4.34 2.15 9.13 4.31 13.59 6.87 8.19 4.69 7.9 11.86-.68 15.84-10.49 4.86-23.18 4.76-34.35 7.83-14.37 4-26.83 16-19.35 31.17 7.23 14.63 48.46 27.41 62.58 33-28 3.27-53 12.21-60.57 15.93-6.56 3.21-10.46 5.73-13.62 8.71-1.365 1.169-2.569 2.514-3.58 4-1.064 1.451-1.806 3.112-2.177 4.873-.37 1.761-.361 3.58.027 5.337 4.61 15.21 27.73 20.74 45.31 22.35 21.13 1.94 48.41-.39 67.94-9 8.81-3.75 16.51-9.64 18.62-19.56 3-13.88-9.5-23.41-22-30.33 5.56-.44 11.21-.81 17-1 7.62-.3 15.46-.45 23.46-.34l6 .13 6.16.2c2.07.06 4.12.15 6.17.26 2.05.11 4.12.18 6.2.3 8.33.49 16.79 1.09 25.34 1.85 4.28.42 8.58.8 12.9 1.29s8.66 1 13 1.46c8.71 1.07 17.47 2.29 26.27 3.55 8.8 1.26 17.61 2.68 26.42 4.14 8.81 1.46 17.62 3 26.52 4.38 8.9 1.38 17.74 2.65 26.58 3.71 17.33 2.08 34.76 3.205 52.21 3.37 8.46.07 16.84-.07 25-.42s16.14-1 23.88-1.8c14.52-1.525 28.95-3.832 43.23-6.91 13.22-2.81 25.26-5.84 35.78-9 5.27-1.57 10.15-3.2 14.65-4.74s8.56-3.16 12.21-4.64c7.31-2.94 12.91-5.57 16.7-7.42 1.9-.9 3.33-1.66 4.3-2.15l1.47-.75-6.02 2.26Zm-739.3 21.88c14.43 3.52 28 9 32.4 12.91.31.25.55.5.83.75l1.62 1.58c7.66 8.34 2.34 16.26-5 20.07-18.47 9.65-41.34 8.52-61.62 5.46-10.63-1.6-21.85-3.81-30.91-9.82-4.08-2.71-8.52-6.51-9.43-11.51-1.08-6 3.68-9.45 7.48-13.23l1.07-.92c7.405-5.108 15.35-9.387 23.69-12.76l4.37.56c13.28 1.82 18.62 2.8 35.5 6.91Zm296 5.31 1.08.92c3.79 3.78 8.56 7.24 7.47 13.23-.9 5-5.35 8.8-9.43 11.51-9.05 6-20.28 8.22-30.9 9.82-20.28 3.06-43.15 4.19-61.63-5.46-7.29-3.81-12.61-11.73-5-20.07l1.61-1.58c.28-.25.53-.5.83-.75 4.4-3.86 18-9.39 32.39-12.91 16.89-4.11 22.23-5.09 35.46-6.89l4.37-.56c8.37 3.35 16.344 7.613 23.78 12.71l-.03.03Z"/>
  <path fill="currentColor" d="M382.84 434.68c6.36-2.71 11.75-6.24 13.28-13.4 3.2-15-17.25-23.34-28.08-28.1-8.8-3.87-17.39-7.28-26-11.59-4.21-2.11-8.8-4.33-12.79-6.83-2.85-1.78-6.17-3.92-5.68-7.85.75-6 10.3-6.31 14.71-7.06 8.51-1.44 17.06-3.35 24.68-7.41 5.58-3 11.24-8.32 9.69-15.23-1.55-6.91-9.1-11.38-14.71-14.79-5.804-3.518-11.842-6.635-18.07-9.33-10.78-4.68-20.65-10.79-30.57-16.9-4.05-2.49-11.29-6-11.82-11.28-.72-7.24 10.72-8.68 15.52-9.36 9.68-1.38 38.21-9.45 25.15-21.77-6.69-6.31-13.74-11.6-19.58-18.8-5.863-7.391-11.232-15.161-16.07-23.26-9.955-16.327-18.747-33.336-26.31-50.9-4.3-9.9-9.45-31.66-23.61-31.44-14.15-.22-19.3 21.54-23.6 31.44-7.564 17.564-16.355 34.573-26.31 50.9-4.835 8.105-10.2 15.882-16.06 23.28-5.84 7.2-12.89 12.49-19.58 18.8-13.07 12.32 15.47 20.39 25.15 21.77 4.8.68 16.24 2.12 15.52 9.36-.53 5.33-7.77 8.79-11.82 11.28-9.92 6.11-19.79 12.22-30.57 16.9-6.229 2.695-12.266 5.812-18.07 9.33-5.61 3.41-13.14 7.77-14.71 14.79-1.57 7.02 4.11 12.25 9.69 15.23 7.62 4.06 16.17 6 24.68 7.41 4.41.75 14 1 14.71 7.06.48 3.93-2.83 6.07-5.68 7.85-4 2.5-8.59 4.72-12.8 6.83-8.59 4.31-17.18 7.72-26 11.59-10.83 4.76-31.28 13.1-28.08 28.1 1.53 7.16 6.92 10.69 13.28 13.4 14.1 6.24 30 7.34 45.24 5.62 12.68-1.43 26.73-4.79 34.75-15.38 1-1.35 2.92-3.54 3.23-5.23.59-3.22-1.93-.43-2.73.81-3.37 5.21-6.95 8.73-12.8 11.33-13.75 6.09-29.65 5.93-44.29 3.72-7.67-1.16-15.77-2.75-22.31-7.09-3-2-6.16-4.69-6.81-8.3-.78-4.31 2.66-6.82 5.4-9.54l.77-.67c11.15-8 24.69-12 37.45-17.07 10.2-4 25.66-8.59 30.88-19.15 5.4-10.93-3.59-19.63-14-22.48-8.07-2.22-17.23-2.14-24.81-5.65-6.19-2.87-6.4-8-.49-11.43 3.22-1.85 6.68-3.41 9.81-4.95 6.08-3 12.29-5.76 18.37-8.78 10.87-5.4 23.19-12 32.54-19.76 8.38-7 13.38-16.74 7-26.45-3.21-4.9-9.75-7.43-15.34-8.81-5.993-1.41-11.902-3.152-17.7-5.22-.271-.097-.512-.262-.7-.479-.188-.217-.317-.479-.374-.76-.058-.282-.041-.573.047-.847.088-.273.246-.519.457-.714 14.84-14.29 26.26-31.61 36.44-49.3 10.902-19.242 20.568-39.159 28.94-59.63l.1-.21c.072-.164.181-.309.318-.425.137-.116.298-.2.472-.245.096-.014.194-.014.29 0 .099-.015.2-.015.3 0 .173.045.335.129.471.245.137.116.246.261.319.425l.1.21c8.411 20.467 18.117 40.377 29.06 59.61 10.18 17.69 21.6 35 36.44 49.3.208.196.363.442.45.715.086.273.102.563.045.844-.057.28-.185.542-.371.759-.187.217-.426.383-.694.482-5.799 2.068-11.708 3.81-17.7 5.22-5.59 1.38-12.13 3.91-15.34 8.81-6.35 9.71-1.34 19.49 7 26.45 9.35 7.77 21.67 14.36 32.54 19.76 6.08 3 12.29 5.77 18.37 8.78 3.13 1.54 6.58 3.1 9.81 4.95 5.91 3.39 5.7 8.56-.49 11.43-7.58 3.51-16.74 3.43-24.81 5.65-10.37 2.85-19.36 11.55-14 22.48 5.21 10.56 20.68 15.13 30.88 19.15 12.76 5 26.3 9.11 37.45 17.07l.77.67c2.74 2.72 6.18 5.23 5.4 9.54-.66 3.61-3.86 6.35-6.81 8.3-6.54 4.34-14.64 5.93-22.31 7.09l23.48-.87Zm489.98 0c-6.36-2.71-11.75-6.24-13.28-13.4-3.2-15 17.25-23.34 28.08-28.1 8.8-3.87 17.39-7.28 26-11.59 4.21-2.11 8.81-4.33 12.79-6.83 2.85-1.78 6.17-3.92 5.68-7.85-.75-6-10.3-6.31-14.71-7.06-8.51-1.44-17.06-3.35-24.68-7.41-5.58-3-11.24-8.32-9.69-15.23 1.55-6.91 9.1-11.38 14.71-14.79 5.806-3.52 11.847-6.637 18.08-9.33 10.78-4.68 20.64-10.79 30.56-16.9 4-2.49 11.29-6 11.82-11.28.72-7.24-10.72-8.68-15.52-9.36-9.68-1.38-38.21-9.45-25.15-21.77 6.69-6.31 13.74-11.6 19.58-18.8 5.863-7.391 11.231-15.161 16.07-23.26 9.955-16.327 18.747-33.336 26.31-50.9 4.3-9.9 9.45-31.66 23.61-31.44 14.15-.22 19.31 21.54 23.6 31.44 7.57 17.562 16.36 34.57 26.31 50.9 4.83 8.105 10.2 15.882 16.06 23.28 5.85 7.2 12.89 12.49 19.58 18.8 13.07 12.32-15.47 20.39-25.15 21.77-4.8.68-16.24 2.12-15.52 9.36.53 5.33 7.77 8.79 11.82 11.28 9.92 6.11 19.79 12.22 30.57 16.9 6.23 2.693 12.27 5.81 18.07 9.33 5.62 3.41 13.14 7.77 14.71 14.79 1.57 7.02-4.11 12.25-9.69 15.23-7.62 4.06-16.17 6-24.68 7.41-4.4.75-14 1-14.71 7.06-.48 3.93 2.83 6.07 5.68 7.85 4 2.5 8.59 4.72 12.8 6.83 8.59 4.31 17.18 7.72 26 11.59 10.83 4.76 31.28 13.1 28.08 28.1-1.53 7.16-6.92 10.69-13.28 13.4-14.1 6.24-30 7.34-45.24 5.62-12.68-1.43-26.73-4.79-34.75-15.38-1-1.35-2.92-3.54-3.23-5.23-.59-3.22 1.93-.43 2.73.81 3.37 5.21 7 8.73 12.8 11.33 13.75 6.09 29.65 5.93 44.29 3.72 7.67-1.16 15.77-2.75 22.31-7.09 2.95-2 6.16-4.69 6.81-8.3.78-4.31-2.66-6.82-5.4-9.54l-.77-.67c-11.15-8-24.69-12-37.45-17.07-10.2-4-25.66-8.59-30.88-19.15-5.4-10.93 3.59-19.63 14-22.48 8.06-2.22 17.22-2.14 24.8-5.65 6.19-2.87 6.41-8 .49-11.43-3.22-1.85-6.68-3.41-9.81-4.95-6.08-3-12.29-5.76-18.37-8.78-10.87-5.4-23.19-12-32.54-19.76-8.38-7-13.38-16.74-7-26.45 3.2-4.9 9.74-7.43 15.33-8.81 6-1.411 11.91-3.154 17.71-5.22.27-.099.51-.265.69-.482.19-.217.32-.479.38-.759.05-.281.04-.571-.05-.844s-.24-.519-.45-.715c-14.85-14.29-26.27-31.61-36.45-49.3-10.9-19.242-20.57-39.159-28.94-59.63-.03-.072-.06-.142-.1-.21-.07-.164-.18-.309-.32-.425-.14-.116-.3-.2-.47-.245-.1-.014-.19-.014-.29 0-.1-.015-.2-.015-.3 0-.17.045-.34.129-.47.245-.14.116-.25.261-.32.425-.03.072-.06.142-.1.21-8.371 20.471-18.038 40.388-28.94 59.63-10.18 17.69-21.6 35-36.44 49.3-.209.196-.363.442-.45.715-.087.273-.102.563-.045.844.057.28.185.542.371.759.187.217.425.383.694.482 5.799 2.066 11.708 3.809 17.7 5.22 5.59 1.38 12.13 3.91 15.34 8.81 6.35 9.71 1.34 19.49-7 26.45-9.35 7.77-21.67 14.36-32.54 19.76-6.08 3-12.28 5.77-18.37 8.78-3.13 1.54-6.58 3.1-9.81 4.95-5.91 3.39-5.7 8.56.49 11.43 7.58 3.51 16.74 3.43 24.81 5.65 10.37 2.85 19.37 11.55 14 22.48-5.21 10.56-20.68 15.13-30.88 19.15-12.76 5-26.3 9.11-37.44 17.07l-.78.67c-2.74 2.72-6.18 5.23-5.4 9.54.66 3.61 3.86 6.35 6.81 8.3 6.54 4.34 14.64 5.93 22.31 7.09l-23.58-.89Z"/>
</svg>
