<svg width="64" height="64" viewBox="0 0 64 64" fill="none" xmlns="http://www.w3.org/2000/svg">
<g clip-path="url(#clip0_18_16)">
<path d="M14.3154 43.1383C14.8544 43.3376 15.4254 43.436 16 43.4286C17.1852 43.4378 18.3639 43.2525 19.4891 42.88C19.4515 42.6841 19.4312 42.4852 19.4286 42.2857C19.4198 40.6168 20.614 39.184 22.2572 38.892C23.9004 38.6 25.5152 39.5336 26.0819 41.1034C26.6487 42.6732 26.0028 44.423 24.552 45.248C24.9606 46.5229 25.6006 47.7115 26.44 48.7543C28.2145 47.3946 29.7691 45.7699 31.0491 43.9372C31.2733 43.6375 31.6257 43.461 32 43.461C32.3743 43.461 32.7267 43.6375 32.9509 43.9372C34.2309 45.7699 35.7855 47.3946 37.56 48.7543C38.3994 47.7115 39.0394 46.5229 39.448 45.248C37.9076 44.3914 37.2613 42.511 37.9495 40.8884C38.6376 39.2658 40.4387 38.4234 42.1253 38.9353C43.8118 39.4472 44.8407 41.1487 44.5108 42.88C45.6361 43.2525 46.8148 43.4378 48 43.4286C48.5737 43.436 49.144 43.338 49.6823 43.1395C50.8316 42.6486 51.753 41.7416 52.2617 40.6C49.1033 39.2799 46.3846 37.0903 44.4217 34.2858C42.3017 34.2976 40.2148 33.7597 38.3646 32.7246C37.3917 35.7674 35.2993 38.3271 32.5109 39.8858C32.1892 40.0465 31.8107 40.0465 31.4891 39.8858C28.7028 38.326 26.6126 35.7664 25.6411 32.7246C23.7892 33.7607 21.7002 34.2986 19.5783 34.2858C17.6162 37.0924 14.8974 39.2841 11.7383 40.6057C12.2473 41.7447 13.1678 42.6492 14.3154 43.1383Z" fill="white"/>
<path d="M18.9999 31.9783C19.1421 31.996 19.2853 32.0033 19.4285 32C21.6195 32.1154 23.7762 31.4188 25.4857 30.0434C25.7881 29.7504 26.2261 29.6452 26.6285 29.7691C27.0282 29.892 27.3289 30.2234 27.4125 30.6331C27.4228 30.68 28.4228 35.3908 32.0068 37.5531C35.5908 35.3908 36.5908 30.68 36.6011 30.6308C36.6846 30.2183 36.9881 29.885 37.3911 29.7634C37.7941 29.6418 38.2313 29.7516 38.5291 30.0491C40.2358 31.4183 42.3862 32.1126 44.5714 32C44.6816 32.0043 44.792 32.0005 44.9017 31.9886C46.3553 31.9845 47.734 31.3428 48.6731 30.2331C45.1188 28.4672 42.0268 25.8943 39.6445 22.72C38.8754 22.6277 38.1198 22.4455 37.3931 22.1771C36.9609 23.4 36.2395 24.5002 35.2902 25.384C35.6951 26.7844 35.17 28.2878 33.9814 29.1317C32.7927 29.9757 31.2003 29.9757 30.0117 29.1317C28.823 28.2878 28.298 26.7844 28.7028 25.384C27.7536 24.5002 27.0321 23.4 26.5999 22.1771C25.8733 22.4455 25.1176 22.6277 24.3485 22.72C21.9658 25.8942 18.874 28.4675 15.3199 30.2343C16.228 31.3317 17.5756 31.9703 18.9999 31.9783ZM39.9999 26.2857C40.6311 26.2857 41.1428 26.7974 41.1428 27.4286C41.1428 28.0597 40.6311 28.5714 39.9999 28.5714C39.3688 28.5714 38.8571 28.0597 38.8571 27.4286C38.8571 26.7974 39.3688 26.2857 39.9999 26.2857ZM23.9999 26.2857C24.6311 26.2857 25.1428 26.7974 25.1428 27.4286C25.1428 28.0597 24.6311 28.5714 23.9999 28.5714C23.3688 28.5714 22.8571 28.0597 22.8571 27.4286C22.8571 26.7974 23.3688 26.2857 23.9999 26.2857Z" fill="white"/>
<path d="M41.1429 43.4284C41.774 43.4284 42.2857 42.9167 42.2857 42.2856C42.2857 41.6544 41.774 41.1427 41.1429 41.1427C40.5117 41.1427 40 41.6544 40 42.2856C40 42.9167 40.5117 43.4284 41.1429 43.4284Z" fill="white"/>
<path d="M22.8571 43.4284C23.4883 43.4284 23.9999 42.9167 23.9999 42.2856C23.9999 41.6544 23.4883 41.1427 22.8571 41.1427C22.2259 41.1427 21.7142 41.6544 21.7142 42.2856C21.7142 42.9167 22.2259 43.4284 22.8571 43.4284Z" fill="white"/>
<path d="M28.7246 9.62505L28.1303 13.2593L31.1555 11.5908C31.6805 11.2981 32.3196 11.2981 32.8446 11.5908L35.8697 13.2593L35.2766 9.62619C35.1853 9.06264 35.3653 8.48904 35.7623 8.07876L38.3257 5.45705L34.8412 4.92676C34.2584 4.83679 33.7592 4.46153 33.5109 3.92676L32 0.715332L30.4892 3.9279C30.2401 4.4624 29.7406 4.83719 29.1577 4.92676L25.6743 5.45705L28.2377 8.07876C28.6343 8.48885 28.8147 9.06172 28.7246 9.62505Z" fill="white"/>
<path d="M15.9999 56C16.6311 56 17.1428 55.4883 17.1428 54.8571C17.1428 54.2259 16.6311 53.7142 15.9999 53.7142C15.3687 53.7142 14.8571 54.2259 14.8571 54.8571C14.8571 55.4883 15.3687 56 15.9999 56Z" fill="white"/>
<path d="M31.9999 27.4284C32.6311 27.4284 33.1428 26.9167 33.1428 26.2856C33.1428 25.6544 32.6311 25.1427 31.9999 25.1427C31.3687 25.1427 30.8571 25.6544 30.8571 26.2856C30.8571 26.9167 31.3687 27.4284 31.9999 27.4284Z" fill="white"/>
<path d="M23.6641 20.5165C24.803 20.4174 25.9099 20.0881 26.9178 19.5485C27.2722 19.3714 27.6929 19.3904 28.0298 19.5988C28.3667 19.8072 28.5717 20.1752 28.5715 20.5713C28.7103 21.6813 29.2278 22.7094 30.0367 23.4822C31.2129 22.6485 32.7873 22.6485 33.9635 23.4822C34.7761 22.7061 35.294 21.672 35.4287 20.5565C35.4393 20.1636 35.6484 19.803 35.9841 19.5987C36.3175 19.3954 36.7317 19.3765 37.0824 19.5485C38.0906 20.0882 39.1979 20.4176 40.3372 20.5165C41.7949 20.617 43.2041 19.9716 44.0801 18.8022C41.9446 17.7928 39.9296 16.5461 38.0732 15.0856C37.7774 15.6501 37.1917 16.0027 36.5544 15.9999C36.2588 15.9998 35.9681 15.9243 35.7098 15.7805L32.0001 13.7347L28.2904 15.7805C27.705 16.1079 26.9833 16.0678 26.4378 15.6776C26.2254 15.5223 26.0508 15.3212 25.9269 15.089C24.0705 16.5493 22.055 17.7953 19.9189 18.8033C20.7958 19.9728 22.2059 20.6178 23.6641 20.5165Z" fill="white"/>
<path d="M31.9999 54.8571C32.6311 54.8571 33.1428 54.3455 33.1428 53.7143C33.1428 53.0831 32.6311 52.5714 31.9999 52.5714C31.3687 52.5714 30.8571 53.0831 30.8571 53.7143C30.8571 54.3455 31.3687 54.8571 31.9999 54.8571Z" fill="white"/>
<path d="M48 56C48.6312 56 49.1429 55.4883 49.1429 54.8571C49.1429 54.2259 48.6312 53.7142 48 53.7142C47.3689 53.7142 46.8572 54.2259 46.8572 54.8571C46.8572 55.4883 47.3689 56 48 56Z" fill="white"/>
<path d="M49.6057 45.5199C49.0794 45.6443 48.5408 45.7095 48 45.7142C46.4155 45.7234 44.8429 45.4402 43.3612 44.8788C42.8928 45.2832 42.323 45.5522 41.7132 45.6571C41.1118 47.7037 40.016 49.5708 38.5223 51.0936C38.1371 51.479 37.5334 51.5388 37.08 51.2365C35.1745 49.9033 33.4646 48.3104 32 46.5039C30.5354 48.3104 28.8255 49.9033 26.92 51.2365C26.4667 51.5388 25.863 51.479 25.4777 51.0936C23.9836 49.5709 22.8874 47.7038 22.2857 45.6571C21.6759 45.5522 21.1061 45.2832 20.6377 44.8788C19.1564 45.4401 17.5841 45.7233 16 45.7142C15.4611 45.7091 14.9245 45.6439 14.4 45.5199C11.875 49.0745 8.61399 52.0435 4.83887 54.2251C5.5475 55.9817 7.24866 57.135 9.14287 57.1428C10.4382 57.149 11.7113 56.8063 12.8286 56.1508C12.1177 54.4294 12.9111 52.4553 14.6154 51.7045C16.3198 50.9537 18.3118 51.7008 19.1021 53.3872C19.8925 55.0736 19.1921 57.0825 17.5246 57.9119C17.7882 59.2226 18.2482 60.486 18.8892 61.6593C21.5038 61.2222 23.8366 59.7614 25.3714 57.5999C25.6434 57.2372 26.104 57.0696 26.5455 57.1726C26.9869 57.2756 27.3258 57.6298 27.4092 58.0754C28.0519 60.5673 29.7199 62.6705 32 63.8639C34.2818 62.6695 35.9504 60.5639 36.592 58.0696C36.6775 57.6255 37.0168 57.2736 37.4574 57.172C37.8981 57.0704 38.3573 57.2381 38.6286 57.5999C40.163 59.7616 42.4961 61.2222 45.1109 61.6582C45.752 60.4854 46.212 59.2223 46.4754 57.9119C44.808 57.0825 44.1076 55.0736 44.8979 53.3872C45.6882 51.7008 47.6802 50.9537 49.3846 51.7045C51.0889 52.4553 51.8823 54.4294 51.1714 56.1508C52.2887 56.8063 53.5618 57.149 54.8572 57.1428C56.7534 57.1373 58.4574 55.9837 59.1669 54.2251C55.3917 52.0435 52.1308 49.0745 49.6057 45.5199ZM16 49.1428C15.3688 49.1428 14.8572 48.6311 14.8572 47.9999C14.8572 47.3687 15.3688 46.8571 16 46.8571C16.6312 46.8571 17.1429 47.3687 17.1429 47.9999C17.1429 48.6311 16.6312 49.1428 16 49.1428ZM22.8572 54.8571C22.226 54.8571 21.7143 54.3454 21.7143 53.7142C21.7143 53.083 22.226 52.5714 22.8572 52.5714C23.4883 52.5714 24 53.083 24 53.7142C24 54.3454 23.4883 54.8571 22.8572 54.8571ZM32 57.1428C30.1065 57.1428 28.5714 55.6078 28.5714 53.7142C28.5714 51.8207 30.1065 50.2856 32 50.2856C33.8936 50.2856 35.4286 51.8207 35.4286 53.7142C35.4286 55.6078 33.8936 57.1428 32 57.1428ZM41.1429 54.8571C40.5117 54.8571 40 54.3454 40 53.7142C40 53.083 40.5117 52.5714 41.1429 52.5714C41.7741 52.5714 42.2857 53.083 42.2857 53.7142C42.2857 54.3454 41.7741 54.8571 41.1429 54.8571ZM48 49.1428C47.3688 49.1428 46.8572 48.6311 46.8572 47.9999C46.8572 47.3687 47.3688 46.8571 48 46.8571C48.6312 46.8571 49.1429 47.3687 49.1429 47.9999C49.1429 48.6311 48.6312 49.1428 48 49.1428Z" fill="white"/>
</g>
<defs>
<clipPath id="clip0_18_16">
<rect width="64" height="64" fill="white"/>
</clipPath>
</defs>
</svg>
