<svg width="64" height="64" viewBox="0 0 64 64" fill="none" xmlns="http://www.w3.org/2000/svg">
<g clip-path="url(#clip0_18_74)">
<path d="M10.9216 53.0786L10.7748 52.9959C10.0497 52.5768 9.38025 52.1703 8.74934 51.7762C8.18715 51.4243 7.66087 51.0777 7.15021 50.7356C6.85037 50.9923 6.59583 51.2978 6.3975 51.6383C5.73015 52.7684 5.72182 54.1692 6.37459 55.3071C7.02736 56.445 8.24076 57.1447 9.55307 57.1395C10.8716 57.14 12.0923 56.4424 12.7617 55.3061C12.9408 54.9896 13.0704 54.6476 13.147 54.2921C13.0314 54.2311 12.9216 54.1791 12.8055 54.1171C12.1928 53.7928 11.5666 53.4415 10.9216 53.0786V53.0786Z" fill="white"/>
<path d="M28.9942 52.5555C27.582 51.745 27.037 49.9804 27.747 48.515L27.9719 48.0127L27.5029 47.9242C27.026 47.8305 26.5346 47.7347 26.0552 47.6853C25.6997 47.7134 25.3499 47.7904 25.0157 47.9138C24.378 48.1376 23.7101 48.2662 23.035 48.2943C22.6805 48.2959 22.3275 48.2417 21.9902 48.1335C21.2183 47.8003 20.5572 47.2548 20.0829 46.5609C19.7821 46.133 19.4005 45.7681 18.9601 45.4859C18.539 45.3772 18.1017 45.3444 17.6691 45.3891C16.7561 45.4912 15.8326 45.3345 15.0039 44.9373C14.2548 44.4225 13.677 43.6953 13.3439 42.8499C13.2039 42.5068 13.0076 42.1898 12.764 41.9103C12.3288 41.6854 11.853 41.5501 11.3642 41.5115C10.5584 41.4637 9.78644 41.169 9.15345 40.6688C8.48038 39.9103 8.08944 38.9426 8.04676 37.9296C8.02021 37.6163 7.95254 37.3076 7.84635 37.0119C7.52933 36.5663 7.15558 36.1639 6.73445 35.8157C6.64075 35.7303 6.54549 35.6439 6.45283 35.5564L6.10406 36.0416C5.1754 37.395 3.354 37.7922 1.94643 36.9479C1.70385 36.799 1.4113 36.7568 1.13645 36.8308C0.859517 36.9062 0.623187 37.0858 0.47535 37.3315C-1.33721 40.4871 2.08489 45.0929 9.86765 49.9648C10.4861 50.3484 11.1362 50.743 11.8187 51.1376C12.5006 51.5321 13.1617 51.8944 13.8014 52.2354C18.4494 54.7091 22.3942 56.0094 25.2088 56.0094C27.7673 56.0094 28.9188 54.9433 29.4409 54.048C29.7121 53.5108 29.5158 52.8554 28.9942 52.5555Z" fill="white"/>
<path d="M56.855 50.7356C56.348 51.0765 55.8233 51.4211 55.2637 51.7715C54.624 52.1702 53.9514 52.5768 53.2497 52.9828L53.0217 53.1109C52.4012 53.4601 51.8 53.7975 51.2253 54.1098C51.1004 54.1759 50.9832 54.2311 50.8599 54.2951C50.9379 54.6506 51.0707 54.9916 51.2539 55.306C52.2768 57.053 54.5126 57.6558 56.2751 56.66V56.6459C57.31 56.0681 57.9961 55.0202 58.1116 53.8407C58.2272 52.6611 57.7582 51.5003 56.855 50.7325V50.7356Z" fill="white"/>
<path d="M63.5249 37.3315C63.1943 36.8307 62.5322 36.6725 62.0111 36.9692C60.6009 37.7917 58.7941 37.3763 57.8852 36.0202L57.5474 35.5575C57.4542 35.6439 57.3595 35.7303 57.2658 35.8157C56.8436 36.1639 56.4693 36.5663 56.1518 37.0119C56.0451 37.3076 55.9779 37.6163 55.9514 37.9296C55.9087 38.9431 55.5172 39.9103 54.8436 40.6688C54.2107 41.1695 53.4392 41.4636 52.6334 41.5115C52.1451 41.5501 51.6693 41.6854 51.2336 41.9103C50.99 42.1898 50.7943 42.5068 50.6537 42.8499C50.3221 43.6947 49.7464 44.4214 48.9994 44.9373C48.1707 45.3345 47.2473 45.4911 46.3342 45.3891C45.9016 45.3443 45.4644 45.3771 45.0432 45.4859C44.6029 45.7681 44.2213 46.133 43.9204 46.5609C43.4462 47.2548 42.7851 47.8003 42.0131 48.1335C41.6758 48.2417 41.3229 48.2959 40.9684 48.2943C40.2932 48.2662 39.6254 48.1376 38.9877 47.9138C38.654 47.7883 38.3047 47.7118 37.9492 47.6853C37.4687 47.7347 36.9768 47.8305 36.5005 47.9242C36.3469 47.9544 36.1892 47.9851 36.0315 48.0137L36.2668 48.5364C36.9659 50.0329 36.3828 51.8148 34.9342 52.6086C34.4407 52.9085 34.2757 53.5461 34.5614 54.048C35.0815 54.9402 36.2329 56.0063 38.7914 56.0063C41.606 56.0063 45.5503 54.7059 50.2092 52.2323C50.8385 51.8913 51.4991 51.5181 52.1816 51.1344C52.864 50.7503 53.5142 50.3453 54.1326 49.9616C61.9148 45.0929 65.3369 40.4871 63.5249 37.3315V37.3315Z" fill="white"/>
<path d="M28.9972 40.5479C28.4225 41.5349 27.3679 42.1439 26.2253 42.147H25.9676C24.7459 42.0435 23.6897 41.2548 23.2436 40.1132L22.0068 36.9082L18.6263 37.448C18.4597 37.4741 18.2911 37.4871 18.1224 37.4871C16.9803 37.485 15.9257 36.8754 15.3536 35.8874C14.781 34.8994 14.7774 33.6813 15.3437 32.6897L18.8429 26.6367L15.9751 27.8616C14.7029 28.4102 13.2652 28.4342 11.9752 27.9287L7.71088 33.8073C7.85455 33.951 8.03049 34.1097 8.16688 34.2336C8.7374 34.7094 9.23973 35.2617 9.65982 35.8744C9.94768 36.4163 10.1195 37.0123 10.1637 37.6245C10.1757 38.1622 10.3407 38.6849 10.6405 39.131C10.9784 39.2793 11.3386 39.3715 11.7066 39.4043C12.5244 39.4761 13.3141 39.7405 14.0101 40.1757C14.5603 40.638 14.9877 41.2288 15.2542 41.8956C15.426 42.3527 15.705 42.7618 16.0678 43.0882C16.5649 43.2626 17.0954 43.3198 17.618 43.2558C18.377 43.1788 19.1432 43.2792 19.8569 43.5489C20.5961 43.9502 21.2353 44.5145 21.7257 45.198C21.9724 45.5577 22.2879 45.8659 22.6533 46.1043C23.2446 46.1902 23.849 46.1116 24.3992 45.8783C24.9973 45.6535 25.634 45.5488 26.2721 45.5691C26.8479 45.628 27.4142 45.7388 27.9129 45.8367C28.1997 45.8934 28.5699 45.9679 28.8728 46.0085L30.8322 41.627L29.7661 39.2304L28.9972 40.5479Z" fill="white"/>
<path d="M36.0878 45.8315C36.587 45.7336 37.1539 45.6181 37.7286 45.564C38.3673 45.5416 39.0039 45.6467 39.6021 45.8732C40.1528 46.1084 40.7572 46.1891 41.3501 46.1064C41.715 45.8674 42.0299 45.5598 42.2766 45.2006C42.767 44.5166 43.4057 43.9528 44.1454 43.551C44.8591 43.2813 45.6253 43.1809 46.3843 43.2579C46.9069 43.3219 47.4374 43.2647 47.9345 43.0908C48.2973 42.7639 48.5763 42.3548 48.7476 41.8977C49.0147 41.2309 49.442 40.6401 49.9917 40.1778C50.6882 39.7426 51.4779 39.4782 52.2957 39.4064C52.6637 39.3741 53.0239 39.2814 53.3618 39.1331C53.6621 38.6875 53.8277 38.1643 53.8396 37.6271C53.8839 37.0144 54.0551 36.4184 54.3435 35.8765C54.7636 35.2638 55.2659 34.7115 55.8365 34.2357C55.976 34.1098 56.1488 33.951 56.2925 33.8094L52.0281 27.9298C51.4206 28.1651 50.7757 28.2864 50.1239 28.2879C49.4108 28.2864 48.7044 28.1448 48.0454 27.872L45.1433 26.6258L48.6346 32.6814C49.2036 33.6725 49.202 34.8916 48.63 35.8812C48.0584 36.8708 47.0027 37.4814 45.8596 37.4829C45.6956 37.4829 45.5316 37.4699 45.3692 37.4444L41.9794 36.9051L40.7546 40.1034C40.3194 41.2585 39.2538 42.056 38.0232 42.1471H37.7682C36.6255 42.145 35.5704 41.5359 34.9962 40.5479L31.9942 35.3476L31.0765 36.9374L35.1274 45.9934C35.4314 45.9596 35.8 45.8883 36.0878 45.8315V45.8315Z" fill="white"/>
<path d="M17.2458 34.8901C17.479 35.2284 17.885 35.4023 18.2905 35.3383L23.3758 34.5278L25.231 39.3361C25.3768 39.7182 25.7292 39.9837 26.1368 40.018H26.2222C26.6048 40.0196 26.9588 39.816 27.1498 39.485L30.7629 33.2207L26.6849 26.1558H25.6038C24.3826 26.1516 23.2222 25.6212 22.4206 24.6998L17.1969 33.7464C16.9923 34.1056 17.0116 34.5502 17.2458 34.8901Z" fill="white"/>
<path d="M29.1468 26.1557L36.8405 39.4818C37.0321 39.8129 37.3855 40.0164 37.7682 40.0149H37.8535C38.2627 39.9831 38.6161 39.7171 38.7598 39.3324L40.6041 34.5246L45.6894 35.3346C46.0954 35.3971 46.5014 35.2222 46.7352 34.8843C46.9689 34.546 46.9892 34.1045 46.7872 33.7464L41.5749 24.706C40.7738 25.6237 39.6156 26.1521 38.397 26.1557H29.1468Z" fill="white"/>
<path d="M12.118 25.6367C12.6406 25.9792 13.2523 26.1599 13.8769 26.1557C14.3095 26.1552 14.7369 26.0683 15.1351 25.9001L21.553 23.1516C21.4181 22.7451 21.3463 22.3198 21.3395 21.8914V11.2305C21.3463 10.8031 21.4181 10.3794 21.553 9.97335L15.1351 7.22536C14.1471 6.80268 13.0133 6.90419 12.1164 7.49605C11.219 8.0874 10.6792 9.08998 10.6787 10.1644V22.9574C10.6776 24.0355 11.2185 25.0422 12.118 25.6367Z" fill="white"/>
<path d="M42.4482 23.1527L48.8531 25.9033C49.256 26.0699 49.6881 26.1558 50.1238 26.1558C50.7489 26.1589 51.3611 25.9772 51.8832 25.6336C52.7817 25.0397 53.3225 24.0345 53.322 22.9575V10.1644C53.3231 9.0895 52.7833 8.08588 51.8863 7.49349C50.9889 6.9011 49.8546 6.79908 48.8661 7.22228L42.4482 9.97704C42.5825 10.3815 42.6544 10.8042 42.6611 11.2305V21.8914C42.6549 22.3203 42.5831 22.7456 42.4482 23.1527V23.1527Z" fill="white"/>
<path d="M25.6038 9.10148H38.3968C39.5749 9.10148 40.529 10.0562 40.529 11.2337V21.8945C40.529 23.072 39.5749 24.0267 38.3968 24.0267H25.6038C24.4263 24.0267 23.4716 23.072 23.4716 21.8945V11.2337C23.4716 10.0562 24.4263 9.10148 25.6038 9.10148Z" fill="white"/>
</g>
<defs>
<clipPath id="clip0_18_74">
<rect width="64" height="64" fill="white"/>
</clipPath>
</defs>
</svg>
