<svg width="196" height="196" viewBox="0 0 196 196" fill="none" xmlns="http://www.w3.org/2000/svg">
<path d="M94.1492 153.396L75.9426 142.758L57.7437 153.396L39.5295 142.758L27.8968 149.553C37.8318 165.659 55.6444 176.422 75.9303 176.422C96.2174 176.422 114.031 165.658 123.965 149.55L112.348 142.758L94.1492 153.396Z" fill="white"/>
<path d="M19.5434 120.084C19.5434 128.785 21.5296 137.029 25.0695 144.393L39.5291 135.947L57.7433 146.586L75.9422 135.947L94.1488 146.586L112.348 135.947L126.791 144.392C130.33 137.028 132.316 128.784 132.316 120.084C132.316 111.167 130.234 102.663 126.485 95.0751L111.965 103.558L93.9344 93.0254L75.9173 103.558L57.8945 93.0254L39.8774 103.558L25.3736 95.0769C21.6251 102.664 19.5434 111.168 19.5434 120.084ZM119.77 116.772H124.67V122.652H119.77V116.772ZM100.285 116.772H110.028V122.652H100.285V116.772ZM80.802 116.772H90.5446V122.652H80.802V116.772ZM61.3169 116.772H71.0594V122.652H61.3169V116.772ZM41.8317 116.772H51.5743V122.652H41.8317V116.772ZM27.1891 116.772H32.0891V122.652H27.1891V116.772Z" fill="white"/>
<path d="M72.0073 19.6218V50.669H54.8583V67.8223C43.6373 72.3197 34.4638 80.1621 28.268 89.9581L39.8774 96.7462L57.8945 86.215L75.9173 96.7472L93.9343 86.215L111.965 96.7472L123.59 89.9554C117.394 80.1606 108.221 72.3192 97.0014 67.8223V50.669H79.8531V19.6218H72.0073Z" fill="white"/>
<path d="M127.032 19.6218V44.6134H113.993V58.4211C110.203 59.94 106.719 61.9535 103.56 64.3346C124.745 74.7502 138.201 96.1312 138.201 120.084C138.201 129.251 136.19 137.953 132.612 145.797C156.873 144.921 176.343 124.94 176.343 100.489C176.343 81.7844 165.05 65.2879 147.916 58.4211V44.6134H134.878V19.6218H127.032Z" fill="white"/>
</svg>
