<svg width="64" height="64" viewBox="0 0 64 64" fill="none" xmlns="http://www.w3.org/2000/svg">
<g clip-path="url(#clip0_18_48)">
<path fill-rule="evenodd" clip-rule="evenodd" d="M62.7394 34.8123C63.5405 34.097 64 33.0721 64 32.0002C64 30.9276 63.5405 29.9023 62.7395 29.1871C62.0469 28.5687 61.9111 27.5367 62.4202 26.7602C63.0092 25.8618 63.1879 24.7531 62.9101 23.7181C62.633 22.6827 61.9235 21.8113 60.9632 21.3261C60.1355 20.9078 59.7379 19.9472 60.028 19.0662C60.364 18.0457 60.2492 16.9282 59.7132 16.0003C59.1769 15.0718 58.266 14.4132 57.2139 14.1936C56.306 14.004 55.673 13.1791 55.725 12.2531C55.7852 11.1798 55.3855 10.1301 54.6284 9.37283C54.4579 9.20233 54.2724 9.0502 54.0755 8.91695C53.4174 12.2903 50.3291 14.2933 47.4014 13.2936L37.003 9.74445C36.8985 9.8537 36.7891 9.9582 36.6753 10.0577L38.1939 13.0948C38.657 14.0211 38.2816 15.1473 37.3554 15.6105C36.4329 16.0717 35.3047 15.702 34.8397 14.772L33.0996 11.2917H30.9006L29.1605 14.772C28.6965 15.6997 27.5697 16.0728 26.6449 15.6105C25.7186 15.1473 25.3433 14.0211 25.8064 13.0948L27.325 10.0577C27.2111 9.95833 27.1019 9.85383 26.9974 9.7447L16.5999 13.2937C13.6494 14.3001 10.5794 12.2675 9.92488 8.91758C9.72825 9.05083 9.54313 9.2027 9.37288 9.37295C8.61488 10.131 8.21512 11.1802 8.27612 12.2518C8.32887 13.1783 7.69575 14.0041 6.78737 14.1937C5.7345 14.4135 4.82362 15.0717 4.28862 15.9995C3.75212 16.9285 3.63738 18.0458 3.97338 19.0663C4.26338 19.9472 3.86588 20.908 3.038 21.3262C2.07775 21.8113 1.36837 22.6828 1.09162 23.717C0.8135 24.7531 0.992125 25.862 1.58113 26.7602C2.09025 27.5366 1.95438 28.5687 1.26188 29.1871C0.459875 29.903 0 30.9283 0 32.0002C0 33.0713 0.459875 34.0963 1.26175 34.8123C1.95437 35.4307 2.09 36.4627 1.58088 37.2391C0.991875 38.1375 0.81325 39.2462 1.09113 40.2811C1.3685 41.3175 2.0775 42.1886 3.03675 42.6725C3.86525 43.0905 4.26337 44.0515 3.97325 44.9328C3.63712 45.9537 3.75188 47.0717 4.288 48C4.82313 48.9277 5.73387 49.5856 6.78737 49.8055C7.69575 49.9951 8.32875 50.8207 8.27612 51.7472C8.21525 52.819 8.61525 53.869 9.37362 54.6281C10.1309 55.3852 11.18 55.7843 12.2531 55.7242C13.181 55.6711 14.0052 56.3047 14.1949 57.213C14.4147 58.2663 15.0725 59.1772 15.9994 59.7117C16.929 60.2481 18.047 60.3628 19.0674 60.027C19.9484 59.737 20.9097 60.1348 21.3277 60.9633C21.8117 61.9226 22.683 62.6317 23.7181 62.9087C24.754 63.1865 25.8631 63.0082 26.7624 62.4195C27.5384 61.9115 28.5694 62.047 29.1875 62.7387C29.9038 63.5405 30.9289 64.0002 32 64.0002C33.0719 64.0002 34.0974 63.5405 34.8138 62.739C35.432 62.0472 36.463 61.9116 37.239 62.4197C38.138 63.0083 39.2472 63.187 40.2822 62.9091C41.3184 62.6318 42.1895 61.9227 42.6735 60.9635C43.0915 60.135 44.0528 59.7366 44.9339 60.0271C45.9543 60.3631 47.0717 60.2483 47.9999 59.7123C48.9286 59.1771 49.5866 58.2665 49.8065 57.213C49.9961 56.3045 50.8222 55.6713 51.7484 55.7242C52.8214 55.785 53.8704 55.3855 54.6284 54.6275C55.3853 53.8697 55.7852 52.8193 55.725 51.7458C55.6731 50.8198 56.306 49.9951 57.2139 49.8055C58.2664 49.5857 59.1774 48.9277 59.7132 48C60.2494 47.0717 60.3641 45.9538 60.028 44.9328C59.7377 44.0515 60.136 43.0903 60.9645 42.6725C61.9238 42.1886 62.6329 41.3173 62.9099 40.2823C63.1879 39.2462 63.0092 38.1375 62.4202 37.2391C61.9111 36.4627 62.0469 35.4306 62.7394 34.8123V34.8123ZM11.9166 33.8752C10.8825 33.8752 10.0416 33.0352 10.0416 32.0002C10.0416 30.9652 10.8825 30.1252 11.9166 30.1252C12.9516 30.1252 13.7916 30.9652 13.7916 32.0002C13.7916 33.0352 12.9516 33.8752 11.9166 33.8752ZM17.9416 47.9336C16.9075 47.9336 16.0666 47.0936 16.0666 46.0586C16.0666 45.0236 16.9075 44.1836 17.9416 44.1836C18.9766 44.1836 19.8166 45.0236 19.8166 46.0586C19.8166 47.0936 18.9766 47.9336 17.9416 47.9336ZM19.95 21.8252C18.9159 21.8252 18.075 20.9852 18.075 19.9502C18.075 18.9152 18.9159 18.0752 19.95 18.0752C20.985 18.0752 21.825 18.9152 21.825 19.9502C21.825 20.9852 20.985 21.8252 19.95 21.8252ZM32 53.9586C30.9659 53.9586 30.125 53.1186 30.125 52.0836C30.125 51.0486 30.9659 50.2086 32 50.2086C33.035 50.2086 33.875 51.0486 33.875 52.0836C33.875 53.1186 33.035 53.9586 32 53.9586ZM40.1921 34.2292C39.5284 34.6526 39.1999 35.4456 39.3696 36.2143C39.566 37.1032 39.3001 38.0171 38.6586 38.6587C38.0176 39.2996 37.1044 39.5653 36.2156 39.3686C35.4464 39.1987 34.6532 39.5275 34.2299 40.1917C33.741 40.9588 32.9074 41.4168 32.0001 41.4168C31.0935 41.4168 30.2604 40.9588 29.7715 40.1917C29.3475 39.5265 28.5539 39.199 27.7857 39.3686C26.8971 39.5651 25.983 39.2993 25.3423 38.6593C24.7009 38.0173 24.4352 37.1035 24.6316 36.2145C24.8015 35.4456 24.4729 34.6526 23.809 34.2291C23.0415 33.7396 22.5834 32.9063 22.5834 32.0001C22.5834 31.094 23.042 30.26 23.8101 29.7692C24.4733 29.3456 24.8014 28.553 24.6316 27.7846C24.4352 26.8958 24.7006 25.9825 25.3415 25.3415C25.9831 24.6998 26.8962 24.4343 27.7844 24.6312C28.5537 24.8015 29.3478 24.473 29.7714 23.8083C30.2604 23.0412 31.0935 22.5833 32.0001 22.5833C32.9074 22.5833 33.741 23.0413 34.2299 23.8083C34.6534 24.4728 35.4475 24.8017 36.2169 24.6312C37.1047 24.4343 38.0174 24.6996 38.6592 25.3421C39.3005 25.9827 39.566 26.8958 39.3698 27.7847C39.2 28.553 39.5281 29.3456 40.1911 29.7692C40.9586 30.2595 41.4168 31.0935 41.4168 32.0001C41.4166 32.9068 40.9589 33.7401 40.1921 34.2292V34.2292ZM42.175 19.9502C42.175 18.9152 43.0159 18.0752 44.05 18.0752C45.085 18.0752 45.925 18.9152 45.925 19.9502C45.925 20.9852 45.085 21.8252 44.05 21.8252C43.0159 21.8252 42.175 20.9852 42.175 19.9502ZM46.0584 47.9336C45.0243 47.9336 44.1834 47.0936 44.1834 46.0586C44.1834 45.0236 45.0243 44.1836 46.0584 44.1836C47.0934 44.1836 47.9334 45.0236 47.9334 46.0586C47.9334 47.0936 47.0934 47.9336 46.0584 47.9336ZM52.0834 33.8752C51.0492 33.8752 50.2084 33.0352 50.2084 32.0002C50.2084 30.9652 51.0492 30.1252 52.0834 30.1252C53.1184 30.1252 53.9584 30.9652 53.9584 32.0002C53.9584 33.0352 53.1184 33.8752 52.0834 33.8752Z" fill="white"/>
<path fill-rule="evenodd" clip-rule="evenodd" d="M30.6083 7.54197H33.3917C34.0821 7.54197 34.6417 6.98235 34.6417 6.29197V3.5086C34.6417 2.81822 34.0821 2.2586 33.3917 2.2586H30.6083C29.918 2.2586 29.3583 2.81822 29.3583 3.5086V6.29197C29.3583 6.98222 29.918 7.54197 30.6083 7.54197V7.54197Z" fill="white"/>
<path fill-rule="evenodd" clip-rule="evenodd" d="M49.7234 9.46535C50.1784 9.05573 50.45 8.36898 50.45 7.62835V2.1716C50.45 1.43085 50.1784 0.744228 49.7234 0.334603C49.5253 0.156228 49.1174 -0.117272 48.6129 0.0549776L38.3917 3.54348V6.25648L48.6129 9.74498C49.1174 9.91723 49.5253 9.64373 49.7234 9.46535Z" fill="white"/>
<path fill-rule="evenodd" clip-rule="evenodd" d="M15.3871 9.74498L25.6083 6.25648V3.54348L15.3871 0.0549776C14.8826 -0.117272 14.4747 0.156228 14.2766 0.334603C13.8216 0.744228 13.5499 1.43098 13.5499 2.1716V7.62823C13.5499 8.36898 13.8216 9.0556 14.2766 9.46523C14.4747 9.64373 14.8826 9.91723 15.3871 9.74498Z" fill="white"/>
</g>
<defs>
<clipPath id="clip0_18_48">
<rect width="64" height="64" fill="white"/>
</clipPath>
</defs>
</svg>
