<svg width="64" height="64" viewBox="0 0 64 64" fill="none" xmlns="http://www.w3.org/2000/svg">
<path d="M30.7426 50.0885L24.7976 46.6147L18.8551 50.0885L12.9076 46.6147L9.10913 48.8336C12.3532 54.0928 18.1696 57.6072 24.7935 57.6072C31.4179 57.6072 37.2346 54.0924 40.4785 48.8327L36.6851 46.6147L30.7426 50.0885Z" fill="white"/>
<path d="M6.38153 39.2112C6.38153 42.0521 7.03009 44.7443 8.18598 47.1488L12.9075 44.391L18.855 47.8647L24.7975 44.391L30.7425 47.8647L36.685 44.391L41.4011 47.1484C42.5569 44.744 43.2054 42.0519 43.2054 39.2112C43.2054 36.2995 42.5256 33.5227 41.3013 31.0449L36.56 33.8147L30.6725 30.3756L24.7893 33.8147L18.9043 30.3756L13.0212 33.815L8.28528 31.0455C7.06126 33.5231 6.38153 36.2997 6.38153 39.2112V39.2112ZM39.1087 38.1297H40.7087V40.0497H39.1087V38.1297ZM32.7462 38.1297H35.9275V40.0497H32.7462V38.1297ZM26.3843 38.1297H29.5656V40.0497H26.3843V38.1297ZM20.0218 38.1297H23.2031V40.0497H20.0218V38.1297ZM13.6593 38.1297H16.8406V40.0497H13.6593V38.1297ZM8.87809 38.1297H10.4781V40.0497H8.87809V38.1297Z" fill="white"/>
<path d="M23.5126 6.40713V16.545H17.9129V22.1461C14.249 23.6146 11.2535 26.1754 9.23041 29.3741L13.0212 31.5906L18.9044 28.1519L24.7894 31.5909L30.6725 28.1519L36.56 31.5909L40.356 29.3732C38.3329 26.1749 35.3376 23.6144 31.674 22.1461V16.545H26.0745V6.40713H23.5126Z" fill="white"/>
<path d="M41.4799 6.40713V14.5676H37.2222V19.0763C35.9847 19.5722 34.8471 20.2297 33.8154 21.0072C40.7331 24.4082 45.1267 31.3898 45.1267 39.2112C45.1267 42.2045 44.4702 45.046 43.3018 47.607C51.2239 47.3211 57.5815 40.7967 57.5815 32.8129C57.5815 26.7051 53.8938 21.3185 48.2992 19.0763V14.5676H44.0418V6.40713H41.4799Z" fill="white"/>
</svg>
