<svg width="196" height="196" viewBox="0 0 196 196" fill="none" xmlns="http://www.w3.org/2000/svg">
<g clip-path="url(#clip0_0_3528)">
<path d="M43.841 132.111C45.4917 132.721 47.2404 133.023 49 133C52.6298 133.028 56.2396 132.461 59.6855 131.32C59.5703 130.72 59.5082 130.111 59.5 129.5C59.4731 124.389 63.1305 120.001 68.1628 119.107C73.1951 118.213 78.1403 121.072 79.8759 125.879C81.6116 130.687 79.6335 136.045 75.1905 138.572C76.4419 142.476 78.4019 146.116 80.9725 149.31C86.4069 145.146 91.1678 140.17 95.088 134.558C95.7746 133.64 96.8538 133.099 98 133.099C99.1463 133.099 100.225 133.64 100.912 134.558C104.832 140.17 109.593 145.146 115.028 149.31C117.598 146.116 119.558 142.476 120.81 138.572C116.092 135.949 114.113 130.19 116.22 125.221C118.328 120.251 123.844 117.672 129.009 119.239C134.174 120.807 137.325 126.018 136.315 131.32C139.761 132.461 143.37 133.028 147 133C148.757 133.023 150.503 132.723 152.152 132.115C155.672 130.611 158.494 127.834 160.052 124.338C150.379 120.295 142.053 113.589 136.042 105C129.549 105.036 123.158 103.389 117.492 100.219C114.512 109.538 108.104 117.377 99.5645 122.15C98.5796 122.642 97.4205 122.642 96.4355 122.15C87.9024 117.373 81.5012 109.535 78.5261 100.219C72.8546 103.392 66.4571 105.039 59.9585 105C53.9497 113.595 45.6234 120.307 35.9485 124.355C37.5075 127.843 40.3265 130.613 43.841 132.111Z" fill="white"/>
<path d="M58.1872 97.9336C58.6225 97.9879 59.0611 98.0101 59.4997 98.0001C66.2097 98.3537 72.8144 96.2202 78.0497 92.0081C78.9758 91.1106 80.3171 90.7887 81.5497 91.1681C82.7738 91.5444 83.6947 92.5593 83.9507 93.8141C83.9822 93.9576 87.0447 108.385 98.0207 115.007C108.997 108.385 112.059 93.9576 112.091 93.8071C112.346 92.5436 113.276 91.5229 114.51 91.1505C115.744 90.7781 117.083 91.1143 117.995 92.0256C123.222 96.2187 129.808 98.345 136.5 98.0001C136.837 98.0134 137.175 98.0017 137.511 97.9651C141.963 97.9527 146.185 95.9874 149.061 92.5891C138.176 87.181 128.707 79.3014 121.411 69.5801C119.056 69.2975 116.742 68.7395 114.516 67.9176C113.193 71.6626 110.983 75.032 108.076 77.7386C109.316 82.0275 107.708 86.6315 104.068 89.2161C100.427 91.8006 95.5509 91.8006 91.9105 89.2161C88.2702 86.6315 86.6624 82.0275 87.9022 77.7386C84.9951 75.032 82.7856 71.6626 81.4622 67.9176C79.2368 68.7395 76.9226 69.2975 74.5672 69.5801C67.2702 79.3012 57.8015 87.1818 46.9172 92.5926C49.6981 95.9533 53.8251 97.9092 58.1872 97.9336ZM122.5 80.5001C124.433 80.5001 126 82.0671 126 84.0001C126 85.9331 124.433 87.5001 122.5 87.5001C120.567 87.5001 119 85.9331 119 84.0001C119 82.0671 120.567 80.5001 122.5 80.5001ZM73.4997 80.5001C75.4327 80.5001 76.9997 82.0671 76.9997 84.0001C76.9997 85.9331 75.4327 87.5001 73.4997 87.5001C71.5667 87.5001 69.9997 85.9331 69.9997 84.0001C69.9997 82.0671 71.5667 80.5001 73.4997 80.5001Z" fill="white"/>
<path d="M126 133C127.933 133 129.5 131.433 129.5 129.5C129.5 127.567 127.933 126 126 126C124.067 126 122.5 127.567 122.5 129.5C122.5 131.433 124.067 133 126 133Z" fill="white"/>
<path d="M69.9997 133C71.9327 133 73.4997 131.433 73.4997 129.5C73.4997 127.567 71.9327 126 69.9997 126C68.0667 126 66.4997 127.567 66.4997 129.5C66.4997 131.433 68.0667 133 69.9997 133Z" fill="white"/>
<path d="M87.9689 29.4769L86.1489 40.6069L95.4134 35.4969C97.0213 34.6008 98.9785 34.6008 100.586 35.4969L109.851 40.6069L108.034 29.4804C107.755 27.7545 108.306 25.9979 109.522 24.7414L117.372 16.7124L106.701 15.0884C104.916 14.8129 103.387 13.6637 102.627 12.0259L97.9999 2.19092L93.3729 12.0294C92.6102 13.6663 91.0803 14.8141 89.2954 15.0884L78.6274 16.7124L86.4779 24.7414C87.6924 25.9973 88.2448 27.7517 87.9689 29.4769Z" fill="white"/>
<path d="M48.9999 171.5C50.9329 171.5 52.4999 169.933 52.4999 168C52.4999 166.067 50.9329 164.5 48.9999 164.5C47.0669 164.5 45.4999 166.067 45.4999 168C45.4999 169.933 47.0669 171.5 48.9999 171.5Z" fill="white"/>
<path d="M97.9999 83.9999C99.9329 83.9999 101.5 82.4329 101.5 80.4999C101.5 78.5669 99.9329 76.9999 97.9999 76.9999C96.0669 76.9999 94.4999 78.5669 94.4999 80.4999C94.4999 82.4329 96.0669 83.9999 97.9999 83.9999Z" fill="white"/>
<path d="M72.4712 62.832C75.9592 62.5286 79.3492 61.5201 82.4357 59.8675C83.5209 59.3252 84.8096 59.3836 85.8413 60.0217C86.8731 60.6599 87.5008 61.7868 87.5002 63C87.9252 66.3994 89.5101 69.548 91.9872 71.9145C95.5894 69.3614 100.411 69.3614 104.013 71.9145C106.502 69.5379 108.088 66.3708 108.5 62.9545C108.533 61.7515 109.173 60.6471 110.201 60.0215C111.222 59.3988 112.491 59.3407 113.565 59.8675C116.652 61.5206 120.044 62.5292 123.533 62.832C127.997 63.1399 132.312 61.1633 134.995 57.582C128.455 54.4907 122.284 50.6727 116.599 46.2C115.693 47.9288 113.899 49.0086 111.948 49C111.042 48.9997 110.152 48.7684 109.361 48.328L98.0002 42.063L86.6392 48.328C84.8467 49.3307 82.6363 49.208 80.9657 48.013C80.3153 47.5375 79.7805 46.9214 79.4012 46.2105C73.7158 50.6827 67.5435 54.4985 61.0017 57.5855C63.687 61.1671 68.0055 63.1425 72.4712 62.832Z" fill="white"/>
<path d="M97.9999 168C99.9329 168 101.5 166.433 101.5 164.5C101.5 162.567 99.9329 161 97.9999 161C96.0669 161 94.4999 162.567 94.4999 164.5C94.4999 166.433 96.0669 168 97.9999 168Z" fill="white"/>
<path d="M147 171.5C148.933 171.5 150.5 169.933 150.5 168C150.5 166.067 148.933 164.5 147 164.5C145.067 164.5 143.5 166.067 143.5 168C143.5 169.933 145.067 171.5 147 171.5Z" fill="white"/>
<path d="M151.917 139.405C150.306 139.786 148.656 139.986 147 140C142.147 140.028 137.331 139.161 132.793 137.442C131.359 138.68 129.614 139.504 127.746 139.825C125.905 146.093 122.549 151.811 117.974 156.475C116.795 157.655 114.946 157.838 113.557 156.912C107.722 152.829 102.485 147.951 98 142.419C93.5145 147.951 88.2781 152.829 82.4425 156.912C81.0541 157.838 79.2053 157.655 78.0255 156.475C73.4498 151.811 70.0925 146.093 68.25 139.825C66.3823 139.504 64.6374 138.68 63.203 137.442C58.6663 139.161 53.8514 140.028 49 140C47.3496 139.984 45.7061 139.785 44.1 139.405C36.3671 150.291 26.3803 159.384 14.819 166.065C16.9892 171.444 22.199 174.976 28 175C31.967 175.019 35.8659 173.97 39.2875 171.962C37.1105 166.69 39.5401 160.645 44.7597 158.346C49.9792 156.046 56.0798 158.334 58.5002 163.499C60.9206 168.663 58.7756 174.815 53.669 177.356C54.4762 181.37 55.8851 185.239 57.848 188.832C65.8554 187.493 72.9995 183.02 77.7 176.4C78.5328 175.289 79.9435 174.776 81.2954 175.091C82.6474 175.407 83.6851 176.492 83.9405 177.856C85.9089 185.488 91.0172 191.929 98 195.584C104.988 191.926 110.098 185.477 112.063 177.839C112.325 176.479 113.364 175.401 114.713 175.09C116.063 174.778 117.469 175.292 118.3 176.4C122.999 183.02 130.144 187.493 138.152 188.829C140.115 185.237 141.524 181.369 142.331 177.356C137.224 174.815 135.079 168.663 137.5 163.499C139.92 158.334 146.021 156.046 151.24 158.346C156.46 160.645 158.889 166.69 156.712 171.962C160.134 173.97 164.033 175.019 168 175C173.807 174.983 179.026 171.45 181.198 166.065C169.637 159.384 159.65 150.291 151.917 139.405ZM49 150.5C47.067 150.5 45.5 148.933 45.5 147C45.5 145.067 47.067 143.5 49 143.5C50.933 143.5 52.5 145.067 52.5 147C52.5 148.933 50.933 150.5 49 150.5ZM70 168C68.067 168 66.5 166.433 66.5 164.5C66.5 162.567 68.067 161 70 161C71.933 161 73.5 162.567 73.5 164.5C73.5 166.433 71.933 168 70 168ZM98 175C92.201 175 87.5 170.299 87.5 164.5C87.5 158.701 92.201 154 98 154C103.799 154 108.5 158.701 108.5 164.5C108.5 170.299 103.799 175 98 175ZM126 168C124.067 168 122.5 166.433 122.5 164.5C122.5 162.567 124.067 161 126 161C127.933 161 129.5 162.567 129.5 164.5C129.5 166.433 127.933 168 126 168ZM147 150.5C145.067 150.5 143.5 148.933 143.5 147C143.5 145.067 145.067 143.5 147 143.5C148.933 143.5 150.5 145.067 150.5 147C150.5 148.933 148.933 150.5 147 150.5Z" fill="white"/>
</g>
<defs>
<clipPath id="clip0_0_3528">
<rect width="196" height="196" fill="white"/>
</clipPath>
</defs>
</svg>
