<svg width="17" height="17" viewBox="0 0 17 17" fill="none" xmlns="http://www.w3.org/2000/svg">
<path d="M8.17111 11.9487C6.32454 13.1499 4.62603 14.5702 3.1116 16.1795C3.59226 14.2051 4.17411 12.2821 4.78125 10.359C4.80592 10.307 4.81873 10.25 4.81873 10.1923C4.81873 10.1346 4.80592 10.0777 4.78125 10.0257C4.78125 10.0257 4.62948 9.87179 4.52829 9.82051C2.89682 9.20898 1.36911 8.34394 0 7.25641C2.08348 6.92291 4.14489 6.46051 6.17264 5.8718C7.45693 4.03808 8.54253 2.06946 9.41071 0C10.0443 1.96271 10.5016 3.97946 10.7768 6.02563C12.9018 6.46153 14.9003 6.92308 17 7.53847C15.3125 8.38818 13.502 8.95947 11.6369 9.23077C11.4739 9.24476 11.3214 9.31754 11.2068 9.4359C11.1807 9.55409 11.1807 9.67668 11.2068 9.79488C11.2068 11.8718 11.6369 14.9231 11.7128 17C10.6213 15.2539 9.4391 13.5677 8.17111 11.9487Z" fill="#F9FBFA"/>
</svg>
