<svg width="64" height="64" viewBox="0 0 64 64" fill="none" xmlns="http://www.w3.org/2000/svg">
<g clip-path="url(#clip0_18_16)">
<path d="M14.3154 43.1383C14.8544 43.3375 15.4254 43.4359 16 43.4286C17.1852 43.4378 18.3639 43.2525 19.4891 42.88C19.4515 42.6841 19.4312 42.4852 19.4286 42.2857C19.4198 40.6168 20.614 39.184 22.2572 38.892C23.9004 38.6 25.5152 39.5336 26.0819 41.1034C26.6487 42.6732 26.0028 44.423 24.552 45.248C24.9606 46.5228 25.6006 47.7114 26.44 48.7543C28.2145 47.3946 29.7691 45.7699 31.0491 43.9372C31.2733 43.6374 31.6257 43.461 32 43.461C32.3743 43.461 32.7267 43.6374 32.9509 43.9372C34.2309 45.7699 35.7855 47.3946 37.56 48.7543C38.3994 47.7114 39.0394 46.5228 39.448 45.248C37.9076 44.3914 37.2613 42.511 37.9495 40.8884C38.6376 39.2658 40.4387 38.4234 42.1253 38.9353C43.8118 39.4472 44.8407 41.1486 44.5108 42.88C45.6361 43.2525 46.8148 43.4378 48 43.4286C48.5737 43.436 49.144 43.338 49.6823 43.1394C50.8316 42.6486 51.753 41.7415 52.2617 40.6C49.1033 39.2799 46.3846 37.0902 44.4217 34.2857C42.3017 34.2975 40.2148 33.7597 38.3646 32.7246C37.3917 35.7674 35.2993 38.3271 32.5109 39.8857C32.1892 40.0464 31.8107 40.0464 31.4891 39.8857C28.7028 38.3259 26.6126 35.7664 25.6411 32.7246C23.7892 33.7606 21.7002 34.2985 19.5783 34.2857C17.6162 37.0924 14.8974 39.284 11.7383 40.6057C12.2473 41.7446 13.1678 42.6492 14.3154 43.1383V43.1383Z" fill="white"/>
<path d="M18.9998 31.9783C19.142 31.996 19.2852 32.0033 19.4284 32C21.6194 32.1155 23.7761 31.4188 25.4855 30.0434C25.7879 29.7504 26.2259 29.6453 26.6284 29.7691C27.0281 29.892 27.3288 30.2234 27.4124 30.6331C27.4227 30.68 28.4227 35.3909 32.0067 37.5532C35.5907 35.3909 36.5907 30.68 36.601 30.6309C36.6845 30.2183 36.988 29.885 37.391 29.7634C37.794 29.6418 38.2312 29.7516 38.529 30.0491C40.2357 31.4183 42.3861 32.1126 44.5713 32C44.6815 32.0044 44.7919 32.0005 44.9015 31.9886C46.3552 31.9845 47.7339 31.3428 48.673 30.2331C45.1186 28.4672 42.0267 25.8943 39.6444 22.72C38.8753 22.6277 38.1196 22.4455 37.393 22.1771C36.9608 23.4 36.2394 24.5002 35.2901 25.384C35.6949 26.7845 35.1699 28.2878 33.9813 29.1317C32.7926 29.9757 31.2002 29.9757 30.0115 29.1317C28.8229 28.2878 28.2978 26.7845 28.7027 25.384C27.7534 24.5002 27.032 23.4 26.5998 22.1771C25.8732 22.4455 25.1175 22.6277 24.3484 22.72C21.9657 25.8943 18.8739 28.4675 15.3198 30.2343C16.2279 31.3317 17.5755 31.9703 18.9998 31.9783V31.9783ZM39.9998 26.2857C40.631 26.2857 41.1427 26.7974 41.1427 27.4286C41.1427 28.0598 40.631 28.5714 39.9998 28.5714C39.3686 28.5714 38.857 28.0598 38.857 27.4286C38.857 26.7974 39.3686 26.2857 39.9998 26.2857ZM23.9998 26.2857C24.631 26.2857 25.1427 26.7974 25.1427 27.4286C25.1427 28.0598 24.631 28.5714 23.9998 28.5714C23.3686 28.5714 22.857 28.0598 22.857 27.4286C22.857 26.7974 23.3686 26.2857 23.9998 26.2857Z" fill="white"/>
<path d="M41.1429 43.4285C41.774 43.4285 42.2857 42.9168 42.2857 42.2857C42.2857 41.6545 41.774 41.1428 41.1429 41.1428C40.5117 41.1428 40 41.6545 40 42.2857C40 42.9168 40.5117 43.4285 41.1429 43.4285Z" fill="white"/>
<path d="M22.857 43.4285C23.4881 43.4285 23.9998 42.9168 23.9998 42.2857C23.9998 41.6545 23.4881 41.1428 22.857 41.1428C22.2258 41.1428 21.7141 41.6545 21.7141 42.2857C21.7141 42.9168 22.2258 43.4285 22.857 43.4285Z" fill="white"/>
<path d="M28.7245 9.62507L28.1302 13.2594L31.1553 11.5908C31.6804 11.2982 32.3195 11.2982 32.8445 11.5908L35.8696 13.2594L35.2765 9.62621C35.1852 9.06266 35.3652 8.48906 35.7622 8.07878L38.3256 5.45707L34.8411 4.92678C34.2583 4.83681 33.7591 4.46155 33.5108 3.92678L31.9999 0.715355L30.4891 3.92793C30.24 4.46243 29.7405 4.83721 29.1576 4.92678L25.6742 5.45707L28.2376 8.07878C28.6342 8.48888 28.8146 9.06174 28.7245 9.62507V9.62507Z" fill="white"/>
<path d="M15.9999 56C16.6311 56 17.1428 55.4883 17.1428 54.8571C17.1428 54.2259 16.6311 53.7143 15.9999 53.7143C15.3687 53.7143 14.8571 54.2259 14.8571 54.8571C14.8571 55.4883 15.3687 56 15.9999 56Z" fill="white"/>
<path d="M31.9999 27.4285C32.6311 27.4285 33.1428 26.9168 33.1428 26.2856C33.1428 25.6545 32.6311 25.1428 31.9999 25.1428C31.3687 25.1428 30.8571 25.6545 30.8571 26.2856C30.8571 26.9168 31.3687 27.4285 31.9999 27.4285Z" fill="white"/>
<path d="M23.664 20.5165C24.8029 20.4175 25.9099 20.0881 26.9177 19.5485C27.2721 19.3715 27.6929 19.3905 28.0298 19.5989C28.3667 19.8073 28.5716 20.1753 28.5715 20.5714C28.7102 21.6814 29.2277 22.7095 30.0366 23.4822C31.2128 22.6486 32.7872 22.6486 33.9635 23.4822C34.7761 22.7062 35.2939 21.6721 35.4286 20.5565C35.4392 20.1637 35.6484 19.8031 35.984 19.5988C36.3175 19.3955 36.7317 19.3765 37.0823 19.5485C38.0905 20.0883 39.1979 20.4176 40.3372 20.5165C41.7948 20.6171 43.204 19.9716 44.08 18.8022C41.9446 17.7929 39.9296 16.5461 38.0732 15.0857C37.7774 15.6502 37.1916 16.0028 36.5543 16C36.2587 15.9999 35.968 15.9243 35.7097 15.7805L32 13.7348L28.2903 15.7805C27.705 16.1079 26.9832 16.0679 26.4377 15.6777C26.2253 15.5224 26.0507 15.3212 25.9269 15.0891C24.0704 16.5494 22.055 17.7954 19.9189 18.8034C20.7957 19.9729 22.2058 20.6179 23.664 20.5165V20.5165Z" fill="white"/>
<path d="M31.9999 54.8571C32.6311 54.8571 33.1428 54.3455 33.1428 53.7143C33.1428 53.0831 32.6311 52.5714 31.9999 52.5714C31.3687 52.5714 30.8571 53.0831 30.8571 53.7143C30.8571 54.3455 31.3687 54.8571 31.9999 54.8571Z" fill="white"/>
<path d="M47.9999 56C48.6311 56 49.1428 55.4883 49.1428 54.8571C49.1428 54.2259 48.6311 53.7143 47.9999 53.7143C47.3687 53.7143 46.8571 54.2259 46.8571 54.8571C46.8571 55.4883 47.3687 56 47.9999 56Z" fill="white"/>
<path d="M49.6057 45.52C49.0793 45.6444 48.5408 45.7096 47.9999 45.7143C46.4154 45.7235 44.8428 45.4403 43.3611 44.8789C42.8927 45.2832 42.3229 45.5523 41.7131 45.6571C41.1118 47.7037 40.0159 49.5709 38.5222 51.0937C38.137 51.4791 37.5333 51.5389 37.08 51.2366C35.1745 49.9034 33.4646 48.3104 32 46.504C30.5353 48.3104 28.8255 49.9034 26.92 51.2366C26.4666 51.5389 25.8629 51.4791 25.4777 51.0937C23.9836 49.571 22.8873 47.7039 22.2857 45.6571C21.6758 45.5523 21.1061 45.2832 20.6377 44.8789C19.1563 45.4402 17.5841 45.7234 15.9999 45.7143C15.4611 45.7091 14.9244 45.644 14.3999 45.52C11.8749 49.0746 8.61393 52.0436 4.83881 54.2251C5.54744 55.9818 7.2486 57.135 9.14281 57.1428C10.4382 57.149 11.7113 56.8064 12.8285 56.1508C12.1177 54.4295 12.911 52.4554 14.6154 51.7046C16.3197 50.9538 18.3117 51.7009 19.1021 53.3873C19.8924 55.0736 19.192 57.0825 17.5245 57.912C17.7881 59.2227 18.2482 60.4861 18.8891 61.6594C21.5038 61.2223 23.8365 59.7614 25.3714 57.6C25.6433 57.2373 26.1039 57.0697 26.5454 57.1727C26.9869 57.2757 27.3257 57.6298 27.4091 58.0754C28.0518 60.5674 29.7199 62.6706 32 63.864C34.2817 62.6696 35.9504 60.564 36.592 58.0697C36.6774 57.6256 37.0167 57.2737 37.4574 57.1721C37.898 57.0704 38.3572 57.2382 38.6285 57.6C40.163 59.7617 42.496 61.2223 45.1108 61.6583C45.7519 60.4854 46.212 59.2224 46.4754 57.912C44.8079 57.0825 44.1075 55.0736 44.8978 53.3873C45.6882 51.7009 47.6802 50.9538 49.3845 51.7046C51.0889 52.4554 51.8822 54.4295 51.1714 56.1508C52.2886 56.8064 53.5617 57.149 54.8571 57.1428C56.7534 57.1374 58.4574 55.9837 59.1668 54.2251C55.3917 52.0436 52.1307 49.0746 49.6057 45.52V45.52ZM15.9999 49.1429C15.3688 49.1429 14.8571 48.6312 14.8571 48C14.8571 47.3688 15.3688 46.8571 15.9999 46.8571C16.6311 46.8571 17.1428 47.3688 17.1428 48C17.1428 48.6312 16.6311 49.1429 15.9999 49.1429ZM22.8571 54.8571C22.2259 54.8571 21.7142 54.3455 21.7142 53.7143C21.7142 53.0831 22.2259 52.5714 22.8571 52.5714C23.4883 52.5714 24 53.0831 24 53.7143C24 54.3455 23.4883 54.8571 22.8571 54.8571ZM32 57.1428C30.1064 57.1428 28.5714 55.6078 28.5714 53.7143C28.5714 51.8207 30.1064 50.2857 32 50.2857C33.8935 50.2857 35.4285 51.8207 35.4285 53.7143C35.4285 55.6078 33.8935 57.1428 32 57.1428ZM41.1428 54.8571C40.5116 54.8571 40 54.3455 40 53.7143C40 53.0831 40.5116 52.5714 41.1428 52.5714C41.774 52.5714 42.2857 53.0831 42.2857 53.7143C42.2857 54.3455 41.774 54.8571 41.1428 54.8571ZM47.9999 49.1429C47.3688 49.1429 46.8571 48.6312 46.8571 48C46.8571 47.3688 47.3688 46.8571 47.9999 46.8571C48.6311 46.8571 49.1428 47.3688 49.1428 48C49.1428 48.6312 48.6311 49.1429 47.9999 49.1429Z" fill="white"/>
</g>
<defs>
<clipPath id="clip0_18_16">
<rect width="64" height="64" fill="white"/>
</clipPath>
</defs>
</svg>
