<svg width="64" height="66" viewBox="0 0 64 66" fill="none" xmlns="http://www.w3.org/2000/svg">
<path d="M11.48 35.7561C11.318 35.7561 7.754 35.7561 6.134 35.7561C5.27 35.7561 5 35.4135 5 34.5568C5 32.2725 5 29.931 5 27.6466C5 26.7329 5.324 26.4474 6.134 26.4474H11.48C11.48 26.276 11.48 22.9637 11.48 21.4218C11.48 19.1374 11.858 16.9673 12.938 14.9685C14.072 12.9126 15.692 11.5419 17.744 10.7424C19.094 10.2284 20.444 10 21.902 10H27.194C27.95 10 28.274 10.3427 28.274 11.1422V17.6526C28.274 18.4521 27.95 18.7948 27.194 18.7948C25.736 18.7948 24.278 18.7948 22.82 18.8519C21.362 18.8519 20.606 19.5943 20.606 21.1933C20.552 22.9066 20.606 24.5628 20.606 26.3331H26.87C27.734 26.3331 28.058 26.6758 28.058 27.5895V34.4997C28.058 35.4135 27.788 35.699 26.87 35.699C24.926 35.699 20.768 35.699 20.606 35.699V54.3165C20.606 55.2873 20.336 55.63 19.364 55.63C17.096 55.63 14.882 55.63 12.614 55.63C11.804 55.63 11.48 55.2873 11.48 54.4307C11.48 48.4343 11.48 35.9274 11.48 35.7561V35.7561Z" fill="white"/>
</svg>
