<svg width="64" height="64" viewBox="0 0 64 64" fill="none" xmlns="http://www.w3.org/2000/svg">
<path d="M26.48 34.354C26.318 34.354 22.754 34.354 21.134 34.354C20.27 34.354 20 34.03 20 33.22C20 31.06 20 28.846 20 26.686C20 25.822 20.324 25.552 21.134 25.552H26.48C26.48 25.39 26.48 22.258 26.48 20.8C26.48 18.64 26.858 16.588 27.938 14.698C29.072 12.754 30.692 11.458 32.744 10.702C34.094 10.216 35.444 10 36.902 10H42.194C42.95 10 43.274 10.324 43.274 11.08V17.236C43.274 17.992 42.95 18.316 42.194 18.316C40.736 18.316 39.278 18.316 37.82 18.37C36.362 18.37 35.606 19.072 35.606 20.584C35.552 22.204 35.606 23.77 35.606 25.444H41.87C42.734 25.444 43.058 25.768 43.058 26.632V33.166C43.058 34.03 42.788 34.3 41.87 34.3C39.926 34.3 35.768 34.3 35.606 34.3V51.904C35.606 52.822 35.336 53.146 34.364 53.146C32.096 53.146 29.882 53.146 27.614 53.146C26.804 53.146 26.48 52.822 26.48 52.012C26.48 46.342 26.48 34.516 26.48 34.354Z" fill="white"/>
</svg>
