<svg width="512" height="512" viewBox="0 0 512 512" fill="none" xmlns="http://www.w3.org/2000/svg">
<path d="M337.12 236.555C346 229.115 351.44 218.635 352.4 207.115C353.44 195.595 349.84 184.315 342.4 175.515C334.96 166.635 324.48 161.195 312.96 160.235C301.44 159.275 290.16 162.795 281.36 170.235C275.52 175.115 271.12 181.435 268.48 188.715L256 224.075L243.44 188.555C240.8 181.355 236.4 175.035 230.56 170.155C221.68 162.715 210.48 159.195 198.96 160.155C187.44 161.195 176.96 166.635 169.52 175.435C162.08 184.315 158.56 195.515 159.52 207.035C160.56 218.555 166 229.035 174.8 236.475C176.32 237.755 177.92 238.875 179.6 239.995H104V311.995H124V479.995H388V312.075H408V240.075H332.24C333.92 239.035 335.6 237.835 337.12 236.555ZM283.6 194.075C285.2 189.595 288 185.515 291.68 182.475C296.64 178.315 302.8 176.075 309.2 176.075C310 176.075 310.8 176.075 311.6 176.155C318.88 176.795 325.44 180.235 330.16 185.835C334.88 191.435 337.12 198.475 336.48 205.755C335.84 213.035 332.4 219.595 326.8 224.315C323.12 227.355 318.72 229.435 314.08 230.235L268.08 237.915L283.6 194.075ZM175.52 205.755C174.88 198.475 177.12 191.435 181.84 185.835C186.56 180.235 193.12 176.795 200.4 176.155C207.68 175.515 214.72 177.755 220.32 182.475C224 185.515 226.8 189.515 228.4 193.995L243.92 237.915L198 230.235C193.28 229.435 188.8 227.355 185.2 224.315C179.6 219.675 176.16 213.035 175.52 205.755ZM224 464.075H140V312.075H224V464.075ZM224 296.075H120V256.075H224V296.075ZM272 464.075H240V256.075H272V464.075ZM372 464.075H288V312.075H372V464.075ZM392 256.075V296.075H288V256.075H392Z" fill="white"/>
</svg>
