<svg width="196" height="196" viewBox="0 0 196 196" fill="none" xmlns="http://www.w3.org/2000/svg">
<path d="M150.301 46.8907C156.026 42.3336 159.534 35.9145 160.153 28.8584C160.823 21.8023 158.502 14.8932 153.705 9.50308C148.908 4.06399 142.152 0.731939 134.724 0.14393C127.297 -0.44408 120.024 1.71195 114.351 6.26903C110.585 9.25807 107.748 13.1291 106.046 17.5882L98 39.2465L89.9021 17.4902C88.2 13.0801 85.3632 9.20907 81.5979 6.22002C75.8726 1.66295 68.6516 -0.493082 61.2242 0.0949277C53.7968 0.731938 47.04 4.06399 42.2432 9.45407C37.4463 14.8932 35.1768 21.7533 35.7958 28.8094C36.4663 35.8655 39.9737 42.2846 45.6474 46.8417C46.6274 47.6257 47.659 48.3117 48.7421 48.9977H0V93.0984H12.8947V196H183.105V93.1474H196V49.0467H147.155C148.238 48.4097 149.321 47.6747 150.301 46.8907ZM115.795 20.8713C116.826 18.1272 118.632 15.6282 121.004 13.7661C124.202 11.2181 128.174 9.84608 132.3 9.84608C132.816 9.84608 133.332 9.84608 133.847 9.89508C138.541 10.2871 142.771 12.3941 145.814 15.8242C148.857 19.2542 150.301 23.5663 149.888 28.0254C149.476 32.4844 147.258 36.5025 143.647 39.3935C141.275 41.2556 138.438 42.5296 135.446 43.0196L105.788 47.7237L115.795 20.8713ZM46.1116 28.0254C45.6989 23.5663 47.1432 19.2542 50.1863 15.8242C53.2295 12.3941 57.4589 10.2871 62.1526 9.89508C66.8463 9.50308 71.3853 10.8751 74.9958 13.7661C77.3684 15.6282 79.1737 18.0782 80.2053 20.8222L90.2116 47.7237L60.6053 43.0196C57.5621 42.5296 54.6737 41.2556 52.3526 39.3935C48.7421 36.5515 46.5242 32.4844 46.1116 28.0254V28.0254ZM77.3684 186.249H23.2105V93.1474H77.3684V186.249ZM77.3684 83.3472H10.3158V58.8468H77.3684V83.3472ZM108.316 186.249H87.6842V58.8468H108.316V186.249ZM172.789 186.249H118.632V93.1474H172.789V186.249ZM185.684 58.8468V83.3472H118.632V58.8468H185.684Z" fill="white"/>
</svg>
