<svg width="64" height="64" viewBox="0 0 64 64" fill="none" xmlns="http://www.w3.org/2000/svg">
<path d="M17.5 41H27V58H17.5V41Z" stroke="white" stroke-width="2"/>
<path d="M37 41H46.5V58H37V41Z" stroke="white" stroke-width="2"/>
<path d="M33 41V58H31V41H32H33Z" stroke="white" stroke-width="2"/>
<path d="M42.8 21.935C42.1891 21.2055 41.3967 20.65 40.5026 20.3246C39.6085 19.9991 38.6444 19.9153 37.7076 20.0814C36.7707 20.2475 35.8942 20.6578 35.1666 21.2708C34.4389 21.8839 33.8858 22.6779 33.563 23.573L32 28L30.432 23.566C30.1077 22.6714 29.5534 21.8779 28.8249 21.2657C28.0964 20.6534 27.2194 20.2439 26.2823 20.0784C25.3452 19.9128 24.381 19.9971 23.4869 20.3228C22.5927 20.6484 21.8001 21.2039 21.1889 21.9333C20.5778 22.6627 20.1695 23.5403 20.0054 24.4776C19.8413 25.415 19.927 26.379 20.254 27.2727C20.581 28.1664 21.1376 28.9581 21.8679 29.5682C22.5982 30.1783 23.4764 30.5853 24.414 30.748L32 32.014L39.594 30.746C40.53 30.5813 41.4061 30.173 42.1343 29.5622C42.8624 28.9513 43.4168 28.1596 43.7418 27.2664C44.0667 26.3733 44.1508 25.4104 43.9855 24.4745C43.8201 23.5386 43.4113 22.6627 42.8 21.935V21.935ZM24.752 28.776C24.1615 28.6722 23.6087 28.4149 23.1491 28.0298C22.6896 27.6447 22.3395 27.1454 22.134 26.5821C21.9285 26.0188 21.875 25.4114 21.9786 24.8209C22.0823 24.2303 22.3396 23.6775 22.7246 23.2179C23.1097 22.7583 23.6089 22.4081 24.1721 22.2025C24.7354 21.997 25.3428 21.9433 25.9333 22.0469C26.5239 22.1505 27.0768 22.4077 27.5365 22.7927C27.9961 23.1776 28.3464 23.6768 28.552 24.24L30.494 29.734L24.752 28.776ZM40.852 28.033C40.3946 28.416 39.8446 28.6719 39.257 28.775L33.51 29.734L35.45 24.248C35.687 23.5898 36.1213 23.0208 36.6936 22.6185C37.266 22.2162 37.9484 22.0002 38.648 22C38.748 22 38.848 22 38.948 22.013C39.6213 22.0715 40.262 22.3284 40.7893 22.7512C41.3165 23.1739 41.7065 23.7436 41.9099 24.388C42.1133 25.0325 42.1209 25.7228 41.9319 26.3716C41.7429 27.0204 41.3657 27.5986 40.848 28.033H40.852Z" fill="white"/>
<path d="M15 32H20.1009C21.2085 32.8784 22.52 33.4653 23.9154 33.7055L23.9154 33.7055L23.9202 33.7063L27 34.2208V37H15V32Z" stroke="white" stroke-width="2"/>
<path d="M31.9736 35.0525L32 35.0532L32.0264 35.0525L33 35.0268V37H31V35.0268L31.9736 35.0525Z" stroke="white" stroke-width="2"/>
<path d="M43.9008 32H49V37H37V34.2214L40.1021 33.7054L40.1021 33.7055L40.1099 33.7041C41.4973 33.462 42.8005 32.8755 43.9008 32Z" stroke="white" stroke-width="2"/>
</svg>
