<svg width="196" height="197" viewBox="0 0 196 197" fill="none" xmlns="http://www.w3.org/2000/svg">
<path d="M13.6111 101.49H76.2222V196.966H13.6111V101.49Z" fill="white"/>
<path d="M119.778 101.49H182.389V196.966H119.778V101.49Z" fill="white"/>
<path d="M156.8 10.711C153.474 7.04529 149.16 4.25393 144.292 2.61856C139.424 0.983189 134.175 0.561665 129.074 1.3965C123.974 2.23134 119.202 4.29301 115.24 7.37352C111.278 10.454 108.267 14.4444 106.509 18.9422L97.9998 41.1883L89.4629 18.907C87.6972 14.4113 84.6793 10.4243 80.713 7.34762C76.7468 4.27091 71.9723 2.21303 66.8702 1.38122C61.7682 0.549412 56.5188 0.973031 51.6505 2.60942C46.7823 4.24582 42.4671 7.03721 39.1396 10.7025C35.812 14.3678 33.5895 18.7777 32.6958 23.488C31.8022 28.1983 32.269 33.0427 34.0492 37.5336C35.8294 42.0244 38.8601 46.003 42.8362 49.0688C46.8124 52.1347 51.5935 54.1794 56.6982 54.9972L97.9998 61.359L139.345 54.9872C144.441 54.1594 149.211 52.1076 153.175 49.0382C157.139 45.9688 160.158 41.99 161.927 37.5021C163.696 33.0141 164.154 28.1753 163.254 23.4723C162.354 18.7693 160.128 14.3679 156.8 10.711V10.711ZM58.5384 45.0877C55.3233 44.5663 52.3136 43.273 49.8116 41.3379C47.3096 39.4027 45.4035 36.8938 44.2849 34.0633C43.1663 31.2328 42.8745 28.1804 43.439 25.2128C44.0034 22.2453 45.4042 19.4671 47.5005 17.1576C49.5968 14.848 52.3148 13.0884 55.3813 12.0555C58.4478 11.0226 61.7549 10.7529 64.9702 11.2734C68.1854 11.7939 71.1956 13.0864 73.6983 15.0208C76.2009 16.9553 78.1078 19.4637 79.2273 22.2939L89.8004 49.9018L58.5384 45.0877ZM146.194 41.3541C143.704 43.2786 140.709 44.5645 137.51 45.0827L106.221 49.9018L116.783 22.3341C118.074 19.0266 120.438 16.1671 123.554 14.1455C126.67 12.1239 130.386 11.0386 134.194 11.0377C134.739 11.0377 135.283 11.0377 135.828 11.103C139.493 11.397 142.982 12.6879 145.852 14.8123C148.723 16.9368 150.846 19.7993 151.953 23.0377C153.061 26.2762 153.103 29.7451 152.074 33.0054C151.044 36.2658 148.991 39.1713 146.172 41.3541H146.194Z" fill="white"/>
<path d="M35.819 56.7659C35.6176 56.6102 35.4433 56.4343 35.2473 56.2634H0V91.4391H76.2222V68.193L54.9072 64.9066C47.8794 63.7901 41.2951 60.982 35.819 56.7659V56.7659Z" fill="white"/>
<path d="M87.1111 196.966H108.889V69.8716L98 71.55L87.1111 69.8716V196.966Z" fill="white"/>
<path d="M160.758 56.2634C160.562 56.4192 160.388 56.5951 160.187 56.7659C154.749 60.9698 148.206 63.776 141.218 64.9016L119.778 68.193V91.4391H196V56.2634H160.758Z" fill="white"/>
</svg>
