<svg width="46" height="46" viewBox="0 0 46 46" fill="none" xmlns="http://www.w3.org/2000/svg">
<g clip-path="url(#clip0_166_5423)">
<path d="M31.625 0.00012207H14.375C6.43713 0.00012207 0 6.43725 0 14.3751V31.6251C0 39.563 6.43713 46.0001 14.375 46.0001H31.625C39.5629 46.0001 46 39.563 46 31.6251V14.3751C46 6.43725 39.5629 0.00012207 31.625 0.00012207ZM41.6875 31.6251C41.6875 37.1739 37.1737 41.6876 31.625 41.6876H14.375C8.82625 41.6876 4.3125 37.1739 4.3125 31.6251V14.3751C4.3125 8.82637 8.82625 4.31262 14.375 4.31262H31.625C37.1737 4.31262 41.6875 8.82637 41.6875 14.3751V31.6251Z" fill="white"/>
<path d="M23 11.5001C16.6491 11.5001 11.5 16.6492 11.5 23.0001C11.5 29.351 16.6491 34.5001 23 34.5001C29.3509 34.5001 34.5 29.351 34.5 23.0001C34.5 16.6492 29.3509 11.5001 23 11.5001ZM23 30.1876C19.0382 30.1876 15.8125 26.9619 15.8125 23.0001C15.8125 19.0355 19.0382 15.8126 23 15.8126C26.9618 15.8126 30.1875 19.0355 30.1875 23.0001C30.1875 26.9619 26.9618 30.1876 23 30.1876Z" fill="white"/>
<path d="M35.3624 12.1701C36.2087 12.1701 36.8947 11.484 36.8947 10.6377C36.8947 9.79141 36.2087 9.10535 35.3624 9.10535C34.5161 9.10535 33.83 9.79141 33.83 10.6377C33.83 11.484 34.5161 12.1701 35.3624 12.1701Z" fill="white"/>
</g>
<defs>
<clipPath id="clip0_166_5423">
<rect width="46" height="46" fill="white" transform="translate(0 0.00012207)"/>
</clipPath>
</defs>
</svg>
