<svg width="64" height="64" viewBox="0 0 64 64" fill="none" xmlns="http://www.w3.org/2000/svg">
<path d="M40.625 9H23.375C15.4371 9 9 15.4371 9 23.375V40.625C9 48.5629 15.4371 55 23.375 55H40.625C48.5629 55 55 48.5629 55 40.625V23.375C55 15.4371 48.5629 9 40.625 9ZM50.6875 40.625C50.6875 46.1737 46.1737 50.6875 40.625 50.6875H23.375C17.8263 50.6875 13.3125 46.1737 13.3125 40.625V23.375C13.3125 17.8263 17.8263 13.3125 23.375 13.3125H40.625C46.1737 13.3125 50.6875 17.8263 50.6875 23.375V40.625Z" fill="white"/>
<path d="M44.3624 21.17C45.2087 21.17 45.8947 20.4839 45.8947 19.6376C45.8947 18.7913 45.2087 18.1052 44.3624 18.1052C43.5161 18.1052 42.83 18.7913 42.83 19.6376C42.83 20.4839 43.5161 21.17 44.3624 21.17Z" fill="white"/>
<path d="M32 20.5C25.6491 20.5 20.5 25.6491 20.5 32C20.5 38.3509 25.6491 43.5 32 43.5C38.3509 43.5 43.5 38.3509 43.5 32C43.5 25.6491 38.3509 20.5 32 20.5ZM32 39.1875C28.0382 39.1875 24.8125 35.9618 24.8125 32C24.8125 28.0354 28.0382 24.8125 32 24.8125C35.9618 24.8125 39.1875 28.0354 39.1875 32C39.1875 35.9618 35.9618 39.1875 32 39.1875Z" fill="white"/>
</svg>
