<svg width="64" height="64" viewBox="0 0 64 64" fill="none" xmlns="http://www.w3.org/2000/svg">
<path d="M9.70143 54.8146H21.6121V23.4939H9.70143V54.8146ZM12.3967 26.1892H18.9168V52.1192H12.3967V26.1892Z" fill="white"/>
<path d="M15.6573 9.18548C11.9863 9.18548 8.99994 12.172 8.99994 15.8428C8.99994 19.5136 11.9863 22.5002 15.6573 22.5002C19.3282 22.5002 22.3147 19.5137 22.3147 15.8428C22.3147 12.1719 19.3281 9.18548 15.6573 9.18548V9.18548ZM11.6953 15.8428C11.6953 13.6582 13.4725 11.8808 15.6573 11.8808C17.842 11.8808 19.6194 13.6581 19.6194 15.8428C19.6194 18.0275 17.842 19.8049 15.6573 19.8049C13.4725 19.8049 11.6953 18.0275 11.6953 15.8428V15.8428Z" fill="white"/>
<path d="M54.9712 33.3288C54.5473 27.2325 49.4622 22.5346 43.1577 22.5346C40.3378 22.5346 37.6758 23.515 35.5784 25.2546V23.4936H24.1656V54.8143H36.0764V37.6843C36.0764 35.7538 37.6469 34.1831 39.5776 34.1831C41.508 34.1831 43.0787 35.7538 43.0787 37.6852L43.0902 54.8144H55V33.3577L54.9712 33.3288ZM33.381 52.1192H26.8609V26.189H32.883V30.0386L35.0397 30.051L35.4404 29.4289C37.134 26.7996 40.019 25.23 43.1577 25.23C48.1743 25.23 52.1909 29.0575 52.302 33.9435L52.3047 52.1192H45.7837L45.774 37.6843C45.774 34.2676 42.9942 31.4878 39.5776 31.4878C36.1608 31.4878 33.381 34.2676 33.381 37.6843V52.1192Z" fill="white"/>
</svg>
