<svg width="62" height="62" viewBox="0 0 62 62" fill="none" xmlns="http://www.w3.org/2000/svg">
<path d="M52.9156 9.08456C40.8037 -3.02734 21.1984 -3.02904 9.08485 9.08456C-3.02705 21.1965 -3.02887 40.8017 9.08485 52.9153C21.1968 65.0272 40.802 65.029 52.9156 52.9153C65.0274 40.8035 65.0292 21.1983 52.9156 9.08456ZM28.3736 40.0513C28.3736 41.4573 27.2338 42.5971 25.8279 42.5971C24.4219 42.5971 23.2822 41.4573 23.2822 40.0513V21.9485C23.2822 20.5426 24.4219 19.4028 25.8279 19.4028C27.2338 19.4028 28.3736 20.5426 28.3736 21.9485V40.0513ZM38.7181 40.0513C38.7181 41.4573 37.5783 42.5971 36.1723 42.5971C34.7664 42.5971 33.6266 41.4573 33.6266 40.0513V21.9485C33.6266 20.5426 34.7664 19.4028 36.1723 19.4028C37.5783 19.4028 38.7181 20.5426 38.7181 21.9485V40.0513Z" fill="white"/>
</svg>
