<svg xmlns="http://www.w3.org/2000/svg" fill="none" viewBox="0 0 64 64">
  <path fill="#fff" d="M52.9156 9.08456c-12.1119-12.1119-31.7172-12.1136-43.83075 0-12.1119 12.11194-12.11372 31.71714 0 43.83074 12.11195 12.1119 31.71715 12.1137 43.83075 0 12.1118-12.1118 12.1136-31.717 0-43.83074ZM28.3736 40.0513c0 1.406-1.1398 2.5458-2.5457 2.5458-1.406 0-2.5457-1.1398-2.5457-2.5458V21.9485c0-1.4059 1.1397-2.5457 2.5457-2.5457 1.4059 0 2.5457 1.1398 2.5457 2.5457v18.1028Zm10.3445 0c0 1.406-1.1398 2.5458-2.5458 2.5458-1.4059 0-2.5457-1.1398-2.5457-2.5458V21.9485c0-1.4059 1.1398-2.5457 2.5457-2.5457 1.406 0 2.5458 1.1398 2.5458 2.5457v18.1028Z"/>
</svg>
