<svg width="64" height="64" viewBox="0 0 64 64" fill="none" xmlns="http://www.w3.org/2000/svg">
<g clip-path="url(#clip0_18_43)">
<path d="M44.207 40.4272C40.9364 37.8768 36.6011 36.4723 31.9997 36.4723C27.3984 36.4723 23.0631 37.8768 19.7925 40.4272C16.4528 43.0313 14.6137 46.5149 14.6137 50.2362C14.6137 53.9575 16.4528 57.4411 19.7925 60.0452C23.063 62.5956 27.3983 64.0001 31.9997 64.0001C36.6011 64.0001 40.9364 62.5956 44.207 60.0452C47.5467 57.4411 49.3858 53.9575 49.3858 50.2362C49.3858 46.5149 47.5467 43.0313 44.207 40.4272ZM31.9999 53.6183C28.5199 53.6183 25.6887 50.7871 25.6887 47.3071C25.6887 43.8272 28.5199 40.996 31.9999 40.996C35.4798 40.996 38.3109 43.8272 38.3109 47.3071C38.3109 50.7871 35.4797 53.6183 31.9999 53.6183V53.6183Z" fill="white"/>
<path d="M31.9998 44.7515C30.5905 44.7515 29.444 45.898 29.444 47.3073C29.444 48.7165 30.5905 49.863 31.9998 49.863C33.4091 49.863 34.5554 48.7165 34.5554 47.3073C34.5554 45.898 33.4089 44.7515 31.9998 44.7515Z" fill="white"/>
<path d="M51.1537 21.8224C50.6274 21.6318 45.9266 20.0056 42.9255 21.6244C41.8226 22.2191 41.0356 22.9423 40.5133 23.7268C39.8822 23.2081 39.2031 22.7464 38.484 22.3482L41.1741 14.5818L44.655 14.7578C47.0665 14.8766 47.2691 11.1299 44.8448 11.0073L42.4542 10.8863L43.5574 7.70166C43.7222 7.22436 43.6848 6.68196 43.455 6.23219L40.7763 0.994101C39.6762 -1.15671 36.3295 0.546338 37.4326 2.70379L39.0839 5.93289L35.8964 6.88362C33.5866 7.57248 34.6416 11.1772 36.9697 10.4823L38.81 9.93335L34.9739 21.0081C34.0169 20.791 33.0216 20.6757 31.9997 20.6757C30.9779 20.6757 29.9826 20.791 29.0256 21.0081L25.1895 9.93335L27.0298 10.4823C29.3501 11.1744 30.42 7.57461 28.1032 6.88362L24.9158 5.93289L26.567 2.70379C27.6669 0.552722 24.3267 -1.1631 23.2234 0.994101L20.5621 6.19865C20.5619 6.1989 20.5618 6.19915 20.5617 6.1994L20.5448 6.23244C20.3148 6.68184 20.2769 7.22473 20.4423 7.70191L21.5455 10.8866L19.1549 11.0075C16.7366 11.1298 16.9273 14.8771 19.3447 14.7581L22.8255 14.5821L25.5158 22.3484C24.7942 22.748 24.1128 23.2115 23.48 23.7323C23.0064 23.0204 22.259 22.2634 21.0744 21.6245C18.0731 20.0056 13.3722 21.6318 12.8462 21.8225C11.9489 22.1478 11.4383 23.0944 11.6595 24.0228C11.7892 24.5672 13.0128 29.3885 16.014 31.0071C17.0477 31.5647 17.9741 31.7951 18.7616 31.848C18.6369 32.5819 18.571 33.3357 18.571 34.1046V36.6746C22.3392 34.1146 27.0541 32.717 32 32.717C36.9459 32.717 41.6608 34.1146 45.429 36.6747V34.1046C45.429 33.3356 45.3632 32.5819 45.2384 31.848C46.0259 31.7951 46.9523 31.5646 47.9858 31.007C50.9871 29.3883 52.2107 24.5671 52.3404 24.0227C52.5614 23.0942 52.051 22.1476 51.1537 21.8224C50.6274 21.6318 52.051 22.1476 51.1537 21.8224V21.8224ZM28.3697 31.0155C27.4364 31.0155 26.6798 30.259 26.6798 29.3256C26.6798 28.3923 27.4364 27.6357 28.3697 27.6357C29.303 27.6357 30.0596 28.3923 30.0596 29.3256C30.0596 30.259 29.3029 31.0155 28.3697 31.0155ZM35.6301 31.0155C34.6967 31.0155 33.9401 30.259 33.9401 29.3256C33.9401 28.3923 34.6967 27.6357 35.6301 27.6357C36.5634 27.6357 37.32 28.3923 37.32 29.3256C37.32 30.259 36.5633 31.0155 35.6301 31.0155Z" fill="white"/>
</g>
<defs>
<clipPath id="clip0_18_43">
<rect width="64" height="64" fill="white"/>
</clipPath>
</defs>
</svg>
