<svg width="196" height="196" viewBox="0 0 196 196" fill="none" xmlns="http://www.w3.org/2000/svg">
<g clip-path="url(#clip0_0_3558)">
<path d="M135.384 123.808C125.368 115.998 112.091 111.696 97.9994 111.696C83.9079 111.696 70.631 115.998 60.6146 123.808C50.387 131.783 44.7546 142.452 44.7546 153.848C44.7546 165.245 50.387 175.913 60.6146 183.888C70.6306 191.699 83.9075 196 97.9994 196C112.091 196 125.368 191.699 135.384 183.888C145.612 175.913 151.244 165.245 151.244 153.848C151.244 142.452 145.612 131.783 135.384 123.808ZM97.9998 164.206C87.3424 164.206 78.6719 155.535 78.6719 144.878C78.6719 134.221 87.3424 125.55 97.9998 125.55C108.657 125.55 117.327 134.221 117.327 144.878C117.327 155.535 108.657 164.206 97.9998 164.206Z" fill="white"/>
<path d="M97.9995 137.051C93.6836 137.051 90.1724 140.562 90.1724 144.878C90.1724 149.194 93.6836 152.705 97.9995 152.705C102.315 152.705 105.826 149.194 105.826 144.878C105.826 140.562 102.315 137.051 97.9995 137.051Z" fill="white"/>
<path d="M156.658 66.831C155.047 66.2472 140.65 61.267 131.459 66.2246C128.082 68.0459 125.672 70.2606 124.072 72.6631C122.139 71.0748 120.06 69.6606 117.857 68.4412L126.096 44.6568L136.756 45.1958C144.141 45.5596 144.762 34.0853 137.337 33.7096L130.016 33.3393L133.395 23.5862C133.899 22.1245 133.785 20.4634 133.081 19.086L124.877 3.04431C121.508 -3.54256 111.259 1.67304 114.638 8.28023L119.694 18.1694L109.933 21.081C102.859 23.1906 106.09 34.2302 113.22 32.1018L118.856 30.4207L107.108 64.3373C104.177 63.6722 101.129 63.3191 97.9994 63.3191C94.87 63.3191 91.8219 63.6722 88.8911 64.3373L77.1431 30.4207L82.7789 32.1018C89.8848 34.2214 93.1614 23.1971 86.0662 21.081L76.3047 18.1694L81.3616 8.28023C84.7302 1.69259 74.5006 -3.56211 71.1217 3.04431L62.9715 18.9832C62.9711 18.984 62.9707 18.9848 62.9703 18.9855L62.9186 19.0867C62.2143 20.463 62.0982 22.1256 62.6046 23.587L65.9831 33.34L58.6621 33.7104C51.256 34.0849 51.8399 45.5611 59.2433 45.1966L69.9034 44.6576L78.1421 68.4419C75.9324 69.6656 73.8454 71.0852 71.9076 72.68C70.4573 70.4998 68.1683 68.1816 64.5406 66.225C55.3491 61.267 40.9525 66.2472 39.3416 66.8314C36.5937 67.8274 35.03 70.7264 35.7073 73.5697C36.1045 75.237 39.8518 90.002 49.0429 94.9593C52.2087 96.6667 55.0459 97.3725 57.4576 97.5343C57.0758 99.7819 56.8738 102.09 56.8738 104.445V112.316C68.414 104.476 82.8532 100.196 98.0001 100.196C113.147 100.196 127.586 104.476 139.127 112.316V104.445C139.127 102.09 138.925 99.7819 138.543 97.5343C140.954 97.3725 143.792 96.6663 146.957 94.9589C156.148 90.0016 159.895 75.2366 160.293 73.5693C160.97 70.726 159.406 67.827 156.658 66.831C159.406 67.827 155.047 66.2472 156.658 66.831ZM86.8823 94.9849C84.024 94.9849 81.707 92.6679 81.707 89.8096C81.707 86.9513 84.024 84.6342 86.8823 84.6342C89.7407 84.6342 92.0577 86.9513 92.0577 89.8096C92.0577 92.6679 89.7403 94.9849 86.8823 94.9849ZM109.117 94.9849C106.259 94.9849 103.942 92.6679 103.942 89.8096C103.942 86.9513 106.259 84.6342 109.117 84.6342C111.975 84.6342 114.293 86.9513 114.293 89.8096C114.293 92.6679 111.975 94.9849 109.117 94.9849Z" fill="white"/>
</g>
<defs>
<clipPath id="clip0_0_3558">
<rect width="196" height="196" fill="white"/>
</clipPath>
</defs>
</svg>
