<svg width="64" height="64" viewBox="0 0 64 64" fill="none" xmlns="http://www.w3.org/2000/svg">
<path d="M63.2048 33.841C61.5582 30.5474 57.7157 29.5168 54.8704 31.2644C54.7696 30.4018 54.6015 29.5504 54.4223 28.7327C54.4223 28.5982 54.3887 28.419 54.2878 28.251C51.0728 16.186 37.8652 9.29653 25.6993 12.7917C15.6171 15.6707 2.83523 25.1367 2.42074 36.5856C2.35353 36.7873 2.35353 37 2.42074 37.168C2.42074 38.0306 2.48796 38.9157 2.62239 39.7783C0.19147 42.6572 -1.22003 46.6678 1.42373 49.8941C3.82104 52.8067 9.44463 52.1569 12.6037 51.7761C18.7426 51.0927 24.1533 49.9277 30.4267 50.443C36.7672 50.9919 45.001 51.8433 49.4819 46.2981C52.4283 42.635 49.5827 38.7925 46.1212 37.1459C45.1914 33.0682 41.7971 29.8082 38.0332 27.8926C43.444 26.8956 49.3139 27.9598 52.2265 33.0682C50.7479 34.1324 50.5799 36.9106 51.2631 38.6918C52.4618 41.9517 55.7889 44.517 59.3512 43.4192C63.4738 42.0971 65.1205 37.605 63.2048 33.841ZM47.264 45.7716C43.7352 50.1628 35.199 48.6842 30.3596 48.2361C26.3155 47.8887 22.3387 47.6536 18.3618 48.5048C12.4358 49.7707 -3.9533 51.832 4.13482 40.6185C4.13482 40.5848 4.13482 40.5848 4.16842 40.5512C8.66058 37.3921 20.0086 40.3831 24.2207 40.932C26.8644 41.2793 29.5642 41.7498 32.2081 41.5482C34.0565 41.3801 35.9832 40.4503 37.6972 39.8678C38.6606 39.5204 39.6128 39.2517 40.5761 39.0052C43.3543 38.266 52.3722 39.4645 47.264 45.7716ZM58.3991 41.2793C56.1026 41.9963 54.2206 39.9126 53.3244 38.053C52.5403 36.4399 52.6746 35.006 53.9069 34.0762C54.1757 34.1434 54.4894 34.1098 54.7583 33.8409C57.122 31.746 59.7658 32.1269 61.3004 34.9388C62.7567 37.605 61.1101 40.4167 58.3991 41.2793Z" fill="white"/>
</svg>
