<svg width="64" height="64" viewBox="0 0 64 64" fill="none" xmlns="http://www.w3.org/2000/svg">
<path d="M47.1119 21.4821H34.9747C34.9421 21.4821 34.9127 21.4821 34.88 21.4755C34.8474 21.4723 34.8147 21.4657 34.7821 21.4625C34.707 21.4494 34.6351 21.4331 34.5633 21.4102C34.4621 21.3743 34.3674 21.3253 34.2792 21.2698C34.2172 21.2274 34.1584 21.1817 34.1061 21.1261C34.08 21.1 34.0539 21.0739 34.031 21.0478C34.0115 21.0249 33.9919 21.0021 33.9755 20.9759C33.9494 20.9433 33.9233 20.9074 33.9037 20.8715C33.8874 20.8453 33.8743 20.8225 33.8612 20.7964C33.8417 20.7572 33.8221 20.7147 33.809 20.6723C33.7959 20.6429 33.7861 20.6102 33.7764 20.5776C33.7666 20.5482 33.76 20.5155 33.7535 20.4829C33.747 20.4535 33.7404 20.4241 33.7404 20.3915C33.7306 20.3392 33.7274 20.287 33.7274 20.2315C33.7274 19.8886 33.8678 19.5751 34.0931 19.3498C34.3151 19.1213 34.6286 18.9808 34.9747 18.9808H45.7078C45.44 15.7972 44.1568 12.7441 42.0278 10.2657C41.5772 9.74003 41.6359 8.95309 42.1617 8.50248C42.4359 8.26411 42.7853 8.16941 43.1217 8.21186C43.1576 8.21513 43.1935 8.21839 43.2294 8.22819C43.2327 8.22819 43.2392 8.22819 43.2425 8.23145C43.2817 8.23799 43.3241 8.24778 43.3633 8.26411C43.3927 8.2739 43.4221 8.2837 43.4515 8.29676C43.4743 8.30329 43.5004 8.31635 43.5233 8.32941C43.6735 8.39799 43.8106 8.50248 43.9249 8.63635C44.1666 8.91717 44.3984 9.20452 44.6204 9.49513C44.8425 9.78901 45.0547 10.0861 45.2572 10.3931C45.3584 10.5433 45.4564 10.6968 45.5543 10.8535C45.8449 11.3172 46.1127 11.7939 46.3576 12.2804C46.7951 12.0715 47.2359 11.8625 47.68 11.647C48.1241 11.4315 48.5747 11.2094 49.0221 10.9874C48.5519 10.1351 48.2841 9.16207 48.2841 8.12696C48.2841 7.53268 48.3755 6.95799 48.5388 6.41594C48.2906 6.2886 48.0392 6.16452 47.7845 6.04697C47.5494 5.92941 47.3143 5.82166 47.0759 5.7139C46.9649 5.66492 46.8506 5.61268 46.7364 5.5637C46.1845 5.32207 45.6229 5.09676 45.058 4.88452C44.8849 4.81594 44.7119 4.7539 44.5355 4.69186C44.4343 4.65594 44.3331 4.62003 44.2319 4.58411C44 4.50248 43.7715 4.42737 43.5396 4.35227C43.5102 4.34248 43.4808 4.33268 43.4515 4.32615C43.2164 4.24778 42.9812 4.17594 42.7461 4.10411C42.7364 4.10084 42.7233 4.09758 42.7135 4.09431C42.5796 4.05513 42.4457 4.01594 42.3119 3.98003C42.2661 3.9637 42.2237 3.9539 42.178 3.94084C41.9396 3.87227 41.698 3.80697 41.4596 3.74819C41.0482 3.64043 40.6368 3.53921 40.2221 3.45105C40.1143 3.42492 40.0033 3.40207 39.8955 3.37921C39.6735 3.33023 39.4547 3.28778 39.2327 3.24533C39.151 3.22901 39.0727 3.21268 38.991 3.19962C38.8115 3.16697 38.6319 3.13431 38.4555 3.10492C38.2988 3.0788 38.1421 3.05268 37.9886 3.02982C37.7763 2.9939 37.5641 2.96452 37.3519 2.93513C37.058 2.89594 36.7641 2.85676 36.4735 2.82411C35.8857 2.7588 35.298 2.70982 34.7168 2.6739C34.387 2.65431 34.0572 2.63799 33.7274 2.62819C28.8098 2.47472 24.1568 3.42819 20.6139 5.52452C17.3812 7.43799 15.1315 10.2266 13.9364 13.7466C13.8286 14.0666 13.7306 14.3898 13.6392 14.7229C13.5935 14.8894 13.5478 15.0559 13.5086 15.2257C13.4368 15.5294 13.3682 15.8396 13.3094 16.1531C13.2343 16.5351 13.1723 16.927 13.1233 17.3221C13.0776 17.6649 13.0417 18.0176 13.0123 18.3735C12.9959 18.5727 12.9829 18.7751 12.9731 18.9808H23.7257V18.9841C24.418 18.9841 24.9764 19.5425 24.9764 20.2315C24.9764 20.9237 24.418 21.4821 23.7257 21.4821H11.5886C11.2653 21.4821 10.9747 21.6127 10.7625 21.8249C10.5502 22.0372 10.4196 22.331 10.4196 22.6543V25.0739C10.4196 25.3972 10.5502 25.691 10.7625 25.9033C10.9747 26.1155 11.2653 26.2461 11.5886 26.2461H47.1119C47.7584 26.2461 48.2841 25.7204 48.2841 25.0739V22.6543C48.2841 22.0078 47.7584 21.4821 47.1119 21.4821ZM29.3519 21.4821C28.8882 21.4821 28.4833 21.2306 28.2678 20.8551C28.2515 20.8257 28.2351 20.7996 28.2221 20.7702C28.1698 20.6592 28.1306 20.5384 28.1143 20.4078C28.111 20.3882 28.1078 20.3653 28.1078 20.3425C28.1045 20.3066 28.1012 20.2706 28.1012 20.2315C28.1012 19.8886 28.2417 19.5751 28.467 19.3498C28.689 19.1213 29.0057 18.9808 29.3519 18.9808C29.4368 18.9808 29.5217 18.9906 29.6033 19.007C29.6425 19.0168 29.6849 19.0266 29.7208 19.0396C29.7633 19.0494 29.7992 19.0625 29.8384 19.0821C29.8743 19.0951 29.9135 19.1147 29.9461 19.1343C29.9821 19.1506 30.018 19.1735 30.0506 19.1964C30.2531 19.3335 30.4164 19.5294 30.511 19.7613C30.5241 19.7939 30.5372 19.8266 30.547 19.8592V19.8657C30.56 19.9017 30.5698 19.9408 30.5764 19.98C30.5829 20.0029 30.5861 20.029 30.5894 20.0551C30.5927 20.078 30.5959 20.0976 30.5959 20.1204C30.5992 20.1564 30.6025 20.1955 30.6025 20.2315C30.6025 20.9237 30.0408 21.4821 29.3519 21.4821Z" fill="white"/>
<path d="M43.1771 28.7441H15.5265C15.2947 31.9441 15.3208 35.3727 16.7478 36.411C16.8914 36.5155 17.058 36.6037 17.2441 36.669C17.2996 36.6886 17.3584 36.7082 17.4171 36.7245C17.4237 36.7278 17.4335 36.731 17.4433 36.731C17.5706 36.767 17.7078 36.7931 17.8547 36.8127C17.8645 36.8159 17.871 36.8159 17.8808 36.8159C17.9527 36.8257 18.0245 36.8323 18.1029 36.8388C18.1812 36.8453 18.2661 36.8486 18.351 36.8519C19.3078 36.8715 20.5551 36.6364 22.08 36.1433C22.5208 35.9996 22.9845 35.8364 23.471 35.6535C23.9576 35.4674 24.4702 35.2617 25.0024 35.0364C26.3739 34.4519 27.8367 34.1547 29.3518 34.1547C30.8637 34.1547 32.3265 34.4519 33.7012 35.0364C34.2335 35.2649 34.7461 35.4706 35.2327 35.6535C35.7192 35.8364 36.1829 35.9996 36.6204 36.1433C38.1486 36.6364 39.3927 36.8715 40.3494 36.8519C40.4343 36.8486 40.5192 36.8453 40.6008 36.8388C40.6727 36.8355 40.7445 36.8257 40.8131 36.8192C40.8294 36.8159 40.8457 36.8159 40.8588 36.8127C40.9959 36.7931 41.1265 36.767 41.2473 36.7343C41.2767 36.7278 41.2996 36.7213 41.3257 36.7115C41.3714 36.6984 41.4139 36.6853 41.4563 36.669C41.6457 36.6037 41.8122 36.5155 41.9559 36.411C43.3796 35.3727 43.409 31.9441 43.1771 28.7441ZM21.8514 34.1547C21.1592 34.1547 20.6008 33.5931 20.6008 32.9041C20.6008 32.558 20.7412 32.2478 20.9665 32.0192C21.1918 31.7939 21.5053 31.6535 21.8514 31.6535C22.5404 31.6535 23.102 32.2151 23.102 32.9041C23.102 33.5931 22.5404 34.1547 21.8514 34.1547ZM36.8522 34.1547C36.16 34.1547 35.6016 33.5931 35.6016 32.9041C35.6016 32.2151 36.16 31.6535 36.849 31.6535H36.8522C37.5412 31.6535 38.1029 32.2151 38.1029 32.9041C38.1029 33.5931 37.5412 34.1547 36.8522 34.1547Z" fill="white"/>
<path d="M52.8261 32.1564C52.8261 30.2755 51.2098 28.7474 49.2212 28.7474H48.9861C49.6751 30.6543 50.067 33.0837 50.2139 35.4347C51.7192 35.0233 52.8261 33.7106 52.8261 32.1564Z" fill="white"/>
<path d="M5.87756 32.1564C5.87756 33.7106 6.98124 35.0233 8.48981 35.4347C8.63675 33.0837 9.02858 30.6543 9.71756 28.7474H9.48573C7.49389 28.7441 5.87756 30.2755 5.87756 32.1564Z" fill="white"/>
<path d="M50.7853 8.12696C50.7853 10.109 52.4865 11.7188 54.5796 11.7188C56.6727 11.7188 58.3739 10.109 58.3739 8.12696C58.3739 6.269 56.8784 4.73757 54.9649 4.55472C54.8376 4.54166 54.7069 4.53513 54.5763 4.53513C52.4865 4.53513 50.7853 6.14492 50.7853 8.12696Z" fill="white"/>
<path d="M48.7902 43.6208C48.271 42.4486 47.68 41.1164 47.7649 38.4878C47.889 34.6543 47.2882 30.798 46.2825 28.7441H45.6817C46.0017 33.3939 45.6588 36.8094 43.4253 38.4323C42.5829 39.0429 41.5413 39.3531 40.2482 39.3531C38.3445 39.3531 35.8923 38.687 32.7217 37.3351C31.6604 36.8845 30.5241 36.6559 29.3519 36.6559C28.1764 36.6559 27.0433 36.8845 25.9788 37.3351C22.8082 38.687 20.3559 39.3531 18.4523 39.3531C18.1649 39.3531 17.8906 39.3368 17.6261 39.3041C17.4792 39.2878 17.3388 39.2682 17.2017 39.2421C17.1298 39.229 17.058 39.2127 16.9894 39.1996C16.9698 39.1931 16.9535 39.1898 16.9372 39.1866C16.8555 39.167 16.7739 39.1441 16.6955 39.1213C16.5617 39.0821 16.4343 39.0396 16.3102 38.9906C16.2253 38.958 16.1437 38.9253 16.0653 38.8894C16.0588 38.8862 16.0523 38.8862 16.049 38.8829C15.9837 38.8535 15.9184 38.8208 15.8564 38.7882C15.827 38.7751 15.8008 38.7588 15.7715 38.7425C15.7453 38.7327 15.7225 38.7196 15.6996 38.7033C15.6408 38.6706 15.5853 38.638 15.5266 38.6021C15.5233 38.5988 15.52 38.5988 15.52 38.5955C15.4384 38.5466 15.3568 38.491 15.2751 38.4323C13.0417 36.8094 12.6988 33.3939 13.0188 28.7441H12.4213C11.4123 30.798 10.8115 34.6543 10.9355 38.4878C11.0106 40.8127 10.56 42.1221 10.0964 43.2029C10.0376 43.3466 9.97554 43.4837 9.9135 43.6208C9.7535 43.98 9.60656 44.3098 9.48574 44.6592C9.28656 45.247 9.15594 45.8935 9.15594 46.8372C9.15594 51.1898 12.8719 54.7327 17.4368 54.7327C18.9649 54.7327 20.2678 55.2388 21.169 56.1564C21.2441 56.2315 21.3192 56.3098 21.3878 56.3947C21.5282 56.558 21.6555 56.7343 21.7698 56.9204C21.8286 57.0151 21.8808 57.1098 21.9331 57.2078C23.3437 59.9115 26.1878 61.5931 29.3519 61.5931C32.5159 61.5931 35.3568 59.9115 36.7674 57.2078C37.5902 55.6339 39.2294 54.7327 41.2637 54.7327C45.8319 54.7327 49.5445 51.1898 49.5445 46.8372C49.5445 45.3286 49.2115 44.5743 48.7902 43.6208ZM34.1845 41.4396C33.1886 43.1604 31.3372 44.2315 29.3519 44.2315C27.3633 44.2315 25.5119 43.1604 24.5192 41.4396C24.1731 40.8421 24.3788 40.078 24.9764 39.7319C25.1233 39.647 25.28 39.5947 25.4368 39.5751C25.489 39.5686 25.5445 39.5653 25.5968 39.5653C25.6425 39.5653 25.6915 39.5686 25.7372 39.5751C25.7568 39.5751 25.7764 39.5784 25.7992 39.5817C25.8384 39.5882 25.8776 39.598 25.9168 39.6078C25.9559 39.6176 25.9951 39.6306 26.031 39.6437C26.0506 39.6502 26.0702 39.6568 26.0898 39.6666C26.1584 39.6959 26.2237 39.7319 26.289 39.7743C26.338 39.807 26.387 39.8429 26.4327 39.8853C26.4392 39.8886 26.4457 39.8951 26.4523 39.9017C26.4817 39.9278 26.5078 39.9572 26.5339 39.9866C26.5633 40.0159 26.5894 40.0486 26.6123 40.0845C26.6384 40.1172 26.6613 40.1531 26.6841 40.1923C27.2327 41.1392 28.2547 41.7302 29.3519 41.7302C30.449 41.7302 31.471 41.1392 32.0196 40.1923C32.0849 40.078 32.1633 39.98 32.2547 39.8984C32.2808 39.8723 32.3102 39.8494 32.3396 39.8233C32.3755 39.7972 32.4147 39.7711 32.4539 39.7482C32.4866 39.7253 32.5225 39.709 32.5584 39.6927C32.5682 39.6829 32.5813 39.6796 32.5943 39.6731C32.6172 39.6633 32.6433 39.6535 32.6694 39.6437C32.7021 39.6306 32.7347 39.6208 32.7674 39.611C32.7837 39.6078 32.7968 39.6013 32.8098 39.6013C32.8392 39.5947 32.8686 39.5882 32.898 39.5849C32.9241 39.5784 32.9535 39.5751 32.9829 39.5719C32.9927 39.5686 33.0025 39.5686 33.0123 39.5686C33.0417 39.5653 33.071 39.5653 33.0972 39.5653C33.1527 39.5653 33.2049 39.5686 33.2604 39.5751C33.4041 39.5947 33.5445 39.6372 33.6751 39.709C33.6915 39.7123 33.7078 39.7221 33.7241 39.7319C33.8253 39.7906 33.9135 39.8592 33.9919 39.9376C34.031 39.9768 34.067 40.0192 34.0996 40.0617C34.1649 40.1498 34.2204 40.2445 34.2596 40.3457C34.4 40.6886 34.3837 41.0935 34.1845 41.4396Z" fill="white"/>
</svg>
