<svg width="196" height="196" viewBox="0 0 196 196" fill="none" xmlns="http://www.w3.org/2000/svg">
<path d="M144.28 65.7901H107.11C107.01 65.7901 106.92 65.7901 106.82 65.7701C106.72 65.7601 106.62 65.7401 106.52 65.7301C106.29 65.6901 106.07 65.6401 105.85 65.5701C105.54 65.4601 105.25 65.3101 104.98 65.1401C104.79 65.0101 104.61 64.8701 104.45 64.7001C104.37 64.6201 104.29 64.5401 104.22 64.4601C104.16 64.3901 104.1 64.3201 104.05 64.2401C103.97 64.1401 103.89 64.0301 103.83 63.9201C103.78 63.8401 103.74 63.7701 103.7 63.6901C103.64 63.5701 103.58 63.4401 103.54 63.3101C103.5 63.2201 103.47 63.1201 103.44 63.0201C103.41 62.9301 103.39 62.8301 103.37 62.7301C103.35 62.6401 103.33 62.5501 103.33 62.4501C103.3 62.2901 103.29 62.1301 103.29 61.9601C103.29 60.9101 103.72 59.9501 104.41 59.2601C105.09 58.5601 106.05 58.1301 107.11 58.1301H139.98C139.16 48.3801 135.23 39.0301 128.71 31.4401C127.33 29.8301 127.51 27.4201 129.12 26.0401C129.96 25.3101 131.03 25.0201 132.06 25.1501C132.17 25.1601 132.28 25.1701 132.39 25.2001C132.4 25.2001 132.42 25.2001 132.43 25.2101C132.55 25.2301 132.68 25.2601 132.8 25.3101C132.89 25.3401 132.98 25.3701 133.07 25.4101C133.14 25.4301 133.22 25.4701 133.29 25.5101C133.75 25.7201 134.17 26.0401 134.52 26.4501C135.26 27.3101 135.97 28.1901 136.65 29.0801C137.33 29.9801 137.98 30.8901 138.6 31.8301C138.91 32.2901 139.21 32.7601 139.51 33.2401C140.4 34.6601 141.22 36.1201 141.97 37.6101C143.31 36.9701 144.66 36.3301 146.02 35.6701C147.38 35.0101 148.76 34.3301 150.13 33.6501C148.69 31.0401 147.87 28.0601 147.87 24.8901C147.87 23.0701 148.15 21.3101 148.65 19.6501C147.89 19.2601 147.12 18.8801 146.34 18.5201C145.62 18.1601 144.9 17.8301 144.17 17.5001C143.83 17.3501 143.48 17.1901 143.13 17.0401C141.44 16.3001 139.72 15.6101 137.99 14.9601C137.46 14.7501 136.93 14.5601 136.39 14.3701C136.08 14.2601 135.77 14.1501 135.46 14.0401C134.75 13.7901 134.05 13.5601 133.34 13.3301C133.25 13.3001 133.16 13.2701 133.07 13.2501C132.35 13.0101 131.63 12.7901 130.91 12.5701C130.88 12.5601 130.84 12.5501 130.81 12.5401C130.4 12.4201 129.99 12.3001 129.58 12.1901C129.44 12.1401 129.31 12.1101 129.17 12.0701C128.44 11.8601 127.7 11.6601 126.97 11.4801C125.71 11.1501 124.45 10.8401 123.18 10.5701C122.85 10.4901 122.51 10.4201 122.18 10.3501C121.5 10.2001 120.83 10.0701 120.15 9.94006C119.9 9.89006 119.66 9.84006 119.41 9.80006C118.86 9.70006 118.31 9.60006 117.77 9.51006C117.29 9.43006 116.81 9.35006 116.34 9.28006C115.69 9.17006 115.04 9.08006 114.39 8.99006C113.49 8.87006 112.59 8.75006 111.7 8.65006C109.9 8.45006 108.1 8.30006 106.32 8.19006C105.31 8.13006 104.3 8.08006 103.29 8.05006C88.2299 7.58006 73.9799 10.5001 63.1299 16.9201C53.2299 22.7801 46.3399 31.3201 42.6799 42.1001C42.3499 43.0801 42.0499 44.0701 41.7699 45.0901C41.6299 45.6001 41.4899 46.1101 41.3699 46.6301C41.1499 47.5601 40.9399 48.5101 40.7599 49.4701C40.5299 50.6401 40.3399 51.8401 40.1899 53.0501C40.0499 54.1001 39.9399 55.1801 39.8499 56.2701C39.7999 56.8801 39.7599 57.5001 39.7299 58.1301H72.6599V58.1401C74.7799 58.1401 76.4899 59.8501 76.4899 61.9601C76.4899 64.0801 74.7799 65.7901 72.6599 65.7901H35.4899C34.4999 65.7901 33.6099 66.1901 32.9599 66.8401C32.3099 67.4901 31.9099 68.3901 31.9099 69.3801V76.7901C31.9099 77.7801 32.3099 78.6801 32.9599 79.3301C33.6099 79.9801 34.4999 80.3801 35.4899 80.3801H144.28C146.26 80.3801 147.87 78.7701 147.87 76.7901V69.3801C147.87 67.4001 146.26 65.7901 144.28 65.7901ZM89.8899 65.7901C88.4699 65.7901 87.2299 65.0201 86.5699 63.8701C86.5199 63.7801 86.4699 63.7001 86.4299 63.6101C86.2699 63.2701 86.1499 62.9001 86.0999 62.5001C86.0899 62.4401 86.0799 62.3701 86.0799 62.3001C86.0699 62.1901 86.0599 62.0801 86.0599 61.9601C86.0599 60.9101 86.4899 59.9501 87.1799 59.2601C87.8599 58.5601 88.8299 58.1301 89.8899 58.1301C90.1499 58.1301 90.4099 58.1601 90.6599 58.2101C90.7799 58.2401 90.9099 58.2701 91.0199 58.3101C91.1499 58.3401 91.2599 58.3801 91.3799 58.4401C91.4899 58.4801 91.6099 58.5401 91.7099 58.6001C91.8199 58.6501 91.9299 58.7201 92.0299 58.7901C92.6499 59.2101 93.1499 59.8101 93.4399 60.5201C93.4799 60.6201 93.5199 60.7201 93.5499 60.8201V60.8401C93.5899 60.9501 93.6199 61.0701 93.6399 61.1901C93.6599 61.2601 93.6699 61.3401 93.6799 61.4201C93.6899 61.4901 93.6999 61.5501 93.6999 61.6201C93.7099 61.7301 93.7199 61.8501 93.7199 61.9601C93.7199 64.0801 91.9999 65.7901 89.8899 65.7901Z" fill="white"/>
<path d="M132.23 88.03H47.5501C46.8401 97.83 46.9201 108.33 51.2901 111.51C51.7301 111.83 52.2401 112.1 52.8101 112.3C52.9801 112.36 53.1601 112.42 53.3401 112.47C53.3601 112.48 53.3901 112.49 53.4201 112.49C53.8101 112.6 54.2301 112.68 54.6801 112.74C54.7101 112.75 54.7301 112.75 54.7601 112.75C54.9801 112.78 55.2001 112.8 55.4401 112.82C55.6801 112.84 55.9401 112.85 56.2001 112.86C59.1301 112.92 62.9501 112.2 67.6201 110.69C68.9701 110.25 70.3901 109.75 71.8801 109.19C73.3701 108.62 74.9401 107.99 76.5701 107.3C80.7701 105.51 85.2501 104.6 89.8901 104.6C94.5201 104.6 99.0001 105.51 103.21 107.3C104.84 108 106.41 108.63 107.9 109.19C109.39 109.75 110.81 110.25 112.15 110.69C116.83 112.2 120.64 112.92 123.57 112.86C123.83 112.85 124.09 112.84 124.34 112.82C124.56 112.81 124.78 112.78 124.99 112.76C125.04 112.75 125.09 112.75 125.13 112.74C125.55 112.68 125.95 112.6 126.32 112.5C126.41 112.48 126.48 112.46 126.56 112.43C126.7 112.39 126.83 112.35 126.96 112.3C127.54 112.1 128.05 111.83 128.49 111.51C132.85 108.33 132.94 97.83 132.23 88.03ZM66.9201 104.6C64.8001 104.6 63.0901 102.88 63.0901 100.77C63.0901 99.71 63.5201 98.76 64.2101 98.06C64.9001 97.37 65.8601 96.94 66.9201 96.94C69.0301 96.94 70.7501 98.66 70.7501 100.77C70.7501 102.88 69.0301 104.6 66.9201 104.6ZM112.86 104.6C110.74 104.6 109.03 102.88 109.03 100.77C109.03 98.66 110.74 96.94 112.85 96.94H112.86C114.97 96.94 116.69 98.66 116.69 100.77C116.69 102.88 114.97 104.6 112.86 104.6Z" fill="white"/>
<path d="M161.78 98.48C161.78 92.72 156.83 88.04 150.74 88.04H150.02C152.13 93.88 153.33 101.32 153.78 108.52C158.39 107.26 161.78 103.24 161.78 98.48Z" fill="white"/>
<path d="M18 98.4801C18 103.24 21.38 107.26 26 108.52C26.45 101.32 27.65 93.8801 29.76 88.0401H29.05C22.95 88.0301 18 92.7201 18 98.4801Z" fill="white"/>
<path d="M155.53 24.8901C155.53 30.9601 160.74 35.8901 167.15 35.8901C173.56 35.8901 178.77 30.9601 178.77 24.8901C178.77 19.2001 174.19 14.5101 168.33 13.9501C167.94 13.9101 167.54 13.8901 167.14 13.8901C160.74 13.8901 155.53 18.8201 155.53 24.8901Z" fill="white"/>
<path d="M149.42 133.59C147.83 130 146.02 125.92 146.28 117.87C146.66 106.13 144.82 94.32 141.74 88.03H139.9C140.88 102.27 139.83 112.73 132.99 117.7C130.41 119.57 127.22 120.52 123.26 120.52C117.43 120.52 109.92 118.48 100.21 114.34C96.96 112.96 93.48 112.26 89.89 112.26C86.29 112.26 82.82 112.96 79.56 114.34C69.85 118.48 62.34 120.52 56.51 120.52C55.63 120.52 54.79 120.47 53.98 120.37C53.53 120.32 53.1 120.26 52.68 120.18C52.46 120.14 52.24 120.09 52.03 120.05C51.97 120.03 51.92 120.02 51.87 120.01C51.62 119.95 51.37 119.88 51.13 119.81C50.72 119.69 50.33 119.56 49.95 119.41C49.69 119.31 49.44 119.21 49.2 119.1C49.18 119.09 49.16 119.09 49.15 119.08C48.95 118.99 48.75 118.89 48.56 118.79C48.47 118.75 48.39 118.7 48.3 118.65C48.22 118.62 48.15 118.58 48.08 118.53C47.9 118.43 47.73 118.33 47.55 118.22C47.54 118.21 47.53 118.21 47.53 118.2C47.28 118.05 47.03 117.88 46.78 117.7C39.94 112.73 38.89 102.27 39.87 88.03H38.04C34.95 94.32 33.11 106.13 33.49 117.87C33.72 124.99 32.34 129 30.92 132.31C30.74 132.75 30.55 133.17 30.36 133.59C29.87 134.69 29.42 135.7 29.05 136.77C28.44 138.57 28.04 140.55 28.04 143.44C28.04 156.77 39.42 167.62 53.4 167.62C58.08 167.62 62.07 169.17 64.83 171.98C65.06 172.21 65.29 172.45 65.5 172.71C65.93 173.21 66.32 173.75 66.67 174.32C66.85 174.61 67.01 174.9 67.17 175.2C71.49 183.48 80.2 188.63 89.89 188.63C99.58 188.63 108.28 183.48 112.6 175.2C115.12 170.38 120.14 167.62 126.37 167.62C140.36 167.62 151.73 156.77 151.73 143.44C151.73 138.82 150.71 136.51 149.42 133.59ZM104.69 126.91C101.64 132.18 95.97 135.46 89.89 135.46C83.8 135.46 78.13 132.18 75.09 126.91C74.03 125.08 74.66 122.74 76.49 121.68C76.94 121.42 77.42 121.26 77.9 121.2C78.06 121.18 78.23 121.17 78.39 121.17C78.53 121.17 78.68 121.18 78.82 121.2C78.88 121.2 78.94 121.21 79.01 121.22C79.13 121.24 79.25 121.27 79.37 121.3C79.49 121.33 79.61 121.37 79.72 121.41C79.78 121.43 79.84 121.45 79.9 121.48C80.11 121.57 80.31 121.68 80.51 121.81C80.66 121.91 80.81 122.02 80.95 122.15C80.97 122.16 80.99 122.18 81.01 122.2C81.1 122.28 81.18 122.37 81.26 122.46C81.35 122.55 81.43 122.65 81.5 122.76C81.58 122.86 81.65 122.97 81.72 123.09C83.4 125.99 86.53 127.8 89.89 127.8C93.25 127.8 96.38 125.99 98.06 123.09C98.26 122.74 98.5 122.44 98.78 122.19C98.86 122.11 98.95 122.04 99.04 121.96C99.15 121.88 99.27 121.8 99.39 121.73C99.49 121.66 99.6 121.61 99.71 121.56C99.74 121.53 99.78 121.52 99.82 121.5C99.89 121.47 99.97 121.44 100.05 121.41C100.15 121.37 100.25 121.34 100.35 121.31C100.4 121.3 100.44 121.28 100.48 121.28C100.57 121.26 100.66 121.24 100.75 121.23C100.83 121.21 100.92 121.2 101.01 121.19C101.04 121.18 101.07 121.18 101.1 121.18C101.19 121.17 101.28 121.17 101.36 121.17C101.53 121.17 101.69 121.18 101.86 121.2C102.3 121.26 102.73 121.39 103.13 121.61C103.18 121.62 103.23 121.65 103.28 121.68C103.59 121.86 103.86 122.07 104.1 122.31C104.22 122.43 104.33 122.56 104.43 122.69C104.63 122.96 104.8 123.25 104.92 123.56C105.35 124.61 105.3 125.85 104.69 126.91Z" fill="white"/>
</svg>
