<svg width="196" height="196" viewBox="0 0 196 196" fill="none" xmlns="http://www.w3.org/2000/svg">
<g clip-path="url(#clip0_0_3516)">
<path d="M193.565 103.638C188.522 93.5516 176.754 90.3953 168.04 95.7472C167.732 93.1056 167.217 90.4982 166.668 87.9938C166.668 87.5821 166.565 87.0332 166.256 86.5186C156.41 49.5696 115.962 28.4706 78.7039 39.1745C47.8273 47.9915 8.68272 76.9811 7.41335 112.044C7.2075 112.661 7.2075 113.313 7.41335 113.827C7.41335 116.469 7.61919 119.179 8.03088 121.821C0.586195 130.638 -3.73653 142.92 4.36 152.801C11.7018 161.72 28.924 159.731 38.5987 158.564C57.3991 156.471 73.9695 152.904 93.1816 154.482C112.6 156.163 137.815 158.77 151.538 141.788C160.561 130.57 151.847 118.802 141.246 113.759C138.399 101.271 128.003 91.2876 116.477 85.4211C133.047 82.3677 151.024 85.6269 159.944 101.271C155.415 104.531 154.901 113.039 156.993 118.494C160.664 128.477 170.853 136.333 181.763 132.971C194.388 128.922 199.432 115.165 193.565 103.638ZM144.746 140.176C133.939 153.624 107.797 149.095 92.9761 147.723C80.5912 146.659 68.4121 145.939 56.233 148.546C38.0844 152.423 -12.1072 158.735 12.6627 124.394C12.6627 124.291 12.6627 124.291 12.7656 124.188C26.5229 114.513 61.2762 123.673 74.1757 125.354C82.2722 126.418 90.5403 127.859 98.6371 127.241C104.298 126.727 110.198 123.879 115.448 122.095C118.398 121.031 121.314 120.208 124.264 119.454C132.773 117.19 160.39 120.86 144.746 140.176ZM178.847 126.418C171.814 128.614 166.051 122.232 163.306 116.537C160.905 111.597 161.316 107.206 165.09 104.358C165.913 104.564 166.874 104.461 167.697 103.638C174.936 97.2221 183.033 98.3885 187.732 107C192.192 115.165 187.15 123.776 178.847 126.418Z" fill="white"/>
</g>
<defs>
<clipPath id="clip0_0_3516">
<rect width="196" height="196" fill="white"/>
</clipPath>
</defs>
</svg>
