<svg width="70" height="70" viewBox="0 0 70 70" fill="none" xmlns="http://www.w3.org/2000/svg">
<path d="M6.28906 36.3672C5.53399 36.3672 4.92188 35.7551 4.92188 35C4.92188 34.2449 5.53399 33.6328 6.28906 33.6328C7.04414 33.6328 7.65625 34.2449 7.65625 35C7.65625 35.7551 7.04414 36.3672 6.28906 36.3672Z" fill="white"/>
<path d="M22.6953 24.0625C21.9402 24.0625 21.3281 23.4504 21.3281 22.6953C21.3281 21.9402 21.9402 21.3281 22.6953 21.3281C23.4504 21.3281 24.0625 21.9402 24.0625 22.6953C24.0625 23.4504 23.4504 24.0625 22.6953 24.0625Z" fill="white"/>
<path d="M22.6953 48.6719C21.9402 48.6719 21.3281 48.0598 21.3281 47.3047C21.3281 46.5496 21.9402 45.9375 22.6953 45.9375C23.4504 45.9375 24.0625 46.5496 24.0625 47.3047C24.0625 48.0598 23.4504 48.6719 22.6953 48.6719Z" fill="white"/>
<path d="M47.3047 24.0625C46.5496 24.0625 45.9375 23.4504 45.9375 22.6953C45.9375 21.9402 46.5496 21.3281 47.3047 21.3281C48.0598 21.3281 48.6719 21.9402 48.6719 22.6953C48.6719 23.4504 48.0598 24.0625 47.3047 24.0625Z" fill="white"/>
<path d="M47.3047 48.6719C46.5496 48.6719 45.9375 48.0598 45.9375 47.3047C45.9375 46.5496 46.5496 45.9375 47.3047 45.9375C48.0598 45.9375 48.6719 46.5496 48.6719 47.3047C48.6719 48.0598 48.0598 48.6719 47.3047 48.6719Z" fill="white"/>
<path d="M63.7109 36.3672C62.9559 36.3672 62.3438 35.7551 62.3438 35C62.3438 34.2449 62.9559 33.6328 63.7109 33.6328C64.466 33.6328 65.0781 34.2449 65.0781 35C65.0781 35.7551 64.466 36.3672 63.7109 36.3672Z" fill="white"/>
<path d="M68.6328 10.9375C64.8635 10.9375 61.7969 14.0041 61.7969 17.7734C61.7969 18.5284 61.1846 19.1406 60.4297 19.1406C59.6747 19.1406 59.0625 18.5284 59.0625 17.7734C59.0625 14.0041 55.9959 10.9375 52.2266 10.9375C51.4716 10.9375 50.8594 10.3253 50.8594 9.57031C50.8594 8.81535 51.4716 8.20312 52.2266 8.20312C55.9959 8.20312 59.0625 5.13652 59.0625 1.36719C59.0625 0.612227 59.6747 0 60.4297 0C61.1846 0 61.7969 0.612227 61.7969 1.36719C61.7969 5.13652 64.8635 8.20312 68.6328 8.20312C69.3878 8.20312 70 8.81535 70 9.57031C70 10.3253 69.3878 10.9375 68.6328 10.9375ZM60.4297 6.2907C59.621 7.63301 58.4924 8.76162 57.1501 9.57031C58.4924 10.379 59.621 11.5076 60.4297 12.8499C61.2384 11.5076 62.367 10.379 63.7093 9.57031C62.367 8.76162 61.2384 7.63301 60.4297 6.2907Z" fill="white"/>
<path d="M1.36719 59.0625C5.13652 59.0625 8.20312 55.9959 8.20312 52.2266C8.20312 51.4716 8.81535 50.8594 9.57031 50.8594C10.3253 50.8594 10.9375 51.4716 10.9375 52.2266C10.9375 55.9959 14.0041 59.0625 17.7734 59.0625C18.5284 59.0625 19.1406 59.6747 19.1406 60.4297C19.1406 61.1846 18.5284 61.7969 17.7734 61.7969C14.0041 61.7969 10.9375 64.8635 10.9375 68.6328C10.9375 69.3878 10.3253 70 9.57031 70C8.81535 70 8.20312 69.3878 8.20312 68.6328C8.20312 64.8635 5.13652 61.7969 1.36719 61.7969C0.612227 61.7969 0 61.1846 0 60.4297C0 59.6747 0.612227 59.0625 1.36719 59.0625ZM9.57031 63.7093C10.379 62.3669 11.5076 61.2384 12.8499 60.4297C11.5075 59.621 10.379 58.4924 9.57031 57.1501C8.76162 58.4925 7.63301 59.621 6.2907 60.4297C7.63301 61.2384 8.76162 62.367 9.57031 63.7093Z" fill="white"/>
<path d="M22.6953 33.6328C28.7262 33.6328 33.6328 28.7262 33.6328 22.6953C33.6328 21.9404 34.245 21.3281 35 21.3281C35.755 21.3281 36.3672 21.9404 36.3672 22.6953C36.3672 28.7262 41.2738 33.6328 47.3047 33.6328C48.0596 33.6328 48.6719 34.245 48.6719 35C48.6719 35.755 48.0596 36.3672 47.3047 36.3672C41.2738 36.3672 36.3672 41.2738 36.3672 47.3047C36.3672 48.0596 35.755 48.6719 35 48.6719C34.245 48.6719 33.6328 48.0596 33.6328 47.3047C33.6328 41.2738 28.7262 36.3672 22.6953 36.3672C21.9404 36.3672 21.3281 35.755 21.3281 35C21.3281 34.245 21.9404 33.6328 22.6953 33.6328ZM35 41.3485C36.3422 38.587 38.587 36.3422 41.3485 35C38.587 33.6578 36.3422 31.413 35 28.6515C33.6578 31.413 31.413 33.6578 28.6515 35C31.413 36.3422 33.6578 38.587 35 41.3485Z" fill="white"/>
<path d="M55.5078 60.9766C54.7529 60.9766 54.1406 60.3643 54.1406 59.6094V56.875H51.4062C50.6513 56.875 50.0391 56.2628 50.0391 55.5078C50.0391 54.7529 50.6513 54.1406 51.4062 54.1406H54.1406V51.4062C54.1406 50.6513 54.7529 50.0391 55.5078 50.0391C56.2628 50.0391 56.875 50.6513 56.875 51.4062V54.1406H59.6094C60.3643 54.1406 60.9766 54.7529 60.9766 55.5078C60.9766 56.2628 60.3643 56.875 59.6094 56.875H56.875V59.6094C56.875 60.3643 56.2628 60.9766 55.5078 60.9766Z" fill="white"/>
<path d="M14.4922 19.9609C13.7372 19.9609 13.125 19.3487 13.125 18.5938V15.8594H10.3906C9.63566 15.8594 9.02344 15.2471 9.02344 14.4922C9.02344 13.7372 9.63566 13.125 10.3906 13.125H13.125V10.3906C13.125 9.63566 13.7372 9.02344 14.4922 9.02344C15.2471 9.02344 15.8594 9.63566 15.8594 10.3906V13.125H18.5938C19.3487 13.125 19.9609 13.7372 19.9609 14.4922C19.9609 15.2471 19.3487 15.8594 18.5938 15.8594H15.8594V18.5938C15.8594 19.3487 15.2471 19.9609 14.4922 19.9609Z" fill="white"/>
<path d="M35 0C35.755 0 36.3672 0.612227 36.3672 1.36719V4.10156H39.1016C39.8565 4.10156 40.4688 4.71379 40.4688 5.46875C40.4688 6.22371 39.8565 6.83594 39.1016 6.83594H36.3672V9.57031C36.3672 10.3253 35.755 10.9375 35 10.9375C34.245 10.9375 33.6328 10.3253 33.6328 9.57031V6.83594H30.8984C30.1435 6.83594 29.5312 6.22371 29.5312 5.46875C29.5312 4.71379 30.1435 4.10156 30.8984 4.10156H33.6328V1.36719C33.6328 0.612227 34.245 0 35 0Z" fill="white"/>
<path d="M35 70C34.245 70 33.6328 69.3878 33.6328 68.6328V65.8984H30.8984C30.1435 65.8984 29.5312 65.2862 29.5312 64.5312C29.5312 63.7763 30.1435 63.1641 30.8984 63.1641H33.6328V60.4297C33.6328 59.6747 34.245 59.0625 35 59.0625C35.755 59.0625 36.3672 59.6747 36.3672 60.4297V63.1641H39.1016C39.8565 63.1641 40.4688 63.7763 40.4688 64.5312C40.4688 65.2862 39.8565 65.8984 39.1016 65.8984H36.3672V68.6328C36.3672 69.3878 35.755 70 35 70Z" fill="white"/>
</svg>
