<svg width="64" height="64" viewBox="0 0 64 64" fill="none" xmlns="http://www.w3.org/2000/svg">
<g clip-path="url(#clip0_11_2)">
<path d="M51.1449 18.7089L40.5788 17.1735L35.8534 7.59918C34.029 3.90193 28.7514 3.90056 26.9262 7.59905L22.2008 17.1735L11.6347 18.7089C7.55469 19.3017 5.92282 24.3203 8.87606 27.1993L16.5218 34.652L14.7169 45.1752C14.0199 49.2385 18.2882 52.3416 21.9393 50.4227L31.3898 45.454L40.8405 50.4227C44.4959 52.3441 48.7581 49.2293 48.0625 45.1752L46.2576 34.652L53.9035 27.1993C56.8556 24.3213 55.2265 19.302 51.1449 18.7089Z" fill="white"/>
<path d="M16.2317 5.89393L13.6803 2.38244C12.9877 1.42944 11.6536 1.21806 10.7006 1.91069C9.74746 2.60319 9.53621 3.93731 10.2287 4.89043L12.7801 8.40192C13.4731 9.35542 14.8073 9.56605 15.7598 8.87367C16.713 8.1813 16.9242 6.84705 16.2317 5.89393Z" fill="white"/>
<path d="M7.7644 37.3635C7.40027 36.2432 6.19703 35.6294 5.07628 35.9939L0.864412 37.3625C-0.256086 37.7264 -0.86921 38.93 -0.505211 40.0507C-0.140461 41.1733 1.06529 41.7839 2.18291 41.4203L6.3949 40.0516C7.5154 39.6878 8.12852 38.4842 7.7644 37.3635Z" fill="white"/>
<path d="M52.0801 1.91065C51.1272 1.21803 49.793 1.42928 49.1004 2.3824L46.549 5.89389C45.8564 6.84702 46.0678 8.18126 47.0209 8.87364C47.9744 9.56639 49.3083 9.35464 50.0007 8.40189L52.552 4.8904C53.2446 3.93727 53.0333 2.60315 52.0801 1.91065Z" fill="white"/>
<path d="M62.5251 37.3624L58.3131 35.9937C57.1926 35.629 55.9891 36.2429 55.625 37.3634C55.2608 38.4839 55.874 39.6874 56.9946 40.0515L61.2066 41.4201C62.3248 41.7839 63.5301 41.1725 63.8947 40.0505C64.2587 38.93 63.6456 37.7265 62.5251 37.3624Z" fill="white"/>
<path d="M31.3906 53.9006C30.2124 53.9006 29.2573 54.8558 29.2573 56.0339V60.3636C29.2573 61.5417 30.2124 62.4969 31.3906 62.4969C32.5687 62.4969 33.5238 61.5417 33.5238 60.3636V56.0339C33.5239 54.8558 32.5688 53.9006 31.3906 53.9006Z" fill="white"/>
</g>
<defs>
<clipPath id="clip0_11_2">
<rect width="64" height="64" fill="white"/>
</clipPath>
</defs>
</svg>
