<svg width="154" height="154" viewBox="0 0 154 154" fill="none" xmlns="http://www.w3.org/2000/svg">
<g clip-path="url(#clip0_447_1786)">
<path d="M123.026 45.0742L97.6341 41.3846L86.2785 18.3763C81.8944 9.49147 69.2117 9.48816 64.8254 18.376L53.4698 41.3846L28.0783 45.0742C18.2737 46.4987 14.3521 58.559 21.4491 65.4775L39.8226 83.3873L35.4853 108.676C33.8103 118.44 44.0674 125.897 52.8414 121.286L75.552 109.346L98.2631 121.286C107.047 125.903 117.29 118.418 115.618 108.676L111.281 83.3873L129.655 65.4775C136.749 58.5614 132.834 46.4996 123.026 45.0742Z" fill="white"/>
<path d="M39.1247 14.2784L32.9935 5.83985C31.329 3.54969 28.123 3.04174 25.8328 4.70619C23.5424 6.37034 23.0347 9.57638 24.6988 11.8668L30.8301 20.3053C32.4954 22.5967 35.7018 23.1029 37.9907 21.439C40.2812 19.7752 40.7888 16.5688 39.1247 14.2784Z" fill="white"/>
<path d="M21.0269 89.9032C20.1519 87.2108 17.2604 85.7359 14.5671 86.6118L4.4455 89.9008C1.75282 90.7752 0.279412 93.6676 1.15414 96.3606C2.03067 99.0584 4.92822 100.526 7.61399 99.652L17.7359 96.363C20.4286 95.4886 21.902 92.5961 21.0269 89.9032Z" fill="white"/>
<path d="M125.273 4.70608C122.983 3.04163 119.777 3.54929 118.112 5.83975L111.981 14.2783C110.317 16.5687 110.825 19.7751 113.115 21.4389C115.406 23.1037 118.612 22.5948 120.276 20.3052L126.407 11.8667C128.071 9.57628 127.563 6.37023 125.273 4.70608Z" fill="white"/>
<path d="M147.994 89.901L137.872 86.6121C135.18 85.7355 132.288 87.2107 131.413 89.9034C130.538 92.5961 132.011 95.4882 134.704 96.3632L144.826 99.6522C147.513 100.526 150.409 99.0571 151.286 96.3608C152.16 93.6682 150.687 90.776 147.994 89.901Z" fill="white"/>
<path d="M75.5511 129.644C72.7199 129.644 70.4247 131.939 70.4247 134.77V145.175C70.4247 148.006 72.7199 150.302 75.5511 150.302C78.3823 150.302 80.6775 148.006 80.6775 145.175V134.77C80.6778 131.939 78.3826 129.644 75.5511 129.644Z" fill="white"/>
</g>
<defs>
<clipPath id="clip0_447_1786">
<rect width="153.799" height="153.799" fill="white" transform="translate(0.117218 0.114838)"/>
</clipPath>
</defs>
</svg>
