<svg width="196" height="196" viewBox="0 0 196 196" fill="none" xmlns="http://www.w3.org/2000/svg">
<g clip-path="url(#clip0_244_17280)">
<path d="M89.3101 46.2699L98.5001 48.7799L107.69 46.2699V45.2599C106.56 44.8499 105.52 44.2299 104.63 43.4199C102.96 44.9599 100.77 45.8099 98.5001 45.8099C96.2301 45.8099 94.0401 44.9599 92.3701 43.4199C91.4801 44.2299 90.4401 44.8499 89.3101 45.2599V46.2699Z" fill="white"/>
<path d="M72.1 113.42C71.54 113.19 70.92 113.13 70.33 113.25C69.74 113.37 69.19 113.66 68.76 114.09C68.33 114.52 68.04 115.06 67.92 115.66C67.8 116.25 67.86 116.87 68.09 117.43C68.32 117.99 68.71 118.47 69.22 118.8C69.72 119.14 70.32 119.32 70.92 119.32C71.73 119.32 72.51 119 73.09 118.42C73.66 117.84 73.99 117.07 73.99 116.25C73.99 115.64 73.81 115.05 73.47 114.55C73.14 114.05 72.66 113.65 72.1 113.42Z" fill="white"/>
<path d="M86.2399 39.69C87.0499 39.69 87.8299 39.37 88.4099 38.79C88.9799 38.22 89.3099 37.44 89.3099 36.62V30.5H83.1799V36.63C83.1799 37.44 83.4999 38.22 84.0799 38.8C84.6499 39.36 85.4299 39.69 86.2399 39.69Z" fill="white"/>
<path d="M57.93 61.1299H16C16.69 66.4599 19.11 71.4199 22.9 75.2499C26.68 79.0699 31.62 81.5499 36.94 82.2899C42.43 73.8799 49.57 66.6799 57.93 61.1299Z" fill="white"/>
<path d="M60.3299 54.1899L66.6399 56.1299C71.6299 53.7299 76.8899 51.8999 82.2999 50.6899L63.9999 45.7099C63.4699 45.5699 62.9999 45.2899 62.6199 44.8999C62.2399 44.5099 61.9699 44.0299 61.8399 43.4999L53.8099 11.3999C53.6099 10.6299 53.1199 9.97991 52.4399 9.56991C51.7599 9.15991 50.9499 9.02991 50.1799 9.19991C49.4099 9.36991 48.7299 9.83991 48.2899 10.4999C47.8499 11.1599 47.6899 11.9699 47.8399 12.7499L52.4999 36.0199C52.6199 36.6299 52.5599 37.2599 52.3199 37.8299C52.0799 38.3999 51.6699 38.8899 51.1399 39.2199C50.6099 39.5499 49.9999 39.7199 49.3799 39.6899C48.7599 39.6699 48.1599 39.4499 47.6599 39.0799L27.9099 24.2599C27.6299 24.0499 27.3199 23.8999 26.9799 23.8099C26.6399 23.7299 26.2899 23.7199 25.9499 23.7799C25.4699 23.8599 25.0099 24.0799 24.6499 24.4099C24.2899 24.7399 24.0299 25.1699 23.8999 25.6499C23.7699 26.1299 23.7899 26.6299 23.9399 27.0899C24.0899 27.5499 24.3799 27.9699 24.7599 28.2799L48.9099 48.0499C52.2799 50.8299 56.1599 52.9099 60.3299 54.1899Z" fill="white"/>
<path d="M136.64 54.1899C140.81 52.9099 144.69 50.8299 148.07 48.0599L172.23 28.2899C172.61 27.9799 172.89 27.5699 173.05 27.0999C173.2 26.6299 173.22 26.1299 173.09 25.6599C172.96 25.1899 172.71 24.7599 172.34 24.4299C171.98 24.0999 171.53 23.8799 171.04 23.7999C170.7 23.7399 170.34 23.7499 170.01 23.8299C169.67 23.9099 169.35 24.0599 169.08 24.2699L149.34 39.0799C148.84 39.4499 148.25 39.6699 147.62 39.6899C147 39.7099 146.39 39.5499 145.86 39.2199C145.34 38.8899 144.92 38.3999 144.68 37.8299C144.44 37.2599 144.37 36.6299 144.5 36.0199L149.16 12.7299C149.3 11.9599 149.13 11.1599 148.69 10.4999C148.25 9.84991 147.58 9.38991 146.81 9.20991C146.04 9.03991 145.24 9.16991 144.56 9.56991C143.89 9.96991 143.39 10.6199 143.18 11.3799L135.15 43.4899C135.02 44.0199 134.75 44.4999 134.37 44.8899C133.99 45.2799 133.51 45.5599 132.99 45.6999L114.7 50.6899C120.1 51.8999 125.35 53.7299 130.34 56.1299L136.64 54.1899Z" fill="white"/>
<path d="M95.4299 36.63C95.4299 37.44 95.7499 38.22 96.3299 38.8C96.8999 39.37 97.6799 39.7 98.4999 39.7C99.3199 39.7 100.09 39.38 100.67 38.8C101.24 38.23 101.57 37.45 101.57 36.63V30.5H95.4499V36.63H95.4299Z" fill="white"/>
<path d="M110.74 39.69C111.55 39.69 112.33 39.37 112.91 38.79C113.48 38.22 113.81 37.44 113.81 36.62V30.5H107.69V36.63C107.69 37.44 108.01 38.22 108.59 38.8C109.15 39.36 109.93 39.69 110.74 39.69Z" fill="white"/>
<path d="M98.4901 24.38C101.876 24.38 104.62 20.2655 104.62 15.19C104.62 10.1145 101.876 6 98.4901 6C95.1046 6 92.3601 10.1145 92.3601 15.19C92.3601 20.2655 95.1046 24.38 98.4901 24.38Z" fill="white"/>
<path d="M103.18 129.43C100.94 128.5 98.4799 128.26 96.0999 128.73C93.7199 129.2 91.5399 130.37 89.8299 132.08C88.1199 133.79 86.9499 135.98 86.4799 138.35C86.0099 140.73 86.2499 143.19 87.1799 145.43C88.1099 147.67 89.6799 149.58 91.6899 150.93C93.6999 152.28 96.0699 153 98.4999 153C101.75 153 104.86 151.71 107.16 149.41C109.46 147.11 110.75 144 110.75 140.75C110.75 138.33 110.03 135.96 108.69 133.94C107.33 131.93 105.42 130.36 103.18 129.43Z" fill="white"/>
<path d="M160.05 82.2801C165.38 81.5301 170.31 79.0601 174.09 75.2401C177.87 71.4201 180.3 66.4601 180.99 61.1201H139.06C147.42 66.6801 154.56 73.8801 160.05 82.2801Z" fill="white"/>
<path d="M154.52 84.9401C147.12 73.8601 136.59 65.2301 124.28 60.1301C111.97 55.0301 98.42 53.7001 85.3499 56.3001C72.2799 58.9001 60.28 65.3101 50.86 74.7301C41.43 84.1601 35.02 96.1601 32.42 109.23C29.82 122.3 31.15 135.85 36.25 148.16C41.35 160.47 49.99 170.99 61.07 178.4C72.1499 185.8 85.1699 189.75 98.4999 189.75C116.36 189.73 133.49 182.63 146.12 169.99C158.75 157.36 165.85 140.24 165.87 122.38C165.87 109.05 161.92 96.0201 154.52 84.9401ZM78.57 121.35C77.57 122.87 76.13 124.04 74.45 124.74C72.77 125.43 70.93 125.62 69.1399 125.26C67.36 124.91 65.7199 124.03 64.4399 122.75C63.1499 121.46 62.2799 119.83 61.9199 118.04C61.5699 116.26 61.75 114.41 62.45 112.73C63.1399 111.06 64.32 109.62 65.83 108.61C67.34 107.6 69.1199 107.06 70.9399 107.06C73.3699 107.06 75.7099 108.03 77.43 109.75C79.15 111.48 80.12 113.81 80.12 116.25C80.12 118.07 79.5799 119.84 78.57 121.35ZM114.49 149.8C114.27 150.2 114.03 150.58 113.78 150.96C111.76 153.98 108.89 156.34 105.53 157.73C102.17 159.12 98.48 159.48 94.91 158.77C91.35 158.06 88.07 156.31 85.5 153.74C82.9399 151.17 81.19 147.9 80.48 144.34C79.77 140.77 80.1299 137.08 81.5199 133.72C82.9099 130.36 85.27 127.49 88.29 125.47C91.31 123.45 94.8599 122.38 98.4999 122.38C103.37 122.38 108.04 124.32 111.49 127.76C114.93 131.21 116.87 135.88 116.87 140.75C116.87 143.93 116.05 147.05 114.49 149.8ZM133.7 121.35C132.69 122.87 131.26 124.04 129.58 124.74C127.9 125.43 126.05 125.62 124.27 125.26C122.49 124.91 120.85 124.03 119.56 122.75C118.28 121.46 117.4 119.83 117.05 118.04C116.69 116.26 116.88 114.41 117.57 112.73C118.27 111.06 119.44 109.62 120.96 108.61C122.47 107.6 124.24 107.06 126.06 107.06C128.5 107.06 130.83 108.03 132.56 109.75C134.28 111.48 135.25 113.81 135.25 116.25C135.25 118.07 134.71 119.84 133.7 121.35Z" fill="white"/>
<path d="M127.23 113.42C126.67 113.19 126.05 113.13 125.46 113.25C124.87 113.37 124.32 113.66 123.89 114.09C123.46 114.52 123.17 115.06 123.05 115.66C122.93 116.25 122.99 116.87 123.22 117.43C123.45 117.99 123.84 118.47 124.35 118.8C124.85 119.14 125.45 119.32 126.05 119.32C126.86 119.32 127.64 119 128.21 118.42C128.78 117.84 129.11 117.07 129.11 116.25C129.11 115.64 128.93 115.05 128.59 114.55C128.27 114.05 127.79 113.65 127.23 113.42Z" fill="white"/>
</g>
<defs>
<clipPath id="clip0_244_17280">
<rect width="164.99" height="183.75" fill="white" transform="translate(16 6)"/>
</clipPath>
</defs>
</svg>
