<svg width="196" height="196" viewBox="0 0 196 196" fill="none" xmlns="http://www.w3.org/2000/svg">
<g clip-path="url(#clip0_0_3563)">
<path fill-rule="evenodd" clip-rule="evenodd" d="M192.139 106.612C194.593 104.421 196 101.283 196 97.9999C196 94.715 194.593 91.5752 192.14 89.3848C190.019 87.491 189.603 84.3305 191.162 81.9524C192.966 79.2012 193.513 75.8056 192.662 72.6359C191.814 69.4651 189.641 66.7965 186.7 65.3104C184.165 64.0295 182.947 61.0876 183.836 58.3896C184.865 55.2643 184.513 51.842 182.872 49.0003C181.229 46.1568 178.44 44.1398 175.217 43.4672C172.437 42.8864 170.499 40.3603 170.658 37.5244C170.842 34.2376 169.618 31.0227 167.299 28.7036C166.777 28.1815 166.209 27.7156 165.606 27.3075C163.591 37.6385 154.133 43.7726 145.167 40.7109L113.322 29.8417C113.002 30.1763 112.667 30.4963 112.318 30.801L116.969 40.1022C118.387 42.9389 117.237 46.388 114.401 47.8063C111.576 49.2189 108.121 48.0866 106.697 45.2384L101.368 34.5802H94.6332L89.304 45.2384C87.883 48.0797 84.4324 49.2224 81.5999 47.8063C78.7633 46.388 77.6137 42.9389 79.032 40.1022L83.6828 30.801C83.3341 30.4967 82.9995 30.1767 82.6795 29.8425L50.8371 40.7113C41.8012 43.7933 32.3993 37.5684 30.3949 27.3094C29.7928 27.7175 29.2258 28.1826 28.7044 28.704C26.3831 31.0254 25.1588 34.2387 25.3456 37.5205C25.5072 40.358 23.5682 42.8868 20.7863 43.4675C17.5619 44.1405 14.7724 46.1564 13.1339 48.9977C11.4909 51.8427 11.1395 55.2647 12.1685 58.39C13.0566 61.0876 11.8392 64.0299 9.30387 65.3108C6.36311 66.7965 4.19065 69.4655 3.3431 72.6325C2.49134 75.8056 3.03838 79.2016 4.8422 81.9524C6.40139 84.3301 5.98527 87.491 3.86449 89.3848C1.40837 91.5771 0 94.7173 0 97.9999C0 101.28 1.40837 104.419 3.86411 106.612C5.98527 108.506 6.40063 111.666 4.84143 114.044C3.03762 116.795 2.49058 120.191 3.34157 123.36C4.19103 126.534 6.36234 129.202 9.30005 130.684C11.8373 131.964 13.0566 134.907 12.1681 137.606C11.1387 140.733 11.4901 144.156 13.132 146.999C14.7708 149.84 17.56 151.855 20.7863 152.529C23.5682 153.109 25.5068 155.638 25.3456 158.475C25.1592 161.757 26.3842 164.973 28.7067 167.298C31.0258 169.617 34.2388 170.839 37.5252 170.655C40.3668 170.492 42.8911 172.432 43.4718 175.214C44.1452 178.44 46.1595 181.229 48.9981 182.866C51.8451 184.509 55.2689 184.86 58.3938 183.832C61.0919 182.944 64.0361 184.162 65.3162 186.7C66.7985 189.637 69.4667 191.809 72.6368 192.657C75.8091 193.508 79.2058 192.962 81.9598 191.159C84.3363 189.603 87.4937 190.018 89.3867 192.137C91.5802 194.592 94.7197 196 98 196C101.283 196 104.423 194.592 106.617 192.137C108.511 190.019 111.668 189.604 114.044 191.16C116.798 192.962 120.195 193.509 123.364 192.658C126.538 191.809 129.205 189.638 130.688 186.7C131.968 184.163 134.912 182.943 137.61 183.832C140.735 184.861 144.157 184.51 147 182.868C149.844 181.229 151.859 178.44 152.532 175.214C153.113 172.432 155.643 170.493 158.479 170.655C161.765 170.841 164.978 169.617 167.299 167.296C169.617 164.975 170.842 161.759 170.658 158.471C170.499 155.635 172.437 153.109 175.217 152.529C178.441 151.856 181.231 149.84 182.872 146.999C184.514 144.156 184.865 140.733 183.836 137.606C182.947 134.907 184.167 131.963 186.704 130.684C189.641 129.202 191.813 126.534 192.661 123.364C193.513 120.191 192.966 116.795 191.162 114.044C189.603 111.666 190.019 108.505 192.139 106.612ZM36.4947 103.742C33.3277 103.742 30.7525 101.17 30.7525 97.9999C30.7525 94.8303 33.3277 92.2578 36.4947 92.2578C39.6644 92.2578 42.2369 94.8303 42.2369 97.9999C42.2369 101.17 39.6644 103.742 36.4947 103.742ZM54.9462 146.796C51.7792 146.796 49.204 144.223 49.204 141.054C49.204 137.884 51.7792 135.312 54.9462 135.312C58.1159 135.312 60.6884 137.884 60.6884 141.054C60.6884 144.223 58.1159 146.796 54.9462 146.796ZM61.0969 66.839C57.9299 66.839 55.3547 64.2665 55.3547 61.0968C55.3547 57.9271 57.9299 55.3546 61.0969 55.3546C64.2666 55.3546 66.8391 57.9271 66.8391 61.0968C66.8391 64.2665 64.2666 66.839 61.0969 66.839ZM98 165.247C94.833 165.247 92.2578 162.675 92.2578 159.505C92.2578 156.336 94.833 153.763 98 153.763C101.17 153.763 103.742 156.336 103.742 159.505C103.742 162.675 101.17 165.247 98 165.247ZM123.088 104.826C121.056 106.123 120.05 108.551 120.569 110.906C121.171 113.628 120.357 116.427 118.392 118.392C116.429 120.354 113.632 121.168 110.91 120.566C108.555 120.045 106.126 121.052 104.829 123.086C103.332 125.436 100.779 126.838 98.0004 126.838C95.2238 126.838 92.6724 125.436 91.1752 123.086C89.8767 121.049 87.4462 120.046 85.0939 120.566C82.3724 121.167 79.5729 120.354 77.6106 118.394C75.6464 116.427 74.833 113.629 75.4343 110.906C75.9546 108.551 74.9482 106.123 72.9151 104.826C70.5646 103.327 69.1616 100.775 69.1616 97.9996C69.1616 95.2246 70.5661 92.6704 72.9185 91.1675C74.9493 89.8702 75.9542 87.4427 75.4343 85.0896C74.833 82.3678 75.6457 79.5706 77.6083 77.6075C79.5733 75.6425 82.3698 74.8295 85.0896 75.4324C87.4459 75.9538 89.8775 74.9477 91.1748 72.9123C92.6724 70.563 95.2238 69.1608 98.0004 69.1608C100.779 69.1608 103.332 70.5634 104.829 72.9123C106.126 74.9474 108.558 75.9545 110.914 75.4324C113.633 74.8295 116.428 75.6418 118.394 77.6094C120.358 79.5714 121.171 82.3678 120.57 85.09C120.05 87.4427 121.055 89.8702 123.085 91.1675C125.436 92.6689 126.839 95.223 126.839 97.9996C126.838 100.776 125.437 103.328 123.088 104.826ZM129.161 61.0968C129.161 57.9271 131.736 55.3546 134.903 55.3546C138.073 55.3546 140.645 57.9271 140.645 61.0968C140.645 64.2665 138.073 66.839 134.903 66.839C131.736 66.839 129.161 64.2665 129.161 61.0968ZM141.054 146.796C137.887 146.796 135.312 144.223 135.312 141.054C135.312 137.884 137.887 135.312 141.054 135.312C144.223 135.312 146.796 137.884 146.796 141.054C146.796 144.223 144.223 146.796 141.054 146.796ZM159.505 103.742C156.338 103.742 153.763 101.17 153.763 97.9999C153.763 94.8303 156.338 92.2578 159.505 92.2578C162.675 92.2578 165.248 94.8303 165.248 97.9999C165.248 101.17 162.675 103.742 159.505 103.742Z" fill="white"/>
<path fill-rule="evenodd" clip-rule="evenodd" d="M93.738 23.0967H102.262C104.376 23.0967 106.09 21.3829 106.09 19.2686V10.7445C106.09 8.63023 104.376 6.91638 102.262 6.91638H93.738C91.6238 6.91638 89.9099 8.63023 89.9099 10.7445V19.2686C89.9099 21.3825 91.6238 23.0967 93.738 23.0967Z" fill="white"/>
<path fill-rule="evenodd" clip-rule="evenodd" d="M152.278 28.987C153.671 27.7325 154.503 25.6294 154.503 23.3612V6.64991C154.503 4.38136 153.671 2.27857 152.278 1.02409C151.671 0.477821 150.422 -0.359772 148.877 0.167743L117.574 10.8513V19.1598L148.877 29.8434C150.422 30.3709 151.671 29.5333 152.278 28.987Z" fill="white"/>
<path fill-rule="evenodd" clip-rule="evenodd" d="M47.1228 29.8434L78.4254 19.1598V10.8513L47.1228 0.167743C45.5778 -0.359772 44.3287 0.477821 43.7219 1.02409C42.3285 2.27857 41.4966 4.38174 41.4966 6.64991V23.3608C41.4966 25.6294 42.3285 27.7322 43.7219 28.9866C44.3287 29.5333 45.5778 30.3709 47.1228 29.8434Z" fill="white"/>
</g>
<defs>
<clipPath id="clip0_0_3563">
<rect width="196" height="196" fill="white"/>
</clipPath>
</defs>
</svg>
