<svg width="196" height="196" viewBox="0 0 196 196" fill="none" xmlns="http://www.w3.org/2000/svg">
<path d="M168.935 43.4436L106.563 20.3207C100.628 18.1224 94.0052 21.138 91.7944 27.0477L87.5758 38.3225C86.5059 41.1811 86.615 44.2848 87.884 47.0621C89.1588 49.8509 91.4499 51.9745 94.3325 53.0436L156.704 76.1654C158.021 76.6535 159.37 76.8851 160.699 76.8851C165.359 76.8842 169.754 74.037 171.473 69.4385L175.692 58.1637C176.762 55.305 176.652 52.2014 175.383 49.4241C174.107 46.6353 171.818 44.5116 168.935 43.4436V43.4436Z" fill="white"/>
<path d="M47.5394 161.002L82.6279 174.009C86.9901 175.627 91.4613 176.392 95.8637 176.392C108.225 176.392 120.01 170.335 127.146 160.108L21.1072 121.254C18.7814 128.14 19.13 135.526 22.1685 142.167C25.3515 149.127 31.0669 154.43 38.1872 157.068L47.5394 161.002Z" fill="white"/>
<path d="M79.0948 91.5956C76.507 98.514 68.7397 102.045 61.8166 99.4767L59.4527 98.5618C44.7336 93.101 28.8564 100.416 23.319 115.212L23.1246 115.732L130.166 154.953C130.671 153.908 131.145 152.842 131.559 151.734L151.317 98.9266L85.3903 74.7703L79.0948 91.5956ZM55.9988 120.536L52.2434 112.438L43.7258 116.388L41.2528 111.052L55.1049 104.632L61.3333 118.063L55.9988 120.536ZM90.3093 133.108L86.5539 125.009L78.0363 128.96L75.5634 123.624L89.4135 117.204L95.6438 130.635L90.3093 133.108ZM128.25 98.1111L132.005 106.209L140.523 102.261L142.996 107.597L129.144 114.019L122.915 100.584L128.25 98.1111ZM123.723 129.775L129.953 143.206L124.619 145.679L120.863 137.581L112.346 141.532L109.873 136.195L123.723 129.775ZM93.9393 85.5395L97.6957 93.6379L106.212 89.6892L108.685 95.0256L94.8342 101.447L88.6048 88.0125L93.9393 85.5395Z" fill="white"/>
<path d="M87.4504 69.2636L153.377 93.4199L157.479 82.4567C156.524 82.2757 91.8109 58.3512 91.5712 58.2502L87.4504 69.2636Z" fill="white"/>
</svg>
