<svg width="196" height="196" viewBox="0 0 196 196" fill="none" xmlns="http://www.w3.org/2000/svg">
<path d="M177.631 171.5H171.506V165.375C171.506 164.563 171.183 163.784 170.609 163.209C170.035 162.635 169.256 162.312 168.444 162.312C167.631 162.312 166.852 162.635 166.278 163.209C165.704 163.784 165.381 164.563 165.381 165.375V171.5H159.256C158.444 171.5 157.665 171.823 157.091 172.397C156.516 172.971 156.194 173.75 156.194 174.562C156.194 175.375 156.516 176.154 157.091 176.728C157.665 177.302 158.444 177.625 159.256 177.625H165.381V183.75C165.381 184.562 165.704 185.341 166.278 185.916C166.852 186.49 167.631 186.812 168.444 186.812C169.256 186.812 170.035 186.49 170.609 185.916C171.183 185.341 171.506 184.562 171.506 183.75V177.625H177.631C178.443 177.625 179.222 177.302 179.797 176.728C180.371 176.154 180.694 175.375 180.694 174.562C180.694 173.75 180.371 172.971 179.797 172.397C179.222 171.823 178.443 171.5 177.631 171.5Z" fill="white"/>
<path d="M61.256 113.312C62.0683 113.312 62.8472 112.99 63.4216 112.416C63.9959 111.841 64.3185 111.062 64.3185 110.25V107.188H67.381C68.1933 107.188 68.9722 106.865 69.5466 106.291C70.1209 105.716 70.4435 104.937 70.4435 104.125C70.4435 103.313 70.1209 102.534 69.5466 101.959C68.9722 101.385 68.1933 101.062 67.381 101.062H64.3185V98C64.3185 97.1878 63.9959 96.4088 63.4216 95.8345C62.8472 95.2602 62.0683 94.9375 61.256 94.9375C60.4438 94.9375 59.6649 95.2602 59.0905 95.8345C58.5162 96.4088 58.1935 97.1878 58.1935 98V101.062H55.131C54.3188 101.062 53.5399 101.385 52.9655 101.959C52.3912 102.534 52.0685 103.313 52.0685 104.125C52.0685 104.937 52.3912 105.716 52.9655 106.291C53.5399 106.865 54.3188 107.188 55.131 107.188H58.1935V110.25C58.1933 110.652 58.2723 111.051 58.4262 111.422C58.58 111.794 58.8056 112.132 59.09 112.416C59.3744 112.7 59.7121 112.926 60.0838 113.08C60.4555 113.234 60.8538 113.313 61.256 113.312Z" fill="white"/>
<path d="M134.756 91.875C136.447 91.875 137.819 90.5039 137.819 88.8125C137.819 87.1211 136.447 85.75 134.756 85.75C133.065 85.75 131.694 87.1211 131.694 88.8125C131.694 90.5039 133.065 91.875 134.756 91.875Z" fill="white"/>
<path d="M167.61 118.034L161.07 103.293C166.913 99.1624 172.415 94.5691 177.523 89.5578C177.814 89.2765 178.047 88.9403 178.207 88.5686C178.368 88.1968 178.453 87.797 178.458 87.3921C178.463 86.9872 178.387 86.5854 178.236 86.2098C178.085 85.8343 177.86 85.4924 177.576 85.2042C177.292 84.9159 176.953 84.6868 176.58 84.5303C176.206 84.3737 175.805 84.2928 175.401 84.2921C174.996 84.2915 174.595 84.3711 174.221 84.5264C173.847 84.6818 173.507 84.9097 173.222 85.1971C133.789 124.121 65.0711 138.247 13.3617 118.05C12.6081 117.769 11.7743 117.796 11.0404 118.125C10.3064 118.454 9.73119 119.058 9.43898 119.807C9.14677 120.557 9.16102 121.391 9.47863 122.13C9.79625 122.868 10.3918 123.453 11.1365 123.756C17.1409 126.084 23.3058 127.976 29.5829 129.415L25.7416 145.679C21.9787 146.132 18.5177 147.965 16.0287 150.823C13.5397 153.681 12.1996 157.362 12.2679 161.151C12.3362 164.94 13.808 168.57 16.3983 171.337C18.9887 174.103 22.5134 175.811 26.2902 176.128C30.067 176.445 33.8272 175.35 36.8429 173.054C39.8586 170.759 41.9154 167.426 42.6151 163.701C43.3148 159.976 42.6076 156.124 40.6304 152.89C38.6532 149.657 35.5467 147.272 31.9122 146.197L35.5808 130.66C45.0747 132.425 54.7116 133.309 64.3683 133.3C67.4084 133.3 70.4559 133.191 73.5049 133.024V152.636L70.2697 159.19L59.6842 160.727C59.3626 160.774 59.0606 160.91 58.8123 161.12C58.5639 161.329 58.379 161.604 58.2786 161.913C58.1782 162.222 58.1662 162.553 58.244 162.868C58.3218 163.184 58.4863 163.471 58.7189 163.698L66.3785 171.164L64.5716 181.707C64.5164 182.028 64.552 182.357 64.6743 182.658C64.7967 182.96 65.0009 183.221 65.264 183.412C65.527 183.603 65.8382 183.717 66.1626 183.74C66.4869 183.764 66.8113 183.696 67.0991 183.545L76.5671 178.567L86.0351 183.545C86.3229 183.696 86.6474 183.764 86.9717 183.74C87.296 183.717 87.6073 183.603 87.8703 183.412C88.1333 183.221 88.3375 182.96 88.4599 182.658C88.5823 182.357 88.6178 182.028 88.5626 181.707L86.7557 171.164L94.4157 163.698C94.6483 163.471 94.8127 163.184 94.8905 162.868C94.9683 162.553 94.9563 162.222 94.8559 161.913C94.7555 161.604 94.5707 161.329 94.3223 161.12C94.0739 160.91 93.7719 160.774 93.4504 160.727L82.8648 159.19L79.6302 152.643V132.599C92.5827 131.422 105.364 128.809 117.739 124.808L120.005 140.941C115.614 142.334 111.907 145.326 109.617 149.324C107.328 153.321 106.624 158.033 107.644 162.525C108.665 167.017 111.336 170.962 115.128 173.578C118.92 176.194 123.556 177.29 128.118 176.649C132.68 176.008 136.835 173.676 139.759 170.116C142.683 166.556 144.163 162.028 143.905 157.428C143.648 152.829 141.672 148.494 138.37 145.282C135.067 142.071 130.678 140.217 126.073 140.088L123.638 122.757C134.964 118.661 145.791 113.3 155.914 106.775L161.61 119.616C158.215 121.305 155.568 124.195 154.18 127.724C152.793 131.253 152.764 135.172 154.099 138.722C155.435 142.271 158.039 145.199 161.409 146.938C164.779 148.678 168.674 149.105 172.341 148.138C176.008 147.171 179.186 144.878 181.26 141.702C183.333 138.527 184.155 134.695 183.566 130.949C182.977 127.203 181.019 123.808 178.071 121.422C175.123 119.036 171.395 117.829 167.608 118.034H167.61Z" fill="white"/>
<path d="M91.5911 72.5506C84.8514 73.1402 79.8381 78.7629 80.7222 88.8722C81.6064 98.9816 88.6924 109.694 94.7941 109.161C100.896 108.627 106.014 96.8467 105.129 86.7371C104.245 76.6274 98.331 71.9605 91.5911 72.5506Z" fill="white"/>
<path d="M34.5295 74.7742C28.1721 72.4602 21.2521 75.4373 17.781 84.9723C14.31 94.5074 16.2047 107.212 21.9604 109.307C27.7161 111.402 37.3342 102.888 40.8037 93.3513C44.2732 83.8144 40.887 77.0882 34.5295 74.7742Z" fill="white"/>
<path d="M139.206 42.6783C133.346 46.0611 131.179 53.2745 136.253 62.0639C141.327 70.8533 152.276 77.5669 157.581 74.5044C162.885 71.4419 162.545 58.6027 157.471 49.8139C152.396 41.0251 145.064 39.2957 139.206 42.6783Z" fill="white"/>
<path d="M129.305 37.7835L131.392 41.3973C132.725 39.7862 134.332 38.4231 136.139 37.371C137.951 36.3326 139.929 35.6135 141.985 35.2453L139.913 31.6579C139.507 30.9546 138.838 30.4413 138.054 30.2311C137.269 30.0209 136.434 30.131 135.73 30.5371L130.758 21.9235C132.827 19.3519 134.765 16.6771 136.564 13.9095C137.004 13.2266 137.155 12.3967 136.984 11.6025C136.812 10.8083 136.332 10.1148 135.649 9.67454C134.966 9.23431 134.136 9.08342 133.342 9.25506C132.548 9.4267 131.854 9.9068 131.414 10.5898C106.579 49.1402 58.4972 61.3752 17.0846 39.6955C16.3668 39.335 15.5362 39.271 14.7716 39.5172C14.0071 39.7633 13.3699 40.3 12.9972 41.0115C12.6246 41.723 12.5464 42.5525 12.7796 43.3211C13.0127 44.0897 13.5384 44.736 14.2435 45.1207C21.9933 49.1863 30.2418 52.22 38.779 54.1446L35.8424 62.2159H35.8405C35.0773 61.9381 34.235 61.9748 33.4989 62.318C32.7628 62.6612 32.1932 63.2828 31.9153 64.046L30.509 67.9097C32.5969 67.9241 34.6665 68.2999 36.6261 69.0204C38.5878 69.7421 40.4066 70.8047 41.9986 72.1592L43.4264 68.2358C43.7041 67.4726 43.6673 66.6304 43.324 65.8944C42.9808 65.1583 42.3593 64.5888 41.5962 64.3109L44.8712 55.3102C49.7074 56.0907 54.5972 56.491 59.4959 56.5074C68.739 56.5096 77.9284 55.1019 86.747 52.3329L87.4709 60.6142C86.6618 60.685 85.914 61.0743 85.392 61.6965C84.8699 62.3186 84.6164 63.1227 84.6871 63.9318L85.0442 68.0392C86.9418 67.1701 88.9739 66.6315 91.0528 66.4467C91.612 66.3986 92.1624 66.372 92.7096 66.372C94.2415 66.3743 95.7667 66.5743 97.2473 66.967L96.8884 62.8633C96.8534 62.4626 96.7397 62.0728 96.554 61.7161C96.3683 61.3594 96.1141 61.0427 95.806 60.7842C95.4979 60.5257 95.1419 60.3304 94.7584 60.2095C94.3748 60.0886 93.9712 60.0444 93.5705 60.0795L92.7099 50.2369C105.621 45.1305 117.192 37.1376 126.538 26.87L130.423 33.6023C129.721 34.0088 129.209 34.6775 128.999 35.4615C128.789 36.2455 128.899 37.0806 129.305 37.7835Z" fill="white"/>
</svg>
