<svg width="196" height="196" viewBox="0 0 196 196" fill="none" xmlns="http://www.w3.org/2000/svg">
<g clip-path="url(#clip0_0_3588)">
<path d="M33.4476 162.553L32.998 162.3C30.7773 161.017 28.7272 159.772 26.795 158.565C25.0733 157.487 23.4616 156.425 21.8977 155.378C20.9794 156.164 20.1999 157.1 19.5925 158.142C17.5487 161.603 17.5232 165.893 19.5223 169.378C21.5215 172.863 25.2375 175.006 29.2564 174.99C33.2945 174.991 37.0329 172.855 39.083 169.375C39.6314 168.406 40.0284 167.358 40.2627 166.269C39.9088 166.083 39.5724 165.923 39.2169 165.734C37.3406 164.741 35.4228 163.665 33.4476 162.553Z" fill="white"/>
<path d="M88.7948 160.951C84.4697 158.469 82.8006 153.065 84.9751 148.577L85.6638 147.039L84.2274 146.768C82.7671 146.481 81.2622 146.188 79.794 146.036C78.7051 146.122 77.6339 146.358 76.6104 146.736C74.6575 147.421 72.6122 147.815 70.5445 147.901C69.4589 147.906 68.378 147.74 67.345 147.409C64.9808 146.388 62.9562 144.718 61.5039 142.593C60.5824 141.282 59.4139 140.165 58.0652 139.301C56.7755 138.968 55.4364 138.867 54.1116 139.004C51.3154 139.317 48.4874 138.837 45.9494 137.62C43.6554 136.044 41.8858 133.817 40.8655 131.228C40.4367 130.177 39.8357 129.206 39.0896 128.35C37.7569 127.662 36.2998 127.247 34.8029 127.129C32.3351 126.982 29.9709 126.08 28.0323 124.548C25.9711 122.225 24.7738 119.262 24.6431 116.159C24.5618 115.2 24.3546 114.254 24.0293 113.349C23.0585 111.984 21.9139 110.752 20.6242 109.686C20.3372 109.424 20.0455 109.159 19.7617 108.892L18.6936 110.377C15.8496 114.522 10.2715 115.739 5.96084 113.153C5.21795 112.697 4.32201 112.568 3.48028 112.794C2.63218 113.025 1.90842 113.575 1.45567 114.328C-4.09529 123.992 6.38489 138.097 30.2196 153.017C32.1135 154.192 34.1046 155.4 36.1946 156.609C38.283 157.817 40.3076 158.927 42.2668 159.971C56.5013 167.547 68.5821 171.529 77.2018 171.529C85.0373 171.529 88.5636 168.264 90.1626 165.522C90.9931 163.877 90.3921 161.87 88.7948 160.951Z" fill="white"/>
<path d="M174.119 155.378C172.566 156.422 170.959 157.477 169.245 158.55C167.286 159.771 165.226 161.016 163.077 162.26L162.379 162.652C160.479 163.722 158.637 164.755 156.877 165.711C156.495 165.914 156.136 166.083 155.758 166.279C155.997 167.368 156.404 168.412 156.965 169.375C160.098 174.725 166.945 176.571 172.343 173.521V173.478C175.512 171.709 177.613 168.499 177.967 164.887C178.321 161.275 176.884 157.72 174.119 155.368V155.378Z" fill="white"/>
<path d="M194.545 114.328C193.533 112.794 191.505 112.31 189.909 113.218C185.591 115.737 180.057 114.465 177.274 110.312L176.239 108.895C175.954 109.159 175.664 109.424 175.377 109.685C174.084 110.752 172.937 111.984 171.965 113.349C171.638 114.254 171.433 115.2 171.351 116.159C171.221 119.263 170.022 122.225 167.959 124.548C166.02 126.082 163.658 126.982 161.19 127.129C159.695 127.247 158.237 127.662 156.903 128.35C156.157 129.206 155.558 130.177 155.127 131.228C154.112 133.815 152.349 136.041 150.061 137.62C147.523 138.837 144.695 139.317 141.899 139.004C140.574 138.867 139.235 138.968 137.945 139.301C136.596 140.165 135.428 141.282 134.506 142.593C133.054 144.718 131.03 146.388 128.665 147.409C127.632 147.74 126.551 147.906 125.466 147.901C123.398 147.815 121.353 147.421 119.4 146.736C118.378 146.352 117.308 146.117 116.22 146.036C114.748 146.188 113.242 146.481 111.783 146.768C111.313 146.86 110.83 146.954 110.347 147.042L111.067 148.643C113.208 153.226 111.423 158.683 106.986 161.114C105.475 162.032 104.969 163.985 105.845 165.522C107.437 168.254 110.963 171.519 118.799 171.519C127.419 171.519 139.498 167.537 153.766 159.961C155.693 158.917 157.716 157.774 159.806 156.599C161.896 155.423 163.887 154.182 165.781 153.008C189.614 138.097 200.094 123.992 194.545 114.328Z" fill="white"/>
<path d="M88.804 124.178C87.044 127.201 83.8142 129.066 80.315 129.075H79.5259C75.7843 128.758 72.5497 126.343 71.1835 122.847L67.3957 113.031L57.0431 114.685C56.5329 114.764 56.0164 114.804 55.4999 114.804C52.0022 114.798 48.7724 112.931 47.0204 109.905C45.2668 106.879 45.2556 103.149 46.9901 100.112L57.7062 81.575L48.9239 85.3261C45.0277 87.0063 40.6245 87.0797 36.6741 85.5317L23.6146 103.535C24.0546 103.975 24.5934 104.461 25.0111 104.84C26.7583 106.298 28.2967 107.989 29.5832 109.865C30.4648 111.525 30.9909 113.35 31.1264 115.225C31.163 116.872 31.6684 118.472 32.5866 119.839C33.6213 120.293 34.7244 120.575 35.8515 120.676C38.356 120.896 40.7744 121.705 42.9058 123.038C44.5909 124.454 45.8997 126.263 46.7159 128.305C47.242 129.705 48.0965 130.958 49.2076 131.958C50.7301 132.492 52.3546 132.667 53.9551 132.471C56.2794 132.235 58.6261 132.543 60.8117 133.368C63.0755 134.598 65.0331 136.326 66.5348 138.419C67.2905 139.52 68.2566 140.464 69.3757 141.194C71.1867 141.457 73.0375 141.217 74.7226 140.502C76.5543 139.814 78.504 139.493 80.4585 139.555C82.2216 139.736 83.9561 140.075 85.4833 140.375C86.3617 140.549 87.4952 140.777 88.423 140.901L94.4235 127.483L91.1586 120.143L88.804 124.178Z" fill="white"/>
<path d="M110.519 140.359C112.048 140.059 113.784 139.705 115.544 139.54C117.5 139.471 119.449 139.793 121.281 140.487C122.968 141.207 124.819 141.454 126.634 141.201C127.752 140.469 128.716 139.527 129.472 138.427C130.974 136.332 132.93 134.606 135.195 133.375C137.381 132.549 139.727 132.241 142.052 132.477C143.652 132.673 145.277 132.498 146.799 131.966C147.91 130.964 148.765 129.711 149.289 128.312C150.107 126.27 151.416 124.46 153.099 123.045C155.232 121.712 157.651 120.902 160.155 120.682C161.282 120.583 162.386 120.299 163.42 119.845C164.34 118.48 164.847 116.878 164.884 115.233C165.019 113.357 165.544 111.531 166.427 109.872C167.713 107.995 169.252 106.304 170.999 104.847C171.426 104.461 171.955 103.975 172.395 103.541L159.336 85.5349C157.475 86.2555 155.5 86.627 153.504 86.6317C151.32 86.627 149.157 86.1933 147.139 85.358L138.251 81.5415L148.943 100.087C150.686 103.122 150.681 106.856 148.929 109.886C147.179 112.917 143.946 114.787 140.445 114.791C139.943 114.791 139.44 114.752 138.943 114.673L128.562 113.022L124.811 122.817C123.478 126.354 120.215 128.796 116.446 129.075H115.665C112.166 129.069 108.934 127.204 107.176 124.178L97.9821 108.252L95.1715 113.121L107.577 140.855C108.508 140.751 109.637 140.533 110.519 140.359Z" fill="white"/>
<path d="M52.8152 106.851C53.5294 107.887 54.7729 108.42 56.0147 108.223L71.5883 105.741L77.27 120.467C77.7164 121.637 78.7957 122.45 80.0439 122.555H80.3053C81.4771 122.56 82.5611 121.937 83.1462 120.923L94.2114 101.738L81.7226 80.102H78.4115C74.6715 80.0893 71.1181 78.4648 68.663 75.6431L52.6654 103.348C52.0388 104.448 52.0978 105.81 52.8152 106.851Z" fill="white"/>
<path d="M89.2619 80.1019L112.824 120.913C113.411 121.927 114.493 122.55 115.665 122.546H115.926C117.179 122.448 118.262 121.634 118.702 120.456L124.35 105.732L139.924 108.212C141.167 108.404 142.41 107.868 143.126 106.833C143.842 105.797 143.904 104.445 143.286 103.348L127.323 75.6621C124.87 78.4727 121.323 80.0908 117.591 80.1019H89.2619Z" fill="white"/>
<path d="M37.1113 78.5124C38.7119 79.5614 40.5851 80.1146 42.4981 80.1018C43.8229 80.1002 45.1317 79.834 46.3512 79.3191L66.006 70.9018C65.5931 69.6567 65.3731 68.3543 65.3523 67.0423V34.3933C65.3731 33.0845 65.5931 31.7868 66.006 30.5434L46.3512 22.1277C43.3255 20.8332 39.8533 21.1441 37.1065 22.9567C34.3582 24.7676 32.705 27.838 32.7034 31.1284V70.3072C32.7002 73.6087 34.3566 76.6919 37.1113 78.5124Z" fill="white"/>
<path d="M129.998 70.9051L149.613 79.3288C150.847 79.8389 152.17 80.102 153.504 80.102C155.419 80.1116 157.294 79.5552 158.892 78.503C161.644 76.6841 163.3 73.6057 163.299 70.3073V31.1286C163.302 27.8366 161.649 24.763 158.902 22.9488C156.154 21.1346 152.68 20.8222 149.653 22.1182L129.998 30.5547C130.409 31.7934 130.629 33.0878 130.65 34.3935V67.0424C130.631 68.356 130.411 69.6585 129.998 70.9051Z" fill="white"/>
<path d="M78.4117 27.8733H117.59C121.198 27.8733 124.12 30.797 124.12 34.4031V67.052C124.12 70.6581 121.198 73.5818 117.59 73.5818H78.4117C74.8056 73.5818 71.8819 70.6581 71.8819 67.052V34.4031C71.8819 30.797 74.8056 27.8733 78.4117 27.8733Z" fill="white"/>
</g>
<defs>
<clipPath id="clip0_0_3588">
<rect width="196" height="196" fill="white"/>
</clipPath>
</defs>
</svg>
