<svg width="54" height="54" viewBox="0 0 54 54" fill="none" xmlns="http://www.w3.org/2000/svg">
<g clip-path="url(#clip0_166_5438)">
<path d="M21.8162 35.3541C21.6542 35.3541 18.0902 35.3541 16.4702 35.3541C15.6062 35.3541 15.3362 35.0301 15.3362 34.2201C15.3362 32.0601 15.3362 29.8461 15.3362 27.6861C15.3362 26.8221 15.6602 26.5521 16.4702 26.5521H21.8162C21.8162 26.3901 21.8162 23.2581 21.8162 21.8001C21.8162 19.6401 22.1942 17.5881 23.2742 15.6981C24.4082 13.7541 26.0282 12.4581 28.0802 11.7021C29.4302 11.2161 30.7802 11.0001 32.2382 11.0001H37.5302C38.2862 11.0001 38.6102 11.3241 38.6102 12.0801V18.2361C38.6102 18.9921 38.2862 19.3161 37.5302 19.3161C36.0722 19.3161 34.6142 19.3161 33.1562 19.3701C31.6982 19.3701 30.9422 20.0721 30.9422 21.5841C30.8882 23.2041 30.9422 24.7701 30.9422 26.4441H37.2062C38.0702 26.4441 38.3942 26.7681 38.3942 27.6321V34.1661C38.3942 35.0301 38.1242 35.3001 37.2062 35.3001C35.2622 35.3001 31.1042 35.3001 30.9422 35.3001V52.9041C30.9422 53.8221 30.6722 54.1461 29.7002 54.1461C27.4322 54.1461 25.2182 54.1461 22.9502 54.1461C22.1402 54.1461 21.8162 53.8221 21.8162 53.0121C21.8162 47.3421 21.8162 35.5161 21.8162 35.3541Z" fill="white"/>
</g>
<defs>
<clipPath id="clip0_166_5438">
<rect width="54" height="54" fill="white" transform="translate(0 0.00012207)"/>
</clipPath>
</defs>
</svg>
