<svg width="54" height="54" viewBox="0 0 54 54" fill="none" xmlns="http://www.w3.org/2000/svg">
<path d="M21.8162 29.8081C21.6542 29.8081 18.0902 29.8081 16.4702 29.8081C15.6062 29.8081 15.3362 29.4841 15.3362 28.6741C15.3362 26.5141 15.3362 24.3001 15.3362 22.1401C15.3362 21.2761 15.6602 21.0061 16.4702 21.0061H21.8162C21.8162 20.8441 21.8162 17.7121 21.8162 16.2541C21.8162 14.0941 22.1942 12.0421 23.2742 10.1521C24.4082 8.2081 26.0282 6.9121 28.0802 6.1561C29.4302 5.6701 30.7802 5.4541 32.2382 5.4541H37.5302C38.2862 5.4541 38.6102 5.7781 38.6102 6.5341V12.6901C38.6102 13.4461 38.2862 13.7701 37.5302 13.7701C36.0722 13.7701 34.6142 13.7701 33.1562 13.8241C31.6982 13.8241 30.9422 14.5261 30.9422 16.0381C30.8882 17.6581 30.9422 19.2241 30.9422 20.8981H37.2062C38.0702 20.8981 38.3942 21.2221 38.3942 22.0861V28.6201C38.3942 29.4841 38.1242 29.7541 37.2062 29.7541C35.2622 29.7541 31.1042 29.7541 30.9422 29.7541V47.3581C30.9422 48.2761 30.6722 48.6001 29.7002 48.6001C27.4322 48.6001 25.2182 48.6001 22.9502 48.6001C22.1402 48.6001 21.8162 48.2761 21.8162 47.4661C21.8162 41.7961 21.8162 29.9701 21.8162 29.8081Z" fill="white"/>
</svg>
