<svg width="171" height="171" viewBox="0 0 171 171" fill="none" xmlns="http://www.w3.org/2000/svg">
<g clip-path="url(#clip0_63_1605)">
<path d="M165.886 60.9648H160.905V55.9844C160.905 53.2315 158.678 51.0039 155.925 51.0039C153.172 51.0039 150.944 53.2315 150.944 55.9844V60.9648H145.964C143.211 60.9648 140.983 63.1924 140.983 65.9453C140.983 68.6982 143.211 70.9258 145.964 70.9258H150.944V75.9062C150.944 78.6591 153.172 80.8867 155.925 80.8867C158.678 80.8867 160.905 78.6591 160.905 75.9062V70.9258H165.886C168.639 70.9258 170.866 68.6982 170.866 65.9453C170.866 63.1924 168.639 60.9648 165.886 60.9648Z" fill="white"/>
<path d="M145.632 41.043C148.382 41.043 150.612 38.8131 150.612 36.0625C150.612 33.3119 148.382 31.082 145.632 31.082C142.881 31.082 140.651 33.3119 140.651 36.0625C140.651 38.8131 142.881 41.043 145.632 41.043Z" fill="white"/>
<path d="M125.71 70.9255C128.461 70.9255 130.69 68.6957 130.69 65.9451C130.69 63.1944 128.461 60.9646 125.71 60.9646C122.959 60.9646 120.729 63.1944 120.729 65.9451C120.729 68.6957 122.959 70.9255 125.71 70.9255Z" fill="white"/>
<path d="M82.3447 122.189C84.2901 120.244 87.442 120.244 89.3874 122.189L90.8467 123.648V80.8865H80.8857V123.648L82.3447 122.189Z" fill="white"/>
<path d="M135.67 80.8865H100.807V135.671C100.807 137.685 99.5963 139.504 97.7333 140.272C97.1157 140.53 96.4686 140.652 95.8268 140.652C94.5332 140.652 93.2589 140.146 92.3056 139.192L85.8659 132.753L79.4262 139.192C77.9961 140.623 75.8658 141.046 73.9982 140.272C72.1355 139.504 70.9242 137.685 70.9242 135.671V80.8865H68.1319L31.0811 102.278V165.886C31.0811 168.639 33.3086 170.866 36.0615 170.866H135.67C138.423 170.866 140.651 168.639 140.651 165.886V85.8669C140.651 83.1141 138.423 80.8865 135.67 80.8865V80.8865Z" fill="white"/>
<path d="M123.969 31.3942L114.009 14.142C113.347 12.9991 112.258 12.1624 110.984 11.8221C109.714 11.4864 108.348 11.6617 107.205 12.3181L91.8821 21.1647C91.8944 17.6897 91.0707 13.9215 89.2867 10.8336C86.6261 6.22272 82.3316 2.92534 77.1905 1.54875C72.0593 0.182115 66.6848 0.882365 62.0742 3.53794C55.6883 7.22944 51.8703 14.1018 52.123 21.4752L52.1572 22.5257C52.1572 22.5645 52.1572 22.5987 52.1621 22.6376L52.6486 37.3485L40.3678 29.6962C40.3628 29.6912 40.3532 29.6866 40.3482 29.6816L39.4534 29.1221C33.189 25.2264 25.3388 25.0803 18.9433 28.7718C14.3324 31.4324 11.035 35.7268 9.65839 40.868C8.2818 46.0091 8.98736 51.3784 11.6476 55.9893C13.4654 59.1319 16.0244 61.5753 18.9668 63.2637L3.35947 72.0834C0.976823 73.4593 0.161027 76.505 1.53629 78.8877L11.8275 96.1412C13.2028 98.5232 16.2485 99.3397 18.6312 97.9644L122.147 38.1978C124.529 36.8229 125.344 33.7768 123.969 31.3942V31.3942ZM33.8786 54.6538C29.1176 57.3921 23.0173 55.7642 20.2754 51.0092C17.5275 46.2525 19.1664 40.1435 23.923 37.4006C27.1185 35.5475 31.0534 35.6252 34.1808 37.5756L48.2595 46.3508L33.8786 54.6538ZM81.6556 23.7041C80.9703 26.2697 79.3228 28.4176 77.0205 29.7453L62.6353 38.0507L62.0742 21.1345C61.9527 17.443 63.8642 14.0091 67.0546 12.1657C69.3503 10.8283 72.0351 10.483 74.613 11.1686C77.1809 11.8593 79.3308 13.5081 80.6586 15.8134C81.9913 18.1193 82.3463 21.1312 81.6556 23.7041V23.7041Z" fill="white"/>
</g>
<defs>
<clipPath id="clip0_63_1605">
<rect width="170" height="170" fill="white" transform="translate(0.866211 0.866455)"/>
</clipPath>
</defs>
</svg>
