<svg width="512" height="512" viewBox="0 0 512 512" fill="none" xmlns="http://www.w3.org/2000/svg">
<path d="M80 80H112V96H80V80Z" fill="white"/>
<path d="M32 80H64V96H32V80Z" fill="white"/>
<path d="M64 96H80V128H64V96Z" fill="white"/>
<path d="M64 48H80V80H64V48Z" fill="white"/>
<path d="M440 176H472V192H440V176Z" fill="white"/>
<path d="M392 176H424V192H392V176Z" fill="white"/>
<path d="M424 192H440V224H424V192Z" fill="white"/>
<path d="M424 144H440V176H424V144Z" fill="white"/>
<path d="M304 64H336V80H304V64Z" fill="white"/>
<path d="M256 64H288V80H256V64Z" fill="white"/>
<path d="M288 80H304V112H288V80Z" fill="white"/>
<path d="M288 32H304V64H288V32Z" fill="white"/>
<path d="M56 400C51.2533 400 46.6131 398.592 42.6663 395.955C38.7195 393.318 35.6434 389.57 33.8269 385.184C32.0104 380.799 31.5351 375.973 32.4612 371.318C33.3872 366.662 35.673 362.386 39.0294 359.029C42.3859 355.673 46.6623 353.387 51.3178 352.461C55.9734 351.535 60.799 352.01 65.1844 353.827C69.5698 355.643 73.3181 358.72 75.9553 362.666C78.5924 366.613 80 371.253 80 376C80 382.365 77.4714 388.47 72.9706 392.971C68.4697 397.471 62.3652 400 56 400ZM56 368C54.4178 368 52.871 368.469 51.5554 369.348C50.2399 370.227 49.2145 371.477 48.609 372.939C48.0035 374.4 47.845 376.009 48.1537 377.561C48.4624 379.113 49.2243 380.538 50.3432 381.657C51.462 382.776 52.8874 383.538 54.4393 383.846C55.9911 384.155 57.5997 383.997 59.0615 383.391C60.5233 382.786 61.7727 381.76 62.6518 380.445C63.5308 379.129 64 377.582 64 376C64 373.878 63.1572 371.843 61.6569 370.343C60.1566 368.843 58.1217 368 56 368Z" fill="white"/>
<path d="M432 104C427.253 104 422.613 102.592 418.666 99.9553C414.72 97.3181 411.643 93.5698 409.827 89.1844C408.01 84.799 407.535 79.9734 408.461 75.3178C409.387 70.6623 411.673 66.3859 415.029 63.0294C418.386 59.673 422.662 57.3872 427.318 56.4612C431.973 55.5351 436.799 56.0104 441.184 57.8269C445.57 59.6434 449.318 62.7195 451.955 66.6663C454.592 70.6131 456 75.2533 456 80C456 86.3652 453.471 92.4697 448.971 96.9706C444.47 101.471 438.365 104 432 104ZM432 72C430.418 72 428.871 72.4692 427.555 73.3483C426.24 74.2273 425.214 75.4767 424.609 76.9385C424.003 78.4003 423.845 80.0089 424.154 81.5607C424.462 83.1126 425.224 84.538 426.343 85.6569C427.462 86.7757 428.887 87.5376 430.439 87.8463C431.991 88.155 433.6 87.9965 435.061 87.391C436.523 86.7855 437.773 85.7602 438.652 84.4446C439.531 83.129 440 81.5823 440 80C440 77.8783 439.157 75.8434 437.657 74.3432C436.157 72.8429 434.122 72 432 72Z" fill="white"/>
<path d="M132 320H224V472H132V320Z" fill="white"/>
<path d="M288 320H380V472H288V320Z" fill="white"/>
<path d="M56 184H72V200H56V184Z" fill="white"/>
<path d="M456 336H472V352H456V336Z" fill="white"/>
<path d="M342.4 175.48C337.513 169.644 331.173 165.2 324.021 162.597C316.868 159.993 309.155 159.322 301.66 160.651C294.165 161.98 287.154 165.262 281.332 170.167C275.511 175.071 271.086 181.424 268.504 188.584L256 224L243.456 188.528C240.861 181.371 236.427 175.024 230.599 170.125C224.771 165.227 217.755 161.951 210.258 160.627C202.761 159.303 195.048 159.977 187.895 162.582C180.741 165.187 174.401 169.631 169.511 175.466C164.622 181.302 161.356 188.322 160.043 195.821C158.73 203.32 159.416 211.032 162.032 218.182C164.647 225.331 169.101 231.665 174.943 236.546C180.786 241.427 187.811 244.682 195.312 245.984L256 256.112L316.752 245.968C324.24 244.65 331.249 241.384 337.074 236.497C342.899 231.611 347.334 225.276 349.934 218.132C352.534 210.987 353.206 203.283 351.883 195.796C350.561 188.309 347.29 181.302 342.4 175.48ZM198.016 230.208C193.292 229.378 188.869 227.319 185.193 224.238C181.516 221.157 178.715 217.163 177.072 212.657C175.428 208.151 174.999 203.291 175.829 198.567C176.658 193.843 178.716 189.42 181.797 185.743C184.877 182.066 188.871 179.265 193.377 177.62C197.883 175.976 202.742 175.547 207.466 176.375C212.191 177.204 216.614 179.262 220.291 182.341C223.969 185.421 226.771 189.414 228.416 193.92L243.952 237.872L198.016 230.208ZM326.816 224.264C323.157 227.328 318.756 229.375 314.056 230.2L268.08 237.872L283.6 193.984C285.496 188.718 288.97 184.166 293.549 180.948C298.127 177.729 303.587 176.001 309.184 176C309.984 176 310.784 176 311.584 176.104C316.97 176.572 322.096 178.627 326.314 182.009C330.532 185.391 333.651 189.949 335.279 195.104C336.906 200.26 336.967 205.782 335.455 210.973C333.943 216.163 330.925 220.789 326.784 224.264H326.816Z" fill="white"/>
<path d="M164.632 248.8C164.336 248.552 164.08 248.272 163.792 248H112V304H224V266.992L192.68 261.76C182.353 259.982 172.679 255.512 164.632 248.8Z" fill="white"/>
<path d="M240 472H272V269.664L256 272.336L240 269.664V472Z" fill="white"/>
<path d="M348.216 248C347.928 248.248 347.672 248.528 347.376 248.8C339.386 255.493 329.772 259.96 319.504 261.752L288 266.992V304H400V248H348.216Z" fill="white"/>
<path d="M184 104H200V120H184V104Z" fill="white"/>
</svg>
