<svg width="196" height="196" viewBox="0 0 196 196" fill="none" xmlns="http://www.w3.org/2000/svg">
<g clip-path="url(#clip0_28_13578)">
<path d="M155.422 92.254H77.5502L145.572 52.9816C148.318 51.396 149.259 47.8841 147.673 45.1378L130.447 15.3006C128.862 12.5566 125.355 11.6145 122.61 13.1952L105.028 23.3133C105.08 19.1777 104.037 15.1119 101.942 11.4836C95.6094 0.515634 81.5353 -3.2566 70.5666 3.07627C63.2009 7.32855 58.8043 15.2539 59.0925 23.7573L59.7023 42.0584C59.7023 42.0584 44.4809 32.5716 44.479 32.5701C37.258 28.0724 28.2007 27.9189 20.8373 32.17C15.5239 35.2375 11.7233 40.1907 10.1354 46.117C8.54787 52.043 9.36249 58.233 12.4304 63.5457C14.4474 67.0396 17.2836 69.8736 20.6719 71.8604L2.87765 82.101C1.54814 82.8659 0.58039 84.1311 0.189539 85.6145C-0.201313 87.0975 0.017656 88.6754 0.797062 89.9965L18.4064 119.834C20.007 122.546 23.4948 123.463 26.2227 121.888L34.836 116.915V190.254C34.836 193.425 37.407 195.996 40.5782 195.996H155.422C158.593 195.996 161.164 193.425 161.164 190.254V97.9962C161.164 94.8249 158.593 92.254 155.422 92.254ZM92.2579 103.738H103.742V141.555L102.06 139.874C99.818 137.631 96.1821 137.631 93.9396 139.874L92.2579 141.555V103.738ZM76.3087 13.0221C81.7929 9.85626 88.8298 11.742 91.9964 17.2258C95.016 22.4562 93.4752 29.2962 88.695 32.7132L71.2166 42.772L70.5704 23.3699C70.4261 19.1138 72.6249 15.1486 76.3087 13.0221ZM29.3495 63.1549C26.3865 62.3609 23.9101 60.4606 22.3762 57.8039C20.8423 55.1472 20.435 52.0525 21.2289 49.0892C22.0225 46.1262 23.9231 43.6498 26.5799 42.1159C30.2606 39.9909 34.7893 40.0674 38.4023 42.3153C38.4053 42.3168 38.4084 42.3188 38.4111 42.3207L54.537 52.371L36.4553 62.777C34.1986 63.6533 31.731 63.793 29.3495 63.1549V63.1549ZM25.4058 109.098L13.6381 89.1589C25.4234 82.3763 111.991 32.5563 123.369 26.0087L134.857 45.9072L25.4058 109.098ZM149.68 184.512H46.3204V110.284L57.6589 103.738H80.7735V155.418C80.7735 157.741 82.1723 159.835 84.3183 160.723C86.4636 161.612 88.9343 161.121 90.5762 159.478L98 152.055L105.424 159.479C107.069 161.124 109.54 161.61 111.682 160.723C113.828 159.835 115.227 157.741 115.227 155.418V103.739H149.68V184.512H149.68Z" fill="white"/>
<path d="M190.258 69.2853H184.516V63.5431C184.516 60.3719 181.945 57.8009 178.773 57.8009C175.602 57.8009 173.031 60.3719 173.031 63.5431V69.2853H167.289C164.118 69.2853 161.547 71.8562 161.547 75.0275C161.547 78.1987 164.118 80.7697 167.289 80.7697H173.031V86.5118C173.031 89.6831 175.602 92.254 178.773 92.254C181.945 92.254 184.516 89.6831 184.516 86.5118V80.7697H190.258C193.429 80.7697 196 78.1987 196 75.0275C196 71.8562 193.429 69.2853 190.258 69.2853Z" fill="white"/>
<path d="M166.906 46.3165C170.078 46.3165 172.648 43.7456 172.648 40.5743C172.648 37.403 170.078 34.8321 166.906 34.8321C163.735 34.8321 161.164 37.403 161.164 40.5743C161.164 43.7456 163.735 46.3165 166.906 46.3165Z" fill="white"/>
<path d="M143.938 80.7697C147.109 80.7697 149.68 78.1988 149.68 75.0275C149.68 71.8561 147.109 69.2853 143.938 69.2853C140.766 69.2853 138.195 71.8561 138.195 75.0275C138.195 78.1988 140.766 80.7697 143.938 80.7697Z" fill="white"/>
</g>
<defs>
<clipPath id="clip0_28_13578">
<rect width="196" height="196" fill="white"/>
</clipPath>
</defs>
</svg>
