<svg width="299" height="323" viewBox="0 0 299 323" fill="none" xmlns="http://www.w3.org/2000/svg">
<g filter="url(#filter0_d_29_13593)">
<path d="M46.7188 50.4688H65.4062V60.5625H46.7188V50.4688Z" fill="white"/>
<path d="M18.6875 50.4688H37.375V60.5625H18.6875V50.4688Z" fill="white"/>
<path d="M37.375 60.5625H46.7188V80.75H37.375V60.5625Z" fill="white"/>
<path d="M37.375 30.2812H46.7188V50.4688H37.375V30.2812Z" fill="white"/>
<path d="M256.953 111.031H275.641V121.125H256.953V111.031Z" fill="white"/>
<path d="M228.922 111.031H247.609V121.125H228.922V111.031Z" fill="white"/>
<path d="M247.609 121.125H256.953V141.312H247.609V121.125Z" fill="white"/>
<path d="M247.609 90.8438H256.953V111.031H247.609V90.8438Z" fill="white"/>
<path d="M177.531 40.375H196.219V50.4688H177.531V40.375Z" fill="white"/>
<path d="M149.5 40.375H168.188V50.4688H149.5V40.375Z" fill="white"/>
<path d="M168.188 50.4688H177.531V70.6562H168.188V50.4688Z" fill="white"/>
<path d="M168.188 20.1875H177.531V40.375H168.188V20.1875Z" fill="white"/>
<path d="M32.7031 252.344C29.9311 252.344 27.2213 251.456 24.9165 249.792C22.6116 248.128 20.8152 245.764 19.7544 242.997C18.6936 240.231 18.416 237.186 18.9568 234.249C19.4976 231.312 20.8325 228.615 22.7926 226.497C24.7527 224.38 27.2501 222.938 29.9688 222.353C32.6876 221.769 35.5057 222.069 38.0667 223.215C40.6277 224.361 42.8166 226.302 44.3567 228.791C45.8967 231.281 46.7188 234.209 46.7188 237.203C46.7188 241.219 45.2421 245.07 42.6137 247.909C39.9852 250.749 36.4203 252.344 32.7031 252.344V252.344ZM32.7031 232.156C31.7791 232.156 30.8759 232.452 30.1076 233.007C29.3393 233.561 28.7405 234.35 28.3869 235.272C28.0333 236.194 27.9408 237.209 28.121 238.188C28.3013 239.167 28.7462 240.066 29.3996 240.772C30.053 241.478 30.8854 241.958 31.7917 242.153C32.6979 242.348 33.6373 242.248 34.491 241.866C35.3447 241.484 36.0743 240.837 36.5877 240.007C37.101 239.177 37.375 238.201 37.375 237.203C37.375 235.865 36.8828 234.581 36.0066 233.634C35.1305 232.688 33.9422 232.156 32.7031 232.156Z" fill="white"/>
<path d="M252.281 65.6094C249.509 65.6094 246.799 64.7214 244.495 63.0577C242.19 61.3941 240.393 59.0294 239.333 56.2628C238.272 53.4962 237.994 50.452 238.535 47.515C239.076 44.578 240.411 41.8802 242.371 39.7627C244.331 37.6453 246.828 36.2033 249.547 35.6191C252.266 35.0349 255.084 35.3347 257.645 36.4806C260.206 37.6266 262.395 39.5672 263.935 42.0571C265.475 44.5469 266.297 47.4742 266.297 50.4688C266.297 54.4843 264.82 58.3354 262.192 61.1748C259.563 64.0142 255.998 65.6094 252.281 65.6094ZM252.281 45.4219C251.357 45.4219 250.454 45.7179 249.686 46.2724C248.917 46.827 248.319 47.6152 247.965 48.5374C247.611 49.4596 247.519 50.4744 247.699 51.4534C247.879 52.4324 248.324 53.3316 248.978 54.0374C249.631 54.7433 250.464 55.2239 251.37 55.4187C252.276 55.6134 253.215 55.5134 254.069 55.1315C254.923 54.7495 255.652 54.1026 256.166 53.2727C256.679 52.4427 256.953 51.4669 256.953 50.4688C256.953 49.1302 256.461 47.8466 255.585 46.9001C254.709 45.9536 253.52 45.4219 252.281 45.4219Z" fill="white"/>
<path d="M32.7031 116.078H42.0469V126.172H32.7031V116.078Z" fill="white"/>
<path d="M266.297 211.969H275.641V222.062H266.297V211.969Z" fill="white"/>
<path d="M107.453 65.6094H116.797V75.7031H107.453V65.6094Z" fill="white"/>
</g>
<defs>
<filter id="filter0_d_29_13593" x="-4" y="0" width="307" height="331" filterUnits="userSpaceOnUse" color-interpolation-filters="sRGB">
<feFlood flood-opacity="0" result="BackgroundImageFix"/>
<feColorMatrix in="SourceAlpha" type="matrix" values="0 0 0 0 0 0 0 0 0 0 0 0 0 0 0 0 0 0 127 0" result="hardAlpha"/>
<feOffset dy="4"/>
<feGaussianBlur stdDeviation="2"/>
<feComposite in2="hardAlpha" operator="out"/>
<feColorMatrix type="matrix" values="0 0 0 0 0 0 0 0 0 0 0 0 0 0 0 0 0 0 0.25 0"/>
<feBlend mode="normal" in2="BackgroundImageFix" result="effect1_dropShadow_29_13593"/>
<feBlend mode="normal" in="SourceGraphic" in2="effect1_dropShadow_29_13593" result="shape"/>
</filter>
</defs>
</svg>
