<svg width="46" height="46" viewBox="0 0 46 46" fill="none" xmlns="http://www.w3.org/2000/svg">
<g clip-path="url(#clip0_166_5433)">
<path d="M0.701477 45.8146H12.6122V14.4939H0.701477V45.8146ZM3.39679 17.1892H9.91684V43.1192H3.39679V17.1892Z" fill="white"/>
<path d="M6.65733 0.185425C2.98641 0.185425 0 3.17192 0 6.84276C0 10.5136 2.98641 13.5002 6.65733 13.5002C10.3283 13.5002 13.3148 10.5137 13.3148 6.84276C13.3148 3.17183 10.3282 0.185425 6.65733 0.185425ZM2.69531 6.84276C2.69531 4.65812 4.4726 2.88074 6.65733 2.88074C8.84206 2.88074 10.6194 4.65803 10.6194 6.84276C10.6194 9.02749 8.84206 10.8049 6.65733 10.8049C4.4726 10.8049 2.69531 9.0274 2.69531 6.84276Z" fill="white"/>
<path d="M45.9713 24.3287C45.5474 18.2324 40.4622 13.5345 34.1578 13.5345C31.3379 13.5345 28.6759 14.5149 26.5785 16.2545V14.4935H15.1656V45.8142H27.0764V28.6843C27.0764 26.7537 28.647 25.1831 30.5776 25.1831C32.5081 25.1831 34.0787 26.7537 34.0787 28.6851L34.0902 45.8143H46.0001V24.3577L45.9713 24.3287ZM24.3811 43.1191H17.861V17.1889H23.8831V21.0385L26.0398 21.0509L26.4405 20.4288C28.1341 17.7995 31.019 16.2299 34.1578 16.2299C39.1743 16.2299 43.191 20.0575 43.3021 24.9434L43.3048 43.1191H36.7838L36.7741 28.6843C36.7741 25.2675 33.9943 22.4877 30.5776 22.4877C27.1609 22.4877 24.3811 25.2675 24.3811 28.6843V43.1191Z" fill="white"/>
</g>
<defs>
<clipPath id="clip0_166_5433">
<rect width="46" height="46" fill="white" transform="translate(0 0.00012207)"/>
</clipPath>
</defs>
</svg>
