<svg width="46" height="46" viewBox="0 0 46 46" fill="none" xmlns="http://www.w3.org/2000/svg">
<g clip-path="url(#clip0_0_2700)">
<path d="M0.701538 45.8145H12.6122V14.4938H0.701538V45.8145ZM3.39685 17.1891H9.9169V43.1191H3.39685V17.1891Z" fill="white"/>
<path d="M6.65733 0.185303C2.98641 0.185303 0 3.1718 0 6.84263C0 10.5135 2.98641 13.5001 6.65733 13.5001C10.3283 13.5001 13.3148 10.5136 13.3148 6.84263C13.3148 3.17171 10.3282 0.185303 6.65733 0.185303ZM2.69531 6.84263C2.69531 4.65799 4.4726 2.88061 6.65733 2.88061C8.84206 2.88061 10.6194 4.6579 10.6194 6.84263C10.6194 9.02736 8.84206 10.8047 6.65733 10.8047C4.4726 10.8047 2.69531 9.02728 2.69531 6.84263Z" fill="white"/>
<path d="M45.9713 24.3286C45.5474 18.2323 40.4622 13.5344 34.1578 13.5344C31.3379 13.5344 28.6759 14.5148 26.5785 16.2544V14.4934H15.1656V45.8141H27.0764V28.6841C27.0764 26.7536 28.647 25.1829 30.5776 25.1829C32.5081 25.1829 34.0787 26.7536 34.0787 28.685L34.0902 45.8142H46.0001V24.3575L45.9713 24.3286ZM24.3811 43.119H17.861V17.1888H23.8831V21.0384L26.0398 21.0508L26.4405 20.4287C28.1341 17.7994 31.019 16.2298 34.1578 16.2298C39.1743 16.2298 43.191 20.0573 43.3021 24.9433L43.3048 43.119H36.7838L36.7741 28.6841C36.7741 25.2674 33.9943 22.4876 30.5776 22.4876C27.1609 22.4876 24.3811 25.2674 24.3811 28.6841V43.119Z" fill="white"/>
</g>
<defs>
<clipPath id="clip0_0_2700">
<rect width="46" height="46" fill="white"/>
</clipPath>
</defs>
</svg>
