<svg width="100%" xmlns="http://www.w3.org/2000/svg" fill="none" viewBox="0 0 1276 500">
  <path class="start" fill="currentColor" d="m790.08 403.08 3.1 4.3 1.53-5.08 5.05-1.62-4.35-3.03.02-5.3-4.23 3.21-5.03-1.66 1.74 5.01-3.13 4.28 5.3-.11Zm-318.91 2.21 4.45 4.17.6-6.07 5.34-2.95-5.58-2.44-1.15-5.99-4.05 4.56-6.05-.76 3.08 5.26-2.59 5.52 5.95-1.3Zm282.79-111.25 3.91 3.12.09-5.01 4.17-2.76-4.72-1.63-1.34-4.82-3.01 4-4.99-.22 2.86 4.1-1.75 4.68 4.78-1.46Zm-245.27.29 3.37 2.5-.07-4.2 3.421-2.44-4.01-1.23-1.271-4.01-2.409 3.44-4.2-.04 2.529 3.36-1.339 3.99 3.979-1.37ZM628.4 35.16l13.78 7.22-2.66-15.34 11.12-10.89-15.4-2.21L628.34 0l-6.86 13.97-15.39 2.27 11.16 10.84-2.6 15.35 13.75-7.27Zm620.73 381.71 3.78 2.26-.5-4.38 3.31-2.89-4.31-.87-1.73-4.05-2.17 3.83-4.38.4 2.98 3.24-.98 4.3 4-1.84Zm22.04 4.17 2.48 1.62-.23-2.95 2.31-1.87-2.88-.69-1.06-2.77-1.55 2.52-2.96.15 1.92 2.26-.77 2.86 2.74-1.13ZM126.98 379.5l1.57 2.15.75-2.55 2.54-.83-2.2-1.51v-2.66l-2.11 1.62-2.53-.82.89 2.51-1.57 2.16 2.66-.07Zm191.08 87.9 4.36-.14-2.76-3.38 1.21-4.2-4.07 1.58-3.61-2.45.25 4.36-3.45 2.68 4.23 1.11 1.48 4.11 2.36-3.67Zm725.11-61.55.12 4.89 3.8-3.08 4.69 1.39-1.75-4.56 2.77-4.03-4.88.26-2.97-3.88-1.27 4.72-4.61 1.63 4.1 2.66Zm-122.53 9.34 2.08 2.87 1.01-3.4 3.38-1.09-2.92-2.02.01-3.55-2.82 2.16-3.38-1.1 1.18 3.35-2.09 2.87 3.55-.09Zm67.75 58.48 5.86 1.4-2.46-5.5 3.13-5.15-5.98.64-3.92-4.57-1.25 5.89-5.56 2.32 5.23 3 .48 6.01 4.47-4.04Zm-63.9-261.26 5.35-.76-3.87-3.78.93-5.33-4.79 2.51-4.78-2.53.91 5.33-3.87 3.76 5.34.79 2.38 4.85 2.4-4.84ZM275.21 476.14l4.77 3.71-.06-5.86 4.89-3.17-5.7-1.98-1.75-5.67-3.46 4.63-5.97-.33 3.56 4.85-1.94 5.46 5.66-1.64Zm58.81-58.97 2.13 2.36.67-3.05 3-1.21-2.83-1.55-.27-3.1-2.41 2.1-3.18-.72 1.34 2.85-1.69 2.66 3.24-.34Zm619.68 47.92 3.97.91-1.69-3.71 2.1-3.5-4.06.46-2.67-3.08-.82 4-3.75 1.6 3.55 2.01.36 4.06 3.01-2.75Zm-321.81 32.37 4.17 1.57-1.29-4.27 2.78-3.48-4.45-.09-2.45-3.73-1.46 4.21-4.3 1.18 3.55 2.7-.21 4.45 3.66-2.54Zm103.2-325.75 4.87 5.4 1.52-6.99 6.88-2.77-6.48-3.54-.63-7.11-5.52 4.81-7.26-1.63 3.06 6.5-3.86 6.11 7.42-.78ZM131.52 492.38l4.85.62-2.46-4.23 2.08-4.43-4.78 1.04-3.57-3.36-.49 4.87-4.29 2.36 4.48 1.97.92 4.81 3.26-3.65Zm222.67-198.64 2.86 2.58.3-3.84 3.34-1.93-3.56-1.48-.8-3.77-2.5 2.94-3.83-.4 2.01 3.28-1.57 3.52 3.75-.9Zm-242.55 93.29 3.46 1.36-1.02-3.57 2.36-2.87-3.71-.13-2-3.14-1.27 3.49-3.6.94 2.93 2.29-.23 3.71 3.08-2.08Zm140.18-276.09 10.5 5.39-2.12-11.62 8.37-8.34-11.7-1.57-5.34-10.54-5.11 10.65-11.66 1.82 8.54 8.16-1.87 11.66 10.39-5.61Zm751.83-1.66 10.46 5.47-2.02-11.64 8.43-8.2599-11.68-1.68-5.25-10.58-5.2 10.6-11.68 1.73 8.47 8.2299-1.97 11.64 10.44-5.51ZM656.84 467.49l7.97 6.83.57-10.48 8.95-5.47-9.78-3.78-2.43-10.21-6.62 8.14-10.45-.84 5.69 8.82-4.03 9.69 10.13-2.7Zm-58.99 9.43 6.7 1.43-2.94-6.2 3.43-5.93-6.8.89-4.58-5.1-1.26 6.74-6.26 2.78 6.02 3.28.71 6.82 4.98-4.71Zm559.92-93.85 2.11 2.34.66-3.03 2.98-1.21-2.81-1.53-.27-3.09-2.39 2.09-3.16-.71 1.33 2.82-1.67 2.65 3.22-.33Zm-950.58 27 4.78 4.26.47-6.39 5.53-3.24-5.93-2.42-1.36-6.26-4.14 4.89-6.37-.63 3.37 5.44-2.57 5.87 6.22-1.52Zm107.32-69.91 4.17.87-1.84-3.84 2.11-3.69-4.22.56-2.86-3.15-.76 4.19-3.88 1.75 3.74 2.02.47 4.23 3.07-2.94Zm619.45-150.65 1.87 2.07.59-2.68 2.64-1.07-2.49-1.35-.24-2.73-2.12 1.84-2.79-.62 1.18 2.49-1.48 2.35 2.84-.3ZM138.9 294.61l5.55-.1-3.46-4.34 1.61-5.32-5.19 1.95-4.56-3.18.25 5.55-4.42 3.35 5.35 1.48 1.81 5.24 3.06-4.63Zm178.07-108.52 3.3 3.65 1.03-4.73 4.66-1.88-4.39-2.39-.42-4.82-3.75 3.25-4.92-1.1 2.08 4.41-2.62 4.14 5.03-.53ZM104.63 487.08l2.06 2.34.6-3.07 2.87-1.24-2.73-1.52-.3-3.11-2.28 2.13-3.05-.68 1.31 2.84-1.58 2.69 3.1-.38Zm1051.27 1.99 6.33-1.68-4.97-4.09.63-6.64-5.5 3.72-5.94-2.43 1.56 6.39-4.3 5.14 6.47.23 3.29 5.61 2.43-6.25Zm-28.35-8.45 2.4-3.43-4.11.05-2.43-3.5-1.15 4.08-3.91 1.26 3.4 2.48.02 4.28 3.25-2.55 3.92 1.38-1.39-4.05ZM119.67 280.13l1.43 2.04.8-2.31 2.45-.64-2.05-1.47.09-2.43-2.07 1.39-2.39-.86.77 2.33-1.57 1.91 2.54.04Zm367.83 1.98 3.21.15-1.83-2.63 1.13-3-3.07.92-2.5-2.01-.07 3.21-2.68 1.76 3.03 1.06.84 3.09 1.94-2.55Zm-115.479-4.29.95 1.97 1.04-1.89 2.22-.22-1.57-1.57.42-2.11-2 .92-1.97-1.09.34 2.14-1.64 1.44 2.21.41Zm347.96-138.37 3.139-.62-2.3-2.15.5-3.22-2.789 1.65-2.83-1.36.57 3.16-2.25 2.38 3.15.31 1.44 2.83 1.37-2.98Zm-197.51 47.72 4.8.12-2.65-3.9 1.81-4.55-4.64 1.49-3.68-2.94-.22 4.83-4.08 2.73 4.5 1.49 1.16 4.63 3-3.9Zm565.409 36.92 3.58-.72-2.62-2.45.57-3.67-3.19 1.89-3.22-1.56.65 3.61-2.56 2.71 3.59.35 1.63 3.23 1.57-3.39Zm89.35 136.16 4.23-.12-2.52-3.3 1.36-4.09-4.01 1.53-3.38-2.4.05 4.26-3.46 2.6 4.04 1.09 1.24 4.01 2.45-3.58Zm-355.31 50 3.29-.13-2.11-2.54.9-3.18-3.07 1.22-2.74-1.83.22 3.29-2.59 2.04 3.19.82 1.14 3.09 1.77-2.78Zm-153.8-78.48 2.64 1-.81-2.7 1.76-2.21-2.82-.06-1.55-2.36-.92 2.67-2.72.74 2.24 1.71-.13 2.82 2.31-1.61Zm33.401 21.76 5.04 4.32.37-6.63 5.66-3.46-6.19-2.39-1.54-6.47-4.19 5.16-6.61-.53 3.6 5.58-2.55 6.13 6.41-1.71ZM546.8 355.1l4.24.91-1.87-3.92 2.17-3.76-4.3.56-2.9-3.23-.79 4.27-3.96 1.76 3.81 2.08.45 4.31 3.15-2.98Zm399.33-15.66 3.56 1.35-1.1-3.65 2.38-2.98-3.81-.08-2.09-3.18-1.25 3.6-3.67 1 3.03 2.31-.18 3.8 3.13-2.17Zm17.3-14.6 2.16 1.8.12-2.82 2.38-1.5-2.64-.98-.69-2.73-1.75 2.21-2.81-.19 1.56 2.35-1.05 2.62 2.72-.76Zm-775.8 14.84 1.65 1.82.51-2.36 2.32-.93-2.19-1.2-.21-2.4-1.86 1.62-2.46-.55 1.04 2.2-1.31 2.06 2.51-.26Zm935.67-208.9 2.87 2.13-.06-3.58 2.91-2.08-3.41-1.05-1.08-3.41-2.05 2.93-3.58-.03 2.15 2.86-1.13 3.39 3.38-1.16Zm-15.44-27.63 2.72.13-1.55-2.24.96-2.5499-2.61.78-2.13-1.71-.06 2.7299-2.28 1.5 2.58.9.72 2.63 1.65-2.17Zm-967.57 37.19-3.36 2.51 4.04 1.15 1.35 3.98 2.34-3.49 4.2-.05-2.6-3.3 1.25-4.01-3.94 1.44-3.43-2.43.15 4.2Zm17.83-33.82-1.08 3.02 3.06-.99 2.54 1.96.01-3.21 2.64-1.81-3.05-.99-.9-3.08-1.89 2.59-3.21-.09 1.88 2.6ZM518.6 91.64l1.11 4.06 2.54-3.35 4.2.2-2.39-3.45 1.48-3.93-4.02 1.21-3.28-2.63-.09 4.2-3.52 2.31 3.97 1.38Zm19.89-38.84 2.42 2.1.2-3.2 2.74-1.65-2.98-1.18-.72-3.12-2.04 2.47-3.19-.28 1.72 2.71-1.25 2.95 3.1-.8Zm-46.66 19.1999 2.48-.4-1.83-1.73.39-2.49-2.21 1.2-2.25-1.13.46 2.47-1.77 1.78 2.5.33 1.15 2.24 1.08-2.27Zm258.91-11.5298-3.719 1.94 3.81 1.77.71 4.1499 2.86-3.0799 4.149.62-2.04-3.68 1.87-3.76-4.13.81-3-2.9401-.51 4.1701Zm47.37 17.6898-1.54 2.82 3.17-.5 2.2 2.33.51-3.16 2.9-1.37-2.85-1.47-.41-3.18-2.28 2.26-3.15-.59 1.45 2.86Zm-15.57-40.82.92 2.34 1.3-2.16 2.51-.15-1.65-1.9.63-2.44-2.32.98-2.12-1.35.22 2.51-1.95 1.6 2.46.57Zm309.4 106.3501.92 2.34 1.3-2.16 2.51-.15-1.65-1.9.63-2.44-2.32.98-2.12-1.35.22 2.51-1.95 1.6 2.46.57ZM335.77 70.37l2.48-.4-1.83-1.73.39-2.49-2.21 1.2-2.25-1.13.47 2.47-1.78 1.78 2.5.33 1.15 2.24 1.08-2.27Zm600.43 62.5-1.53 2.82 3.16-.5 2.21 2.33.51-3.16 2.9-1.37-2.86-1.47-.41-3.17-2.27 2.25-3.16-.59 1.45 2.86ZM139.21 421.83l1.04 1.48.59-1.68 1.78-.47-1.49-1.07.06-1.78-1.51 1.02-1.74-.62.56 1.69-1.14 1.39 1.85.04Zm965.9-2 1.72 1.43.09-2.24 1.91-1.2-2.11-.78-.55-2.18-1.4 1.76-2.24-.15 1.25 1.88-.84 2.08 2.17-.6ZM111.48 123.42l2.48-.4-1.83-1.73.39-2.49-2.21 1.2-2.25-1.13.47 2.47-1.78 1.78 2.5.33 1.15 2.24 1.08-2.27Z"/>

  <path class="a" d="M1252.08 425.84C1248.15 427.31 1242.33 429.34 1234.87 431.68C1231.14 432.84 1226.97 434.03 1222.43 435.26C1217.89 436.49 1212.96 437.75 1207.65 438.94C1202.34 440.13 1196.65 441.3 1190.65 442.46C1187.65 443.06 1184.58 443.59 1181.44 444.17C1178.3 444.75 1175.08 445.26 1171.74 445.77C1158.54 447.88 1144.21 449.77 1128.99 450.84C1121.39 451.39 1113.56 451.75 1105.56 451.84C1097.56 451.93 1089.4 451.93 1081.05 451.67C1072.7 451.41 1064.27 451.01 1055.74 450.32C1047.21 449.63 1038.6 448.73 1029.92 447.63C1021.24 446.53 1012.51 445.17 1003.76 443.76C995.01 442.35 986.16 440.76 977.29 439.29C968.42 437.82 959.52 436.47 950.63 435.21C941.74 433.95 932.87 432.85 924.05 431.85C906.4 429.85 888.94 428.62 872.05 428.08C869.93 428.01 867.81 427.98 865.7 427.93C863.59 427.88 861.49 427.83 859.44 427.83H853.28L847.08 427.89C838.9 428.05 830.91 428.42 823.16 429.03C815.41 429.64 807.89 430.42 800.64 431.39C798.58 431.67 796.547 431.96 794.54 432.26L788.93 429.79C776.73 424.43 764.84 419.69 752.93 413.72C747.1 410.79 740.73 407.72 735.21 404.26C731.26 401.78 726.67 398.82 727.35 393.37C728.35 385.01 741.61 384.62 747.71 383.59C759.5 381.59 771.34 378.94 781.9 373.31C789.63 369.18 797.46 361.78 795.32 352.2C793.18 342.62 782.72 336.43 774.94 331.7C766.914 326.82 758.561 322.5 749.94 318.77C735.01 312.28 721.34 303.77 707.61 295.35C702 291.89 694.44 288.35 694.17 280.92C693.86 272.49 706.17 268.2 712.73 266.72C725.73 263.79 766.84 255.07 747.57 236.55C738.38 227.72 728.57 220.47 720.44 210.49C712.326 200.242 704.893 189.472 698.19 178.25C684.402 155.613 672.222 132.035 661.74 107.69C655.8 93.98 648.66 63.7999 629.05 64.1099C609.43 63.7899 602.33 94 596.33 107.68C585.848 132.025 573.668 155.603 559.88 178.24C553.18 189.464 545.747 200.234 537.63 210.48C529.53 220.48 519.7 227.71 510.51 236.54C491.26 255.06 532.33 263.78 545.33 266.71C551.89 268.19 564.2 272.48 563.9 280.91C563.63 288.34 556.06 291.91 550.46 295.34C536.72 303.8 523.05 312.27 508.12 318.76C499.501 322.494 491.148 326.814 483.12 331.69C475.34 336.42 464.92 342.47 462.75 352.19C460.58 361.91 468.44 369.19 476.16 373.3C486.72 378.93 498.56 381.57 510.35 383.58C516.45 384.58 529.68 385 530.72 393.36C531.4 398.81 526.8 401.77 522.86 404.25C517.34 407.7 510.97 410.78 505.13 413.71C493.23 419.71 481.33 424.42 469.13 429.78L463.52 432.25C461.52 431.95 459.47 431.66 457.41 431.38C450.17 430.407 442.663 429.62 434.89 429.02C427.14 428.41 419.15 428.02 410.97 427.88L404.78 427.82H398.61C396.61 427.82 394.46 427.82 392.35 427.92C390.24 428.02 388.13 428 386.01 428.07C369.08 428.61 351.62 429.88 334.01 431.84C325.19 432.84 316.31 433.93 307.43 435.2C298.55 436.47 289.65 437.84 280.78 439.28C271.91 440.72 263.02 442.4 254.33 443.8C245.64 445.2 236.84 446.56 228.16 447.67C219.48 448.78 210.87 449.67 202.34 450.36C193.81 451.05 185.34 451.45 177.04 451.71C168.74 451.97 160.54 452.04 152.53 451.88C144.52 451.72 136.7 451.39 129.09 450.88C113.87 449.81 99.54 447.88 86.34 445.81C83 445.3 79.8 444.74 76.65 444.21C73.5 443.68 70.42 443.1 67.43 442.5C61.43 441.34 55.78 440.19 50.43 438.98C45.08 437.77 40.2 436.51 35.66 435.3C31.12 434.09 26.95 432.88 23.22 431.72C15.76 429.38 9.94 427.35 6 425.88L0 423.6L1.47 424.35C2.47 424.84 3.86 425.6 5.76 426.5C9.55 428.35 15.15 430.98 22.47 433.92C26.12 435.4 30.2 436.92 34.68 438.56C39.16 440.2 44.05 441.73 49.32 443.3C59.84 446.5 71.88 449.53 85.11 452.3C99.382 455.378 113.81 457.685 128.33 459.21C136.07 460.01 144.05 460.64 152.22 461.01C160.39 461.38 168.76 461.5 177.22 461.43C194.672 461.265 212.102 460.14 229.43 458.06C238.27 457 247.133 455.763 256.02 454.35C264.92 452.95 273.71 451.35 282.53 449.97C291.35 448.59 300.17 447.11 308.96 445.83C317.75 444.55 326.52 443.35 335.22 442.28C339.58 441.78 343.91 441.28 348.22 440.82C352.53 440.36 356.84 439.95 361.11 439.53C369.66 438.77 378.11 438.17 386.45 437.68C388.53 437.56 390.59 437.48 392.65 437.38C394.71 437.28 396.75 437.18 398.83 437.12L404.98 436.92L410.98 436.79C418.98 436.68 426.82 436.79 434.45 437.13C440.27 437.36 445.92 437.73 451.45 438.13C438.92 445.05 426.45 454.58 429.45 468.46C431.57 478.38 439.26 484.27 448.08 488.02C467.61 496.66 494.89 499.02 516.01 497.02C533.59 495.41 556.71 489.88 561.32 474.67C561.708 472.913 561.717 471.094 561.347 469.333C560.976 467.572 560.234 465.911 559.17 464.46H559.12C558.11 462.976 556.91 461.631 555.55 460.46C552.38 457.46 548.49 454.96 541.92 451.75C534.33 448 509.33 439.07 481.33 435.8C495.45 430.23 536.68 417.45 543.9 402.8C551.38 387.64 538.9 375.59 524.56 371.63C513.38 368.56 500.7 368.63 490.2 363.8C481.63 359.8 481.33 352.65 489.52 347.96C493.99 345.4 498.77 343.24 503.11 341.09C511.54 336.93 520.11 333.09 528.55 328.92C543.61 321.44 560.68 312.31 573.62 301.54C585.23 291.89 592.16 278.33 583.37 264.87C578.93 258.07 569.87 254.58 562.13 252.66C553.83 250.698 545.644 248.281 537.61 245.42C537.236 245.285 536.904 245.055 536.644 244.755C536.384 244.454 536.206 244.091 536.127 243.702C536.047 243.312 536.07 242.909 536.191 242.53C536.312 242.152 536.529 241.811 536.82 241.54C557.38 221.73 573.19 197.73 587.29 173.2C602.58 146.59 615.62 118.81 627.38 90.54V90.6099C627.38 90.5099 627.47 90.4199 627.51 90.3299C627.61 90.1 627.761 89.8958 627.951 89.733C628.142 89.5701 628.367 89.4528 628.61 89.39C628.74 89.3537 628.875 89.3368 629.01 89.34C629.148 89.3363 629.287 89.3531 629.42 89.39C629.662 89.4528 629.885 89.5702 630.074 89.7331C630.263 89.8961 630.412 90.1003 630.51 90.3299C630.559 90.4204 630.603 90.5139 630.64 90.6099V90.54C642.41 118.81 655.44 146.59 670.73 173.2C684.83 197.73 700.65 221.73 721.21 241.54C721.498 241.812 721.713 242.153 721.832 242.531C721.952 242.909 721.973 243.311 721.894 243.7C721.815 244.088 721.638 244.45 721.38 244.751C721.122 245.052 720.792 245.282 720.42 245.42C712.385 248.28 704.2 250.697 695.9 252.66C688.16 254.58 679.09 258.07 674.66 264.87C665.86 278.33 672.8 291.87 684.4 301.54C697.4 312.31 714.4 321.44 729.47 328.92C737.89 333.11 746.47 336.92 754.91 341.09C759.25 343.24 764.04 345.4 768.5 347.96C776.69 352.65 776.4 359.82 767.82 363.8C757.33 368.66 744.64 368.56 733.47 371.63C719.1 375.63 706.64 387.63 714.12 402.8C721.35 417.43 762.58 430.21 776.7 435.8C748.7 439.07 723.7 448.01 716.13 451.73C709.57 454.94 705.67 457.46 702.51 460.44C701.145 461.609 699.941 462.954 698.93 464.44C697.866 465.891 697.124 467.552 696.753 469.313C696.383 471.074 696.392 472.893 696.78 474.65C701.39 489.86 724.51 495.39 742.09 497C763.22 498.94 790.5 496.61 810.03 488C818.84 484.25 826.54 478.36 828.65 468.44C831.65 454.56 819.15 445.03 806.65 438.11C812.21 437.67 817.86 437.3 823.65 437.11C831.27 436.81 839.11 436.66 847.11 436.77L853.11 436.9L859.27 437.1C861.34 437.16 863.39 437.25 865.44 437.36C867.49 437.47 869.56 437.54 871.64 437.66C879.97 438.15 888.43 438.75 896.98 439.51C901.26 439.93 905.56 440.31 909.88 440.8C914.2 441.29 918.54 441.8 922.88 442.26C931.59 443.33 940.35 444.55 949.15 445.81C957.95 447.07 966.76 448.49 975.57 449.95C984.38 451.41 993.19 452.95 1002.09 454.33C1010.99 455.71 1019.83 456.98 1028.67 458.04C1046 460.12 1063.43 461.245 1080.88 461.41C1089.34 461.48 1097.72 461.34 1105.88 460.99C1114.04 460.64 1122.02 459.99 1129.76 459.19C1144.28 457.665 1158.71 455.358 1172.99 452.28C1186.21 449.47 1198.25 446.44 1208.77 443.28C1214.04 441.71 1218.92 440.08 1223.42 438.54C1227.92 437 1231.98 435.38 1235.63 433.9C1242.94 430.96 1248.54 428.33 1252.33 426.48C1254.23 425.58 1255.66 424.82 1256.63 424.33L1258.1 423.58L1252.08 425.84ZM512.78 447.72C527.21 451.24 540.78 456.72 545.18 460.63C545.49 460.88 545.73 461.13 546.01 461.38L547.63 462.96C555.29 471.3 549.97 479.22 542.63 483.03C524.16 492.68 501.29 491.55 481.01 488.49C470.38 486.89 459.16 484.68 450.1 478.67C446.02 475.96 441.58 472.16 440.67 467.16C439.59 461.16 444.35 457.71 448.15 453.93L449.22 453.01C456.625 447.902 464.57 443.623 472.91 440.25L477.28 440.81C490.56 442.63 495.9 443.61 512.78 447.72ZM808.78 453.03L809.86 453.95C813.65 457.73 818.42 461.19 817.33 467.18C816.43 472.18 811.98 475.98 807.9 478.69C798.85 484.69 787.62 486.91 777 488.51C756.72 491.57 733.85 492.7 715.37 483.05C708.08 479.24 702.76 471.32 710.37 462.98L711.98 461.4C712.26 461.15 712.51 460.9 712.81 460.65C717.21 456.79 730.81 451.26 745.2 447.74C762.09 443.63 767.43 442.65 780.66 440.85L785.03 440.29C793.4 443.64 801.374 447.903 808.81 453L808.78 453.03Z" fill="currentColor"></path>

  <path class="b" d="M382.84 434.68C389.2 431.97 394.59 428.44 396.12 421.28C399.32 406.28 378.87 397.94 368.04 393.18C359.24 389.31 350.65 385.9 342.04 381.59C337.83 379.48 333.24 377.26 329.25 374.76C326.4 372.98 323.08 370.84 323.57 366.91C324.32 360.91 333.87 360.6 338.28 359.85C346.79 358.41 355.34 356.5 362.96 352.44C368.54 349.44 374.2 344.12 372.65 337.21C371.1 330.3 363.55 325.83 357.94 322.42C352.136 318.902 346.098 315.785 339.87 313.09C329.09 308.41 319.22 302.3 309.3 296.19C305.25 293.7 298.01 290.19 297.48 284.91C296.76 277.67 308.2 276.23 313 275.55C322.68 274.17 351.21 266.1 338.15 253.78C331.46 247.47 324.41 242.18 318.57 234.98C312.707 227.589 307.338 219.819 302.5 211.72C292.545 195.393 283.753 178.384 276.19 160.82C271.89 150.92 266.74 129.16 252.58 129.38C238.43 129.16 233.28 150.92 228.98 160.82C221.416 178.384 212.625 195.393 202.67 211.72C197.835 219.825 192.47 227.602 186.61 235C180.77 242.2 173.72 247.49 167.03 253.8C153.96 266.12 182.5 274.19 192.18 275.57C196.98 276.25 208.42 277.69 207.7 284.93C207.17 290.26 199.93 293.72 195.88 296.21C185.96 302.32 176.09 308.43 165.31 313.11C159.081 315.805 153.044 318.922 147.24 322.44C141.63 325.85 134.1 330.21 132.53 337.23C130.96 344.25 136.64 349.48 142.22 352.46C149.84 356.52 158.39 358.46 166.9 359.87C171.31 360.62 180.9 360.87 181.61 366.93C182.09 370.86 178.78 373 175.93 374.78C171.93 377.28 167.34 379.5 163.13 381.61C154.54 385.92 145.95 389.33 137.13 393.2C126.3 397.96 105.85 406.3 109.05 421.3C110.58 428.46 115.97 431.99 122.33 434.7C136.43 440.94 152.33 442.04 167.57 440.32C180.25 438.89 194.3 435.53 202.32 424.94C203.32 423.59 205.24 421.4 205.55 419.71C206.14 416.49 203.62 419.28 202.82 420.52C199.45 425.73 195.87 429.25 190.02 431.85C176.27 437.94 160.37 437.78 145.73 435.57C138.06 434.41 129.96 432.82 123.42 428.48C120.42 426.48 117.26 423.79 116.61 420.18C115.83 415.87 119.27 413.36 122.01 410.64L122.78 409.97C133.93 401.97 147.47 397.97 160.23 392.9C170.43 388.9 185.89 384.31 191.11 373.75C196.51 362.82 187.52 354.12 177.11 351.27C169.04 349.05 159.88 349.13 152.3 345.62C146.11 342.75 145.9 337.62 151.81 334.19C155.03 332.34 158.49 330.78 161.62 329.24C167.7 326.24 173.91 323.48 179.99 320.46C190.86 315.06 203.18 308.46 212.53 300.7C220.91 293.7 225.91 283.96 219.53 274.25C216.32 269.35 209.78 266.82 204.19 265.44C198.197 264.03 192.288 262.288 186.49 260.22C186.219 260.123 185.978 259.958 185.79 259.741C185.602 259.524 185.473 259.262 185.416 258.981C185.358 258.699 185.375 258.408 185.463 258.134C185.551 257.861 185.709 257.615 185.92 257.42C200.76 243.13 212.18 225.81 222.36 208.12C233.262 188.878 242.928 168.961 251.3 148.49L251.4 148.28C251.472 148.116 251.581 147.971 251.718 147.855C251.855 147.739 252.016 147.655 252.19 147.61C252.286 147.596 252.384 147.596 252.48 147.61C252.579 147.595 252.68 147.595 252.78 147.61C252.953 147.655 253.115 147.739 253.251 147.855C253.388 147.971 253.497 148.116 253.57 148.28L253.67 148.49C262.081 168.957 271.787 188.867 282.73 208.1C292.91 225.79 304.33 243.1 319.17 257.4C319.378 257.596 319.533 257.842 319.62 258.115C319.706 258.388 319.722 258.678 319.665 258.959C319.608 259.239 319.48 259.501 319.294 259.718C319.107 259.935 318.868 260.101 318.6 260.2C312.801 262.268 306.892 264.01 300.9 265.42C295.31 266.8 288.77 269.33 285.56 274.23C279.21 283.94 284.22 293.72 292.56 300.68C301.91 308.45 314.23 315.04 325.1 320.44C331.18 323.44 337.39 326.21 343.47 329.22C346.6 330.76 350.05 332.32 353.28 334.17C359.19 337.56 358.98 342.73 352.79 345.6C345.21 349.11 336.05 349.03 327.98 351.25C317.61 354.1 308.62 362.8 313.98 373.73C319.19 384.29 334.66 388.86 344.86 392.88C357.62 397.88 371.16 401.99 382.31 409.95L383.08 410.62C385.82 413.34 389.26 415.85 388.48 420.16C387.82 423.77 384.62 426.51 381.67 428.46C375.13 432.8 367.03 434.39 359.36 435.55L382.84 434.68Z" fill="currentColor"></path>

  <path class="c" d="M872.82 434.68C866.46 431.97 861.07 428.44 859.54 421.28C856.34 406.28 876.79 397.94 887.62 393.18C896.42 389.31 905.01 385.9 913.62 381.59C917.83 379.48 922.43 377.26 926.41 374.76C929.26 372.98 932.58 370.84 932.09 366.91C931.34 360.91 921.79 360.6 917.38 359.85C908.87 358.41 900.32 356.5 892.7 352.44C887.12 349.44 881.46 344.12 883.01 337.21C884.56 330.3 892.11 325.83 897.72 322.42C903.526 318.9 909.567 315.783 915.8 313.09C926.58 308.41 936.44 302.3 946.36 296.19C950.36 293.7 957.65 290.19 958.18 284.91C958.9 277.67 947.46 276.23 942.66 275.55C932.98 274.17 904.45 266.1 917.51 253.78C924.2 247.47 931.25 242.18 937.09 234.98C942.953 227.589 948.321 219.819 953.16 211.72C963.115 195.393 971.907 178.384 979.47 160.82C983.77 150.92 988.92 129.16 1003.08 129.38C1017.23 129.16 1022.39 150.92 1026.68 160.82C1034.25 178.382 1043.04 195.39 1052.99 211.72C1057.82 219.825 1063.19 227.602 1069.05 235C1074.9 242.2 1081.94 247.49 1088.63 253.8C1101.7 266.12 1073.16 274.19 1063.48 275.57C1058.68 276.25 1047.24 277.69 1047.96 284.93C1048.49 290.26 1055.73 293.72 1059.78 296.21C1069.7 302.32 1079.57 308.43 1090.35 313.11C1096.58 315.803 1102.62 318.92 1108.42 322.44C1114.04 325.85 1121.56 330.21 1123.13 337.23C1124.7 344.25 1119.02 349.48 1113.44 352.46C1105.82 356.52 1097.27 358.46 1088.76 359.87C1084.36 360.62 1074.76 360.87 1074.05 366.93C1073.57 370.86 1076.88 373 1079.73 374.78C1083.73 377.28 1088.32 379.5 1092.53 381.61C1101.12 385.92 1109.71 389.33 1118.53 393.2C1129.36 397.96 1149.81 406.3 1146.61 421.3C1145.08 428.46 1139.69 431.99 1133.33 434.7C1119.23 440.94 1103.33 442.04 1088.09 440.32C1075.41 438.89 1061.36 435.53 1053.34 424.94C1052.34 423.59 1050.42 421.4 1050.11 419.71C1049.52 416.49 1052.04 419.28 1052.84 420.52C1056.21 425.73 1059.84 429.25 1065.64 431.85C1079.39 437.94 1095.29 437.78 1109.93 435.57C1117.6 434.41 1125.7 432.82 1132.24 428.48C1135.19 426.48 1138.4 423.79 1139.05 420.18C1139.83 415.87 1136.39 413.36 1133.65 410.64L1132.88 409.97C1121.73 401.97 1108.19 397.97 1095.43 392.9C1085.23 388.9 1069.77 384.31 1064.55 373.75C1059.15 362.82 1068.14 354.12 1078.55 351.27C1086.61 349.05 1095.77 349.13 1103.35 345.62C1109.54 342.75 1109.76 337.62 1103.84 334.19C1100.62 332.34 1097.16 330.78 1094.03 329.24C1087.95 326.24 1081.74 323.48 1075.66 320.46C1064.79 315.06 1052.47 308.46 1043.12 300.7C1034.74 293.7 1029.74 283.96 1036.12 274.25C1039.32 269.35 1045.86 266.82 1051.45 265.44C1057.45 264.029 1063.36 262.286 1069.16 260.22C1069.43 260.121 1069.67 259.955 1069.85 259.738C1070.04 259.521 1070.17 259.259 1070.23 258.979C1070.28 258.698 1070.27 258.408 1070.18 258.135C1070.09 257.862 1069.94 257.616 1069.73 257.42C1054.88 243.13 1043.46 225.81 1033.28 208.12C1022.38 188.878 1012.71 168.961 1004.34 148.49C1004.31 148.418 1004.28 148.348 1004.24 148.28C1004.17 148.116 1004.06 147.971 1003.92 147.855C1003.78 147.739 1003.62 147.655 1003.45 147.61C1003.35 147.596 1003.26 147.596 1003.16 147.61C1003.06 147.595 1002.96 147.595 1002.86 147.61C1002.69 147.655 1002.52 147.739 1002.39 147.855C1002.25 147.971 1002.14 148.116 1002.07 148.28C1002.04 148.352 1002.01 148.422 1001.97 148.49C993.599 168.961 983.932 188.878 973.03 208.12C962.85 225.81 951.43 243.12 936.59 257.42C936.381 257.616 936.227 257.862 936.14 258.135C936.053 258.408 936.038 258.698 936.095 258.979C936.152 259.259 936.28 259.521 936.466 259.738C936.653 259.955 936.891 260.121 937.16 260.22C942.959 262.286 948.868 264.029 954.86 265.44C960.45 266.82 966.99 269.35 970.2 274.25C976.55 283.96 971.54 293.74 963.2 300.7C953.85 308.47 941.53 315.06 930.66 320.46C924.58 323.46 918.38 326.23 912.29 329.24C909.16 330.78 905.71 332.34 902.48 334.19C896.57 337.58 896.78 342.75 902.97 345.62C910.55 349.13 919.71 349.05 927.78 351.27C938.15 354.12 947.15 362.82 941.78 373.75C936.57 384.31 921.1 388.88 910.9 392.9C898.14 397.9 884.6 402.01 873.46 409.97L872.68 410.64C869.94 413.36 866.5 415.87 867.28 420.18C867.94 423.79 871.14 426.53 874.09 428.48C880.63 432.82 888.73 434.41 896.4 435.57L872.82 434.68Z" fill="currentColor"></path>
</svg>
