<svg width="64" height="64" viewBox="0 0 64 64" fill="none" xmlns="http://www.w3.org/2000/svg">
<path d="M29.1624 15.1086L32.1633 15.9282L35.1641 15.1086V14.7788C34.7951 14.6449 34.4555 14.4424 34.1649 14.178C33.6196 14.6808 32.9045 14.9584 32.1633 14.9584C31.422 14.9584 30.7069 14.6808 30.1616 14.178C29.871 14.4424 29.5314 14.6449 29.1624 14.7788V15.1086Z" fill="white"/>
<path d="M23.5428 37.0351C23.36 36.96 23.1575 36.9404 22.9649 36.9796C22.7722 37.0188 22.5926 37.1135 22.4522 37.2539C22.3118 37.3943 22.2171 37.5706 22.1779 37.7665C22.1388 37.9592 22.1584 38.1616 22.2335 38.3445C22.3086 38.5273 22.4359 38.6841 22.6024 38.7918C22.7657 38.9029 22.9616 38.9616 23.1575 38.9616C23.422 38.9616 23.6767 38.8571 23.8661 38.6678C24.0522 38.4784 24.16 38.2269 24.16 37.9592C24.16 37.76 24.1012 37.5673 23.9902 37.4041C23.8824 37.2408 23.7257 37.1102 23.5428 37.0351Z" fill="white"/>
<path d="M28.16 12.96C28.4245 12.96 28.6792 12.8555 28.8686 12.6661C29.0547 12.48 29.1625 12.2253 29.1625 11.9576V9.95918H27.1608V11.9608C27.1608 12.2253 27.2653 12.48 27.4547 12.6694C27.6408 12.8522 27.8955 12.96 28.16 12.96Z" fill="white"/>
<path d="M18.9159 19.9608H5.22449C5.44979 21.7012 6.24 23.3208 7.47755 24.5714C8.71183 25.8188 10.3249 26.6286 12.062 26.8702C13.8547 24.1241 16.1861 21.7731 18.9159 19.9608Z" fill="white"/>
<path d="M19.6996 17.6947L21.76 18.3282C23.3894 17.5445 25.1069 16.9469 26.8735 16.5518L20.898 14.9257C20.7249 14.88 20.5714 14.7886 20.4474 14.6612C20.3233 14.5339 20.2351 14.3771 20.1927 14.2041L17.5706 3.72245C17.5053 3.47102 17.3453 3.25878 17.1233 3.1249C16.9012 2.99102 16.6367 2.94857 16.3853 3.00408C16.1339 3.05959 15.9118 3.21306 15.7682 3.42857C15.6245 3.64408 15.5723 3.90857 15.6212 4.16327L17.1429 11.7616C17.182 11.9608 17.1625 12.1665 17.0841 12.3527C17.0057 12.5388 16.8718 12.6988 16.6988 12.8065C16.5257 12.9143 16.3265 12.9698 16.1241 12.96C15.9216 12.9535 15.7257 12.8816 15.5625 12.7608L9.11348 7.92163C9.02205 7.85306 8.92082 7.80408 8.8098 7.77469C8.69878 7.74857 8.5845 7.74531 8.47348 7.7649C8.31674 7.79102 8.16654 7.86286 8.04899 7.97061C7.93143 8.07837 7.84654 8.21878 7.80409 8.37551C7.76164 8.53224 7.76817 8.69551 7.81715 8.84571C7.86613 8.99592 7.96082 9.13306 8.0849 9.23429L15.9706 15.6898C17.071 16.5976 18.338 17.2767 19.6996 17.6947Z" fill="white"/>
<path d="M44.6171 17.6947C45.9788 17.2767 47.2457 16.5976 48.3494 15.6931L56.2384 9.23755C56.3625 9.13633 56.4539 9.00245 56.5061 8.84898C56.5551 8.69551 56.5616 8.53225 56.5192 8.37878C56.4767 8.22531 56.3951 8.0849 56.2743 7.97714C56.1567 7.86939 56.0098 7.79755 55.8498 7.77143C55.7388 7.75184 55.6212 7.7551 55.5135 7.78123C55.4025 7.80735 55.298 7.85633 55.2098 7.9249L48.7641 12.7608C48.6008 12.8816 48.4082 12.9535 48.2025 12.96C48 12.9665 47.8008 12.9143 47.6278 12.8065C47.458 12.6988 47.3208 12.5388 47.2425 12.3527C47.1641 12.1665 47.1412 11.9608 47.1837 11.7616L48.7053 4.15674C48.751 3.90531 48.6955 3.64408 48.5518 3.42857C48.4082 3.21633 48.1894 3.06612 47.938 3.00735C47.6865 2.95184 47.4253 2.99429 47.2033 3.1249C46.9845 3.25551 46.8212 3.46776 46.7527 3.71592L44.1306 14.2008C44.0882 14.3739 44 14.5306 43.8759 14.658C43.7518 14.7853 43.5951 14.8767 43.4253 14.9224L37.4531 16.5518C39.2163 16.9469 40.9306 17.5445 42.56 18.3282L44.6171 17.6947Z" fill="white"/>
<path d="M31.1608 11.9608C31.1608 12.2253 31.2653 12.48 31.4547 12.6694C31.6408 12.8555 31.8955 12.9633 32.1633 12.9633C32.431 12.9633 32.6825 12.8588 32.8718 12.6694C33.058 12.4833 33.1657 12.2286 33.1657 11.9608V9.95918H31.1674V11.9608H31.1608Z" fill="white"/>
<path d="M36.16 12.96C36.4245 12.96 36.6792 12.8555 36.8686 12.6661C37.0547 12.48 37.1625 12.2253 37.1625 11.9576V9.95918H35.1641V11.9608C35.1641 12.2253 35.2686 12.48 35.458 12.6694C35.6408 12.8522 35.8955 12.96 36.16 12.96Z" fill="white"/>
<path d="M32.16 7.96081C33.2655 7.96081 34.1616 6.6173 34.1616 4.96C34.1616 3.30269 33.2655 1.95918 32.16 1.95918C31.0545 1.95918 30.1584 3.30269 30.1584 4.96C30.1584 6.6173 31.0545 7.96081 32.16 7.96081Z" fill="white"/>
<path d="M33.6914 42.2629C32.96 41.9592 32.1567 41.8808 31.3796 42.0343C30.6024 42.1878 29.8906 42.5698 29.3322 43.1282C28.7739 43.6865 28.3918 44.4016 28.2384 45.1755C28.0849 45.9527 28.1633 46.7559 28.4669 47.4873C28.7706 48.2188 29.2833 48.8424 29.9396 49.2833C30.5959 49.7241 31.3698 49.9592 32.1633 49.9592C33.2245 49.9592 34.24 49.538 34.991 48.7869C35.742 48.0359 36.1633 47.0204 36.1633 45.9592C36.1633 45.169 35.9282 44.3951 35.4906 43.7355C35.0465 43.0792 34.4228 42.5665 33.6914 42.2629Z" fill="white"/>
<path d="M52.2612 26.8669C54.0016 26.622 55.6114 25.8155 56.8457 24.5682C58.08 23.3208 58.8735 21.7012 59.0988 19.9576H45.4073C48.1371 21.7731 50.4686 24.1241 52.2612 26.8669Z" fill="white"/>
<path d="M50.4555 27.7355C48.0392 24.1176 44.6008 21.2996 40.5812 19.6343C36.5616 17.969 32.1371 17.5347 27.8694 18.3837C23.6016 19.2327 19.6833 21.3257 16.6073 24.4016C13.5282 27.4808 11.4351 31.3992 10.5861 35.6669C9.73714 39.9347 10.1714 44.3592 11.8367 48.3788C13.502 52.3984 16.3233 55.8335 19.9412 58.2531C23.5592 60.6694 27.8106 61.9592 32.1633 61.9592C37.9951 61.9527 43.5886 59.6343 47.7127 55.5069C51.8367 51.3829 54.1551 45.7927 54.1616 39.9608C54.1616 35.6082 52.8718 31.3535 50.4555 27.7355ZM25.6555 39.6245C25.329 40.1208 24.8588 40.5029 24.3102 40.7314C23.7616 40.9567 23.1608 41.0188 22.5763 40.9012C21.9951 40.7869 21.4596 40.4996 21.0416 40.0816C20.6204 39.6604 20.3363 39.1282 20.2188 38.5437C20.1045 37.9624 20.1633 37.3584 20.3918 36.8098C20.6171 36.2645 21.0025 35.7943 21.4955 35.4645C21.9886 35.1347 22.5698 34.9584 23.1641 34.9584C23.9576 34.9584 24.7216 35.2751 25.2833 35.8367C25.8449 36.4016 26.1616 37.1624 26.1616 37.9592C26.1616 38.5535 25.9853 39.1314 25.6555 39.6245ZM37.3845 48.9143C37.3127 49.0449 37.2343 49.169 37.1527 49.2931C36.4931 50.2792 35.5559 51.0498 34.4588 51.5037C33.3616 51.9575 32.1567 52.0751 30.991 51.8433C29.8286 51.6114 28.7576 51.04 27.9184 50.2008C27.0824 49.3616 26.511 48.2939 26.2792 47.1314C26.0473 45.9657 26.1649 44.7608 26.6188 43.6637C27.0727 42.5665 27.8433 41.6294 28.8294 40.9698C29.8155 40.3102 30.9747 39.9608 32.1633 39.9608C33.7535 39.9608 35.2784 40.5943 36.4049 41.7176C37.5282 42.8441 38.1616 44.369 38.1616 45.9592C38.1616 46.9976 37.8939 48.0163 37.3845 48.9143ZM43.6571 39.6245C43.3273 40.1208 42.8604 40.5029 42.3118 40.7314C41.7633 40.9567 41.1592 41.0188 40.578 40.9012C39.9967 40.7869 39.4612 40.4996 39.04 40.0816C38.622 39.6604 38.3347 39.1282 38.2204 38.5437C38.1029 37.9624 38.1649 37.3584 38.3902 36.8098C38.6188 36.2645 39.0008 35.7943 39.4971 35.4645C39.9902 35.1347 40.5682 34.9584 41.1624 34.9584C41.9592 34.9584 42.72 35.2751 43.2849 35.8367C43.8465 36.4016 44.1633 37.1624 44.1633 37.9592C44.1633 38.5535 43.9869 39.1314 43.6571 39.6245Z" fill="white"/>
<path d="M41.5445 37.0351C41.3616 36.96 41.1592 36.9404 40.9665 36.9796C40.7739 37.0188 40.5943 37.1135 40.4539 37.2539C40.3135 37.3943 40.2188 37.5706 40.1796 37.7665C40.1404 37.9592 40.16 38.1616 40.2351 38.3445C40.3102 38.5273 40.4376 38.6841 40.6041 38.7918C40.7673 38.9029 40.9633 38.9616 41.1592 38.9616C41.4237 38.9616 41.6784 38.8571 41.8645 38.6678C42.0506 38.4784 42.1584 38.2269 42.1584 37.9592C42.1584 37.76 42.0996 37.5673 41.9886 37.4041C41.8841 37.2408 41.7274 37.1102 41.5445 37.0351Z" fill="white"/>
</svg>
