<svg width="64" height="64" viewBox="0 0 64 64" fill="none" xmlns="http://www.w3.org/2000/svg">
<path d="M55.1625 14.1856L34.7963 6.63531C32.8581 5.91749 30.6956 6.90218 29.9738 8.83187L28.5963 12.5134C28.2469 13.4469 28.2825 14.4603 28.6969 15.3672C29.1131 16.2778 29.8613 16.9712 30.8025 17.3203L51.1687 24.8703C51.5987 25.0297 52.0394 25.1053 52.4731 25.1053C53.995 25.105 55.43 24.1753 55.9912 22.6737L57.3687 18.9922C57.7181 18.0587 57.6825 17.0453 57.2681 16.1384C56.8512 15.2278 56.1037 14.5344 55.1625 14.1856V14.1856Z" fill="white"/>
<path d="M15.5231 52.5722L26.9806 56.8194C28.405 57.3475 29.865 57.5975 31.3025 57.5975C35.3389 57.5973 39.1869 55.6196 41.5172 52.2802L6.89218 39.5932C6.13273 41.8415 6.24656 44.2534 7.2387 46.4219C8.27808 48.6947 10.1443 50.4263 12.4693 51.2875L15.5231 52.5722Z" fill="white"/>
<path d="M25.8269 29.9088C24.9819 32.1678 22.4456 33.321 20.185 32.4822L19.4131 32.1835C14.6068 30.4003 9.42247 32.7888 7.61435 37.6203L7.55087 37.79L42.5031 50.5969C42.6679 50.2558 42.8228 49.9075 42.9581 49.546L49.4096 32.3026L27.8825 24.4148L25.8269 29.9088ZM18.2853 39.3588L17.059 36.7144L14.2778 38.0044L13.4703 36.2619L17.9934 34.1656L20.0272 38.5513L18.2853 39.3588ZM29.4887 43.4638L28.2625 40.8194L25.4812 42.1094L24.6737 40.3669L29.1962 38.2706L31.2306 42.6563L29.4887 43.4638ZM41.8775 32.0363L43.1037 34.6806L45.885 33.3913L46.6925 35.1338L42.1694 37.2306L40.1356 32.8438L41.8775 32.0363ZM40.3994 42.3756L42.4337 46.7613L40.6919 47.5688L39.4656 44.9244L36.6844 46.2144L35.8769 44.4719L40.3994 42.3756ZM30.674 27.9313L31.9006 30.5756L34.6815 29.2863L35.489 31.0288L30.9662 33.1256L28.9322 28.7388L30.674 27.9313Z" fill="white"/>
<path d="M28.5552 22.6167L50.0823 30.5045L51.4217 26.9246C51.11 26.8655 29.9791 19.0535 29.9008 19.0205L28.5552 22.6167Z" fill="white"/>
</svg>
