<svg width="64" height="64" viewBox="0 0 64 64" fill="none" xmlns="http://www.w3.org/2000/svg">
<path d="M10 10H14V12H10V10Z" fill="white"/>
<path d="M4.00001 10H8.00001V12H4.00001V10Z" fill="white"/>
<path d="M8.00001 12H10V16H8.00001V12Z" fill="white"/>
<path d="M8.00001 6H10V10H8.00001V6Z" fill="white"/>
<path d="M55 22H59V24H55V22Z" fill="white"/>
<path d="M49 22H53V24H49V22Z" fill="white"/>
<path d="M53 24H55V28H53V24Z" fill="white"/>
<path d="M53 18H55V22H53V18Z" fill="white"/>
<path d="M38 8H42V10H38V8Z" fill="white"/>
<path d="M32 8H36V10H32V8Z" fill="white"/>
<path d="M36 10H38V14H36V10Z" fill="white"/>
<path d="M36 4H38V8H36V4Z" fill="white"/>
<path d="M7.00001 50C6.40666 50 5.82665 49.8241 5.3333 49.4944C4.83995 49.1648 4.45543 48.6962 4.22837 48.148C4.00131 47.5999 3.9419 46.9967 4.05765 46.4147C4.17341 45.8328 4.45913 45.2982 4.87869 44.8787C5.29825 44.4591 5.83279 44.1734 6.41474 44.0576C6.99668 43.9419 7.59988 44.0013 8.14806 44.2284C8.69624 44.4554 9.16477 44.8399 9.49442 45.3333C9.82406 45.8266 10 46.4067 10 47C10 47.7956 9.68394 48.5587 9.12133 49.1213C8.55872 49.6839 7.79566 50 7.00001 50V50ZM7.00001 46C6.80223 46 6.60889 46.0586 6.44444 46.1685C6.27999 46.2784 6.15182 46.4346 6.07613 46.6173C6.00044 46.8 5.98064 47.0011 6.01922 47.1951C6.05781 47.3891 6.15305 47.5673 6.2929 47.7071C6.43275 47.847 6.61094 47.9422 6.80492 47.9808C6.9989 48.0194 7.19997 47.9996 7.38269 47.9239C7.56542 47.8482 7.7216 47.72 7.83148 47.5556C7.94136 47.3911 8.00001 47.1978 8.00001 47C8.00001 46.7348 7.89465 46.4804 7.70712 46.2929C7.51958 46.1054 7.26523 46 7.00001 46Z" fill="white"/>
<path d="M54 13C53.4067 13 52.8267 12.8241 52.3333 12.4944C51.84 12.1648 51.4554 11.6962 51.2284 11.1481C51.0013 10.5999 50.9419 9.99668 51.0577 9.41473C51.1734 8.83279 51.4591 8.29824 51.8787 7.87868C52.2983 7.45913 52.8328 7.1734 53.4147 7.05765C53.9967 6.94189 54.5999 7.0013 55.1481 7.22837C55.6962 7.45543 56.1648 7.83995 56.4944 8.33329C56.8241 8.82664 57 9.40666 57 10C57 10.7957 56.6839 11.5587 56.1213 12.1213C55.5587 12.6839 54.7957 13 54 13ZM54 9C53.8022 9 53.6089 9.05865 53.4444 9.16854C53.28 9.27842 53.1518 9.43459 53.0761 9.61732C53.0005 9.80005 52.9806 10.0011 53.0192 10.1951C53.0578 10.3891 53.1531 10.5673 53.2929 10.7071C53.4328 10.847 53.6109 10.9422 53.8049 10.9808C53.9989 11.0194 54.2 10.9996 54.3827 10.9239C54.5654 10.8482 54.7216 10.72 54.8315 10.5556C54.9414 10.3911 55 10.1978 55 10C55 9.73479 54.8947 9.48043 54.7071 9.2929C54.5196 9.10536 54.2652 9 54 9Z" fill="white"/>
<path d="M7.00001 23H9.00001V25H7.00001V23Z" fill="white"/>
<path d="M57 43H59V45H57V43Z" fill="white"/>
<path d="M23 13H25V15H23V13Z" fill="white"/>
<path d="M16.5 40H28V59H16.5V40Z" fill="white"/>
<path d="M36 40H47.5V59H36V40Z" fill="white"/>
<path d="M30 59H34V40H32H30V59Z" fill="white"/>
<path d="M42.8 21.935C42.1891 21.2055 41.3967 20.65 40.5026 20.3246C39.6085 19.9991 38.6444 19.9153 37.7076 20.0814C36.7707 20.2475 35.8942 20.6578 35.1666 21.2708C34.4389 21.8839 33.8858 22.6779 33.563 23.573L32 28L30.432 23.566C30.1077 22.6714 29.5534 21.8779 28.8249 21.2657C28.0964 20.6534 27.2194 20.2439 26.2823 20.0784C25.3452 19.9128 24.381 19.9971 23.4869 20.3228C22.5927 20.6484 21.8001 21.2039 21.1889 21.9333C20.5778 22.6627 20.1695 23.5403 20.0054 24.4776C19.8413 25.415 19.927 26.379 20.254 27.2727C20.581 28.1664 21.1376 28.9581 21.8679 29.5682C22.5982 30.1783 23.4764 30.5853 24.414 30.748L32 32.014L39.594 30.746C40.53 30.5813 41.4061 30.173 42.1343 29.5622C42.8624 28.9513 43.4168 28.1596 43.7418 27.2664C44.0667 26.3733 44.1508 25.4104 43.9855 24.4745C43.8201 23.5386 43.4113 22.6627 42.8 21.935V21.935ZM24.752 28.776C24.1615 28.6722 23.6087 28.4149 23.1491 28.0298C22.6896 27.6447 22.3395 27.1454 22.134 26.5821C21.9285 26.0188 21.875 25.4114 21.9786 24.8209C22.0823 24.2303 22.3396 23.6775 22.7246 23.2179C23.1097 22.7583 23.6089 22.4081 24.1721 22.2025C24.7354 21.997 25.3428 21.9433 25.9333 22.0469C26.5239 22.1505 27.0768 22.4077 27.5365 22.7927C27.9961 23.1776 28.3464 23.6768 28.552 24.24L30.494 29.734L24.752 28.776ZM40.852 28.033C40.3946 28.416 39.8446 28.6719 39.257 28.775L33.51 29.734L35.45 24.248C35.687 23.5898 36.1213 23.0208 36.6936 22.6185C37.266 22.2162 37.9484 22.0002 38.648 22C38.748 22 38.848 22 38.948 22.013C39.6213 22.0715 40.262 22.3284 40.7893 22.7512C41.3165 23.1739 41.7065 23.7436 41.9099 24.388C42.1133 25.0325 42.1209 25.7228 41.9319 26.3716C41.7429 27.0204 41.3657 27.5986 40.848 28.033H40.852Z" fill="white"/>
<path d="M20.579 31.1C20.542 31.069 20.51 31.034 20.474 31H14V38H28V33.374L24.085 32.72C22.7942 32.4978 21.5848 31.939 20.579 31.1V31.1Z" fill="white"/>
<path d="M30 38H34V34L32 34.0528L30 34V38Z" fill="white"/>
<path d="M43.527 31C43.491 31.031 43.459 31.066 43.422 31.1C42.4232 31.9366 41.2215 32.495 39.938 32.719L36 33.374V38H50V31H43.527Z" fill="white"/>
</svg>
