<svg width="64" height="64" viewBox="0 0 64 64" fill="none" xmlns="http://www.w3.org/2000/svg">
<path d="M54.6227 9.37763C42.12 -3.125 21.8823 -3.12675 9.37792 9.37763C-3.12471 21.8803 -3.12659 42.118 9.37792 54.6224C21.8805 67.125 42.1183 67.1269 54.6227 54.6224C67.1252 42.1199 67.127 21.8821 54.6227 9.37763ZM29.2889 41.3434C29.2889 42.7947 28.1124 43.9712 26.6611 43.9712C25.2098 43.9712 24.0332 42.7947 24.0332 41.3434V22.6566C24.0332 21.2053 25.2098 20.0288 26.6611 20.0288C28.1124 20.0288 29.2889 21.2053 29.2889 22.6566V41.3434ZM39.9671 41.3434C39.9671 42.7947 38.7906 43.9712 37.3392 43.9712C35.8879 43.9712 34.7114 42.7947 34.7114 41.3434V22.6566C34.7114 21.2053 35.8879 20.0288 37.3392 20.0288C38.7906 20.0288 39.9671 21.2053 39.9671 22.6566V41.3434Z" fill="white"/>
</svg>
